%FSLAX45Y45*%
G04 Gerber Fmt 4.5, Leading zero omitted, Abs format (unit mm)*
G04 Created by KiCad (PCBNEW (5.1.4-0-10_14)) date 2019-12-08 14:58:05*
%MOMM*%
%LPD*%
G04 APERTURE LIST*
%ADD10C,0.050000*%
%ADD11C,0.200000*%
%ADD12C,0.300000*%
G04 APERTURE END LIST*
D10*
X21000000Y-10300000D02*
G75*
G02X20300000Y-11000000I-700000J0D01*
G01*
X2700000Y-11000000D02*
G75*
G02X2000000Y-10300000I0J700000D01*
G01*
X2000000Y-2700000D02*
G75*
G02X2700000Y-2000000I700000J0D01*
G01*
X20300000Y-2000000D02*
G75*
G02X21000000Y-2700000I0J-700000D01*
G01*
X2000000Y-10300000D02*
X2000000Y-2700000D01*
X20300000Y-11000000D02*
X2700000Y-11000000D01*
X21000000Y-2700000D02*
X21000000Y-10300000D01*
X2700000Y-2000000D02*
X20300000Y-2000000D01*
D11*
X3380000Y-5980000D02*
X3420000Y-6020000D01*
X3420000Y-5980000D02*
X3380000Y-6020000D01*
X4680000Y-5580000D02*
X4720000Y-5620000D01*
X4720000Y-5580000D02*
X4680000Y-5620000D01*
X4680000Y-5680000D02*
X4720000Y-5720000D01*
X4720000Y-5680000D02*
X4680000Y-5720000D01*
X4680000Y-5780000D02*
X4720000Y-5820000D01*
X4720000Y-5780000D02*
X4680000Y-5820000D01*
X4680000Y-5880000D02*
X4720000Y-5920000D01*
X4720000Y-5880000D02*
X4680000Y-5920000D01*
X4680000Y-5980000D02*
X4720000Y-6020000D01*
X4720000Y-5980000D02*
X4680000Y-6020000D01*
X4680000Y-6080000D02*
X4720000Y-6120000D01*
X4720000Y-6080000D02*
X4680000Y-6120000D01*
X5180000Y-6080000D02*
X5220000Y-6120000D01*
X5220000Y-6080000D02*
X5180000Y-6120000D01*
X5380000Y-5980000D02*
X5420000Y-6020000D01*
X5420000Y-5980000D02*
X5380000Y-6020000D01*
X6280000Y-6080000D02*
X6320000Y-6120000D01*
X6320000Y-6080000D02*
X6280000Y-6120000D01*
X6580000Y-5980000D02*
X6620000Y-6020000D01*
X6620000Y-5980000D02*
X6580000Y-6020000D01*
X6780000Y-5780000D02*
X6820000Y-5820000D01*
X6820000Y-5780000D02*
X6780000Y-5820000D01*
X6980000Y-5880000D02*
X7020000Y-5920000D01*
X7020000Y-5880000D02*
X6980000Y-5920000D01*
X7080000Y-5580000D02*
X7120000Y-5620000D01*
X7120000Y-5580000D02*
X7080000Y-5620000D01*
X7280000Y-5680000D02*
X7320000Y-5720000D01*
X7320000Y-5680000D02*
X7280000Y-5720000D01*
X7480000Y-5580000D02*
X7520000Y-5620000D01*
X7520000Y-5580000D02*
X7480000Y-5620000D01*
X7580000Y-5880000D02*
X7620000Y-5920000D01*
X7620000Y-5880000D02*
X7580000Y-5920000D01*
X7780000Y-5780000D02*
X7820000Y-5820000D01*
X7820000Y-5780000D02*
X7780000Y-5820000D01*
X7880000Y-5980000D02*
X7920000Y-6020000D01*
X7920000Y-5980000D02*
X7880000Y-6020000D01*
X8280000Y-6080000D02*
X8320000Y-6120000D01*
X8320000Y-6080000D02*
X8280000Y-6120000D01*
X10080000Y-5980000D02*
X10120000Y-6020000D01*
X10120000Y-5980000D02*
X10080000Y-6020000D01*
X10080000Y-6080000D02*
X10120000Y-6120000D01*
X10120000Y-6080000D02*
X10080000Y-6120000D01*
X10580000Y-5780000D02*
X10620000Y-5820000D01*
X10620000Y-5780000D02*
X10580000Y-5820000D01*
X10780000Y-5880000D02*
X10820000Y-5920000D01*
X10820000Y-5880000D02*
X10780000Y-5920000D01*
X10880000Y-5580000D02*
X10920000Y-5620000D01*
X10920000Y-5580000D02*
X10880000Y-5620000D01*
X11080000Y-5680000D02*
X11120000Y-5720000D01*
X11120000Y-5680000D02*
X11080000Y-5720000D01*
X11280000Y-5580000D02*
X11320000Y-5620000D01*
X11320000Y-5580000D02*
X11280000Y-5620000D01*
X11380000Y-5880000D02*
X11420000Y-5920000D01*
X11420000Y-5880000D02*
X11380000Y-5920000D01*
X11580000Y-5780000D02*
X11620000Y-5820000D01*
X11620000Y-5780000D02*
X11580000Y-5820000D01*
X11980000Y-6080000D02*
X12020000Y-6120000D01*
X12020000Y-6080000D02*
X11980000Y-6120000D01*
X12080000Y-5980000D02*
X12120000Y-6020000D01*
X12120000Y-5980000D02*
X12080000Y-6020000D01*
X14180000Y-5980000D02*
X14220000Y-6020000D01*
X14220000Y-5980000D02*
X14180000Y-6020000D01*
X14280000Y-6080000D02*
X14320000Y-6120000D01*
X14320000Y-6080000D02*
X14280000Y-6120000D01*
X14580000Y-5780000D02*
X14620000Y-5820000D01*
X14620000Y-5780000D02*
X14580000Y-5820000D01*
X14780000Y-5880000D02*
X14820000Y-5920000D01*
X14820000Y-5880000D02*
X14780000Y-5920000D01*
X14980000Y-5680000D02*
X15020000Y-5720000D01*
X15020000Y-5680000D02*
X14980000Y-5720000D01*
X15080000Y-5580000D02*
X15120000Y-5620000D01*
X15120000Y-5580000D02*
X15080000Y-5620000D01*
X15280000Y-5580000D02*
X15320000Y-5620000D01*
X15320000Y-5580000D02*
X15280000Y-5620000D01*
X15280000Y-5680000D02*
X15320000Y-5720000D01*
X15320000Y-5680000D02*
X15280000Y-5720000D01*
X15580000Y-5880000D02*
X15620000Y-5920000D01*
X15620000Y-5880000D02*
X15580000Y-5920000D01*
X15780000Y-5780000D02*
X15820000Y-5820000D01*
X15820000Y-5780000D02*
X15780000Y-5820000D01*
X16080000Y-6080000D02*
X16120000Y-6120000D01*
X16120000Y-6080000D02*
X16080000Y-6120000D01*
X16280000Y-5980000D02*
X16320000Y-6020000D01*
X16320000Y-5980000D02*
X16280000Y-6020000D01*
X17980000Y-5980000D02*
X18020000Y-6020000D01*
X18020000Y-5980000D02*
X17980000Y-6020000D01*
X18180000Y-6080000D02*
X18220000Y-6120000D01*
X18220000Y-6080000D02*
X18180000Y-6120000D01*
X18480000Y-5780000D02*
X18520000Y-5820000D01*
X18520000Y-5780000D02*
X18480000Y-5820000D01*
X18680000Y-5880000D02*
X18720000Y-5920000D01*
X18720000Y-5880000D02*
X18680000Y-5920000D01*
X18780000Y-5880000D02*
X18820000Y-5920000D01*
X18820000Y-5880000D02*
X18780000Y-5920000D01*
X18980000Y-5580000D02*
X19020000Y-5620000D01*
X19020000Y-5580000D02*
X18980000Y-5620000D01*
X19180000Y-5680000D02*
X19220000Y-5720000D01*
X19220000Y-5680000D02*
X19180000Y-5720000D01*
X19280000Y-5580000D02*
X19320000Y-5620000D01*
X19320000Y-5580000D02*
X19280000Y-5620000D01*
X19480000Y-5880000D02*
X19520000Y-5920000D01*
X19520000Y-5880000D02*
X19480000Y-5920000D01*
X19680000Y-5780000D02*
X19720000Y-5820000D01*
X19720000Y-5780000D02*
X19680000Y-5820000D01*
X19980000Y-5980000D02*
X20020000Y-6020000D01*
X20020000Y-5980000D02*
X19980000Y-6020000D01*
X17530000Y-6600000D02*
G75*
G03X17530000Y-6600000I-30000J0D01*
G01*
X17730000Y-6600000D02*
G75*
G03X17730000Y-6600000I-30000J0D01*
G01*
X16530000Y-5200000D02*
G75*
G03X16530000Y-5200000I-30000J0D01*
G01*
X16730000Y-5200000D02*
G75*
G03X16730000Y-5200000I-30000J0D01*
G01*
X16530000Y-6600000D02*
G75*
G03X16530000Y-6600000I-30000J0D01*
G01*
X16730000Y-6600000D02*
G75*
G03X16730000Y-6600000I-30000J0D01*
G01*
X17530000Y-5200000D02*
G75*
G03X17530000Y-5200000I-30000J0D01*
G01*
X17730000Y-5200000D02*
G75*
G03X17730000Y-5200000I-30000J0D01*
G01*
X12530000Y-5200000D02*
G75*
G03X12530000Y-5200000I-30000J0D01*
G01*
X12730000Y-5200000D02*
G75*
G03X12730000Y-5200000I-30000J0D01*
G01*
X8130000Y-9200000D02*
G75*
G03X8130000Y-9200000I-30000J0D01*
G01*
X8330000Y-9200000D02*
G75*
G03X8330000Y-9200000I-30000J0D01*
G01*
X8730000Y-5200000D02*
G75*
G03X8730000Y-5200000I-30000J0D01*
G01*
X8930000Y-5200000D02*
G75*
G03X8930000Y-5200000I-30000J0D01*
G01*
X8730000Y-6600000D02*
G75*
G03X8730000Y-6600000I-30000J0D01*
G01*
X8930000Y-6600000D02*
G75*
G03X8930000Y-6600000I-30000J0D01*
G01*
X12530000Y-6600000D02*
G75*
G03X12530000Y-6600000I-30000J0D01*
G01*
X12730000Y-6600000D02*
G75*
G03X12730000Y-6600000I-30000J0D01*
G01*
X5230000Y-5200000D02*
G75*
G03X5230000Y-5200000I-30000J0D01*
G01*
X5430000Y-5200000D02*
G75*
G03X5430000Y-5200000I-30000J0D01*
G01*
X12100000Y-3265000D02*
X12100000Y-3335000D01*
X12065000Y-3300000D02*
X12135000Y-3300000D01*
X12100000Y-3773000D02*
X12100000Y-3843000D01*
X12065000Y-3808000D02*
X12135000Y-3808000D01*
X11800000Y-3265000D02*
X11800000Y-3335000D01*
X11765000Y-3300000D02*
X11835000Y-3300000D01*
X11800000Y-3773000D02*
X11800000Y-3843000D01*
X11765000Y-3808000D02*
X11835000Y-3808000D01*
X11200000Y-3265000D02*
X11200000Y-3335000D01*
X11165000Y-3300000D02*
X11235000Y-3300000D01*
X11200000Y-3773000D02*
X11200000Y-3843000D01*
X11165000Y-3808000D02*
X11235000Y-3808000D01*
X11300000Y-7857000D02*
X11300000Y-7927000D01*
X11265000Y-7892000D02*
X11335000Y-7892000D01*
X11300000Y-8365000D02*
X11300000Y-8435000D01*
X11265000Y-8400000D02*
X11335000Y-8400000D01*
X3600000Y-3265000D02*
X3600000Y-3335000D01*
X3565000Y-3300000D02*
X3635000Y-3300000D01*
X3600000Y-3773000D02*
X3600000Y-3843000D01*
X3565000Y-3808000D02*
X3635000Y-3808000D01*
X14600000Y-3265000D02*
X14600000Y-3335000D01*
X14565000Y-3300000D02*
X14635000Y-3300000D01*
X14600000Y-3773000D02*
X14600000Y-3843000D01*
X14565000Y-3808000D02*
X14635000Y-3808000D01*
X10900000Y-3265000D02*
X10900000Y-3335000D01*
X10865000Y-3300000D02*
X10935000Y-3300000D01*
X10900000Y-3773000D02*
X10900000Y-3843000D01*
X10865000Y-3808000D02*
X10935000Y-3808000D01*
X8600000Y-3257000D02*
X8600000Y-3327000D01*
X8565000Y-3292000D02*
X8635000Y-3292000D01*
X8600000Y-3765000D02*
X8600000Y-3835000D01*
X8565000Y-3800000D02*
X8635000Y-3800000D01*
X15200000Y-7957000D02*
X15200000Y-8027000D01*
X15165000Y-7992000D02*
X15235000Y-7992000D01*
X15200000Y-8465000D02*
X15200000Y-8535000D01*
X15165000Y-8500000D02*
X15235000Y-8500000D01*
X10300000Y-3265000D02*
X10300000Y-3335000D01*
X10265000Y-3300000D02*
X10335000Y-3300000D01*
X10300000Y-3773000D02*
X10300000Y-3843000D01*
X10265000Y-3808000D02*
X10335000Y-3808000D01*
X11900000Y-7857000D02*
X11900000Y-7927000D01*
X11865000Y-7892000D02*
X11935000Y-7892000D01*
X11900000Y-8365000D02*
X11900000Y-8435000D01*
X11865000Y-8400000D02*
X11935000Y-8400000D01*
X11600000Y-7857000D02*
X11600000Y-7927000D01*
X11565000Y-7892000D02*
X11635000Y-7892000D01*
X11600000Y-8365000D02*
X11600000Y-8435000D01*
X11565000Y-8400000D02*
X11635000Y-8400000D01*
X15500000Y-3265000D02*
X15500000Y-3335000D01*
X15465000Y-3300000D02*
X15535000Y-3300000D01*
X19100000Y-7957000D02*
X19100000Y-8027000D01*
X19065000Y-7992000D02*
X19135000Y-7992000D01*
X19100000Y-8465000D02*
X19100000Y-8535000D01*
X19065000Y-8500000D02*
X19135000Y-8500000D01*
X18800000Y-7957000D02*
X18800000Y-8027000D01*
X18765000Y-7992000D02*
X18835000Y-7992000D01*
X18800000Y-8465000D02*
X18800000Y-8535000D01*
X18765000Y-8500000D02*
X18835000Y-8500000D01*
X7400000Y-3265000D02*
X7400000Y-3335000D01*
X7365000Y-3300000D02*
X7435000Y-3300000D01*
X7400000Y-3773000D02*
X7400000Y-3843000D01*
X7365000Y-3808000D02*
X7435000Y-3808000D01*
X10600000Y-3265000D02*
X10600000Y-3335000D01*
X10565000Y-3300000D02*
X10635000Y-3300000D01*
X10600000Y-3773000D02*
X10600000Y-3843000D01*
X10565000Y-3808000D02*
X10635000Y-3808000D01*
X10100000Y-7857000D02*
X10100000Y-7927000D01*
X10065000Y-7892000D02*
X10135000Y-7892000D01*
X17900000Y-8465000D02*
X17900000Y-8535000D01*
X17865000Y-8500000D02*
X17935000Y-8500000D01*
X4200000Y-3265000D02*
X4200000Y-3335000D01*
X4165000Y-3300000D02*
X4235000Y-3300000D01*
X10100000Y-8365000D02*
X10100000Y-8435000D01*
X10065000Y-8400000D02*
X10135000Y-8400000D01*
X17900000Y-7957000D02*
X17900000Y-8027000D01*
X17865000Y-7992000D02*
X17935000Y-7992000D01*
X20000000Y-3265000D02*
X20000000Y-3335000D01*
X19965000Y-3300000D02*
X20035000Y-3300000D01*
X20000000Y-3773000D02*
X20000000Y-3843000D01*
X19965000Y-3808000D02*
X20035000Y-3808000D01*
X14900000Y-7957000D02*
X14900000Y-8027000D01*
X14865000Y-7992000D02*
X14935000Y-7992000D01*
X4200000Y-3773000D02*
X4200000Y-3843000D01*
X4165000Y-3808000D02*
X4235000Y-3808000D01*
X15500000Y-3773000D02*
X15500000Y-3843000D01*
X15465000Y-3808000D02*
X15535000Y-3808000D01*
X16100000Y-3265000D02*
X16100000Y-3335000D01*
X16065000Y-3300000D02*
X16135000Y-3300000D01*
X16100000Y-3773000D02*
X16100000Y-3843000D01*
X16065000Y-3808000D02*
X16135000Y-3808000D01*
X14900000Y-8465000D02*
X14900000Y-8535000D01*
X14865000Y-8500000D02*
X14935000Y-8500000D01*
X2700000Y-3265000D02*
X2700000Y-3335000D01*
X2665000Y-3300000D02*
X2735000Y-3300000D01*
X7100000Y-3773000D02*
X7100000Y-3843000D01*
X7065000Y-3808000D02*
X7135000Y-3808000D01*
X19100000Y-3265000D02*
X19100000Y-3335000D01*
X19065000Y-3300000D02*
X19135000Y-3300000D01*
X19100000Y-3773000D02*
X19100000Y-3843000D01*
X19065000Y-3808000D02*
X19135000Y-3808000D01*
X7100000Y-3265000D02*
X7100000Y-3335000D01*
X7065000Y-3300000D02*
X7135000Y-3300000D01*
X2700000Y-3773000D02*
X2700000Y-3843000D01*
X2665000Y-3808000D02*
X2735000Y-3808000D01*
X15200000Y-3265000D02*
X15200000Y-3335000D01*
X15165000Y-3300000D02*
X15235000Y-3300000D01*
X15200000Y-3773000D02*
X15200000Y-3843000D01*
X15165000Y-3808000D02*
X15235000Y-3808000D01*
X15500000Y-7957000D02*
X15500000Y-8027000D01*
X15465000Y-7992000D02*
X15535000Y-7992000D01*
X15500000Y-8465000D02*
X15500000Y-8535000D01*
X15465000Y-8500000D02*
X15535000Y-8500000D01*
X4500000Y-3265000D02*
X4500000Y-3335000D01*
X4465000Y-3300000D02*
X4535000Y-3300000D01*
X4500000Y-3773000D02*
X4500000Y-3843000D01*
X4465000Y-3808000D02*
X4535000Y-3808000D01*
X14600000Y-7957000D02*
X14600000Y-8027000D01*
X14565000Y-7992000D02*
X14635000Y-7992000D01*
X14600000Y-8465000D02*
X14600000Y-8535000D01*
X14565000Y-8500000D02*
X14635000Y-8500000D01*
X4800000Y-3265000D02*
X4800000Y-3335000D01*
X4765000Y-3300000D02*
X4835000Y-3300000D01*
X4800000Y-3773000D02*
X4800000Y-3843000D01*
X4765000Y-3808000D02*
X4835000Y-3808000D01*
X12400000Y-3265000D02*
X12400000Y-3335000D01*
X12365000Y-3300000D02*
X12435000Y-3300000D01*
X12400000Y-3773000D02*
X12400000Y-3843000D01*
X12365000Y-3808000D02*
X12435000Y-3808000D01*
X9800000Y-7857000D02*
X9800000Y-7927000D01*
X9765000Y-7892000D02*
X9835000Y-7892000D01*
X9800000Y-8365000D02*
X9800000Y-8435000D01*
X9765000Y-8400000D02*
X9835000Y-8400000D01*
X20000000Y-7957000D02*
X20000000Y-8027000D01*
X19965000Y-7992000D02*
X20035000Y-7992000D01*
X20000000Y-8465000D02*
X20000000Y-8535000D01*
X19965000Y-8500000D02*
X20035000Y-8500000D01*
X14300000Y-8465000D02*
X14300000Y-8535000D01*
X14265000Y-8500000D02*
X14335000Y-8500000D01*
X19700000Y-3265000D02*
X19700000Y-3335000D01*
X19665000Y-3300000D02*
X19735000Y-3300000D01*
X7700000Y-3265000D02*
X7700000Y-3335000D01*
X7665000Y-3300000D02*
X7735000Y-3300000D01*
X19700000Y-8465000D02*
X19700000Y-8535000D01*
X19665000Y-8500000D02*
X19735000Y-8500000D01*
X19700000Y-3773000D02*
X19700000Y-3843000D01*
X19665000Y-3808000D02*
X19735000Y-3808000D01*
X7700000Y-3773000D02*
X7700000Y-3843000D01*
X7665000Y-3808000D02*
X7735000Y-3808000D01*
X19700000Y-7957000D02*
X19700000Y-8027000D01*
X19665000Y-7992000D02*
X19735000Y-7992000D01*
X15800000Y-3265000D02*
X15800000Y-3335000D01*
X15765000Y-3300000D02*
X15835000Y-3300000D01*
X15800000Y-3773000D02*
X15800000Y-3843000D01*
X15765000Y-3808000D02*
X15835000Y-3808000D01*
X3900000Y-3265000D02*
X3900000Y-3335000D01*
X3865000Y-3300000D02*
X3935000Y-3300000D01*
X3900000Y-3773000D02*
X3900000Y-3843000D01*
X3865000Y-3808000D02*
X3935000Y-3808000D01*
X14900000Y-3265000D02*
X14900000Y-3335000D01*
X14865000Y-3300000D02*
X14935000Y-3300000D01*
X14900000Y-3773000D02*
X14900000Y-3843000D01*
X14865000Y-3808000D02*
X14935000Y-3808000D01*
X10400000Y-7857000D02*
X10400000Y-7927000D01*
X10365000Y-7892000D02*
X10435000Y-7892000D01*
X10400000Y-8365000D02*
X10400000Y-8435000D01*
X10365000Y-8400000D02*
X10435000Y-8400000D01*
X14300000Y-7957000D02*
X14300000Y-8027000D01*
X14265000Y-7992000D02*
X14335000Y-7992000D01*
X3000000Y-3265000D02*
X3000000Y-3335000D01*
X2965000Y-3300000D02*
X3035000Y-3300000D01*
X15800000Y-7957000D02*
X15800000Y-8027000D01*
X15765000Y-7992000D02*
X15835000Y-7992000D01*
X15800000Y-8465000D02*
X15800000Y-8535000D01*
X15765000Y-8500000D02*
X15835000Y-8500000D01*
X19400000Y-7957000D02*
X19400000Y-8027000D01*
X19365000Y-7992000D02*
X19435000Y-7992000D01*
X19400000Y-8465000D02*
X19400000Y-8535000D01*
X19365000Y-8500000D02*
X19435000Y-8500000D01*
X18500000Y-7957000D02*
X18500000Y-8027000D01*
X18465000Y-7992000D02*
X18535000Y-7992000D01*
X18500000Y-8465000D02*
X18500000Y-8535000D01*
X18465000Y-8500000D02*
X18535000Y-8500000D01*
X16400000Y-3257000D02*
X16400000Y-3327000D01*
X16365000Y-3292000D02*
X16435000Y-3292000D01*
X16400000Y-3765000D02*
X16400000Y-3835000D01*
X16365000Y-3800000D02*
X16435000Y-3800000D01*
X18200000Y-7957000D02*
X18200000Y-8027000D01*
X18165000Y-7992000D02*
X18235000Y-7992000D01*
X18200000Y-8465000D02*
X18200000Y-8535000D01*
X18165000Y-8500000D02*
X18235000Y-8500000D01*
X6500000Y-3773000D02*
X6500000Y-3843000D01*
X6465000Y-3808000D02*
X6535000Y-3808000D01*
X3000000Y-3773000D02*
X3000000Y-3843000D01*
X2965000Y-3808000D02*
X3035000Y-3808000D01*
X18500000Y-3265000D02*
X18500000Y-3335000D01*
X18465000Y-3300000D02*
X18535000Y-3300000D01*
X14000000Y-8465000D02*
X14000000Y-8535000D01*
X13965000Y-8500000D02*
X14035000Y-8500000D01*
X14300000Y-3265000D02*
X14300000Y-3335000D01*
X14265000Y-3300000D02*
X14335000Y-3300000D01*
X14300000Y-3773000D02*
X14300000Y-3843000D01*
X14265000Y-3808000D02*
X14335000Y-3808000D01*
X16100000Y-7957000D02*
X16100000Y-8027000D01*
X16065000Y-7992000D02*
X16135000Y-7992000D01*
X16100000Y-8465000D02*
X16100000Y-8535000D01*
X16065000Y-8500000D02*
X16135000Y-8500000D01*
X14000000Y-7957000D02*
X14000000Y-8027000D01*
X13965000Y-7992000D02*
X14035000Y-7992000D01*
X10700000Y-7857000D02*
X10700000Y-7927000D01*
X10665000Y-7892000D02*
X10735000Y-7892000D01*
X10700000Y-8365000D02*
X10700000Y-8435000D01*
X10665000Y-8400000D02*
X10735000Y-8400000D01*
X11500000Y-3265000D02*
X11500000Y-3335000D01*
X11465000Y-3300000D02*
X11535000Y-3300000D01*
X11500000Y-3773000D02*
X11500000Y-3843000D01*
X11465000Y-3808000D02*
X11535000Y-3808000D01*
X3300000Y-3265000D02*
X3300000Y-3335000D01*
X3265000Y-3300000D02*
X3335000Y-3300000D01*
X3300000Y-3773000D02*
X3300000Y-3843000D01*
X3265000Y-3808000D02*
X3335000Y-3808000D01*
X8000000Y-3265000D02*
X8000000Y-3335000D01*
X7965000Y-3300000D02*
X8035000Y-3300000D01*
X8000000Y-3773000D02*
X8000000Y-3843000D01*
X7965000Y-3808000D02*
X8035000Y-3808000D01*
X6500000Y-3265000D02*
X6500000Y-3335000D01*
X6465000Y-3300000D02*
X6535000Y-3300000D01*
X11000000Y-7857000D02*
X11000000Y-7927000D01*
X10965000Y-7892000D02*
X11035000Y-7892000D01*
X11000000Y-8365000D02*
X11000000Y-8435000D01*
X10965000Y-8400000D02*
X11035000Y-8400000D01*
X6800000Y-3265000D02*
X6800000Y-3335000D01*
X6765000Y-3300000D02*
X6835000Y-3300000D01*
X17900000Y-3265000D02*
X17900000Y-3335000D01*
X17865000Y-3300000D02*
X17935000Y-3300000D01*
X17900000Y-3773000D02*
X17900000Y-3843000D01*
X17865000Y-3808000D02*
X17935000Y-3808000D01*
X18200000Y-3265000D02*
X18200000Y-3335000D01*
X18165000Y-3300000D02*
X18235000Y-3300000D01*
X18200000Y-3773000D02*
X18200000Y-3843000D01*
X18165000Y-3808000D02*
X18235000Y-3808000D01*
X6800000Y-3773000D02*
X6800000Y-3843000D01*
X6765000Y-3808000D02*
X6835000Y-3808000D01*
X18500000Y-3773000D02*
X18500000Y-3843000D01*
X18465000Y-3808000D02*
X18535000Y-3808000D01*
X18800000Y-3265000D02*
X18800000Y-3335000D01*
X18765000Y-3300000D02*
X18835000Y-3300000D01*
X18800000Y-3773000D02*
X18800000Y-3843000D01*
X18765000Y-3808000D02*
X18835000Y-3808000D01*
X19400000Y-3265000D02*
X19400000Y-3335000D01*
X19365000Y-3300000D02*
X19435000Y-3300000D01*
X19400000Y-3773000D02*
X19400000Y-3843000D01*
X19365000Y-3808000D02*
X19435000Y-3808000D01*
X8300000Y-3265000D02*
X8300000Y-3335000D01*
X8265000Y-3300000D02*
X8335000Y-3300000D01*
X8300000Y-3773000D02*
X8300000Y-3843000D01*
X8265000Y-3808000D02*
X8335000Y-3808000D01*
X8499517Y-8126517D02*
X8499517Y-8073483D01*
X8446483Y-8073483D01*
X8446483Y-8126517D01*
X8499517Y-8126517D01*
X8626517Y-8126517D02*
X8626517Y-8073483D01*
X8573483Y-8073483D01*
X8573483Y-8126517D01*
X8626517Y-8126517D01*
X8753517Y-8126517D02*
X8753517Y-8073483D01*
X8700483Y-8073483D01*
X8700483Y-8126517D01*
X8753517Y-8126517D01*
X7826517Y-8126517D02*
X7826517Y-8073483D01*
X7773483Y-8073483D01*
X7773483Y-8126517D01*
X7826517Y-8126517D01*
X7953517Y-8126517D02*
X7953517Y-8073483D01*
X7900483Y-8073483D01*
X7900483Y-8126517D01*
X7953517Y-8126517D01*
X8080517Y-8126517D02*
X8080517Y-8073483D01*
X8027483Y-8073483D01*
X8027483Y-8126517D01*
X8080517Y-8126517D01*
X9226517Y-8126517D02*
X9226517Y-8073483D01*
X9173483Y-8073483D01*
X9173483Y-8126517D01*
X9226517Y-8126517D01*
X9353517Y-8126517D02*
X9353517Y-8073483D01*
X9300483Y-8073483D01*
X9300483Y-8126517D01*
X9353517Y-8126517D01*
X9480517Y-8126517D02*
X9480517Y-8073483D01*
X9427483Y-8073483D01*
X9427483Y-8126517D01*
X9480517Y-8126517D01*
X7126517Y-8126517D02*
X7126517Y-8073483D01*
X7073483Y-8073483D01*
X7073483Y-8126517D01*
X7126517Y-8126517D01*
X7253517Y-8126517D02*
X7253517Y-8073483D01*
X7200483Y-8073483D01*
X7200483Y-8126517D01*
X7253517Y-8126517D01*
X7380517Y-8126517D02*
X7380517Y-8073483D01*
X7327483Y-8073483D01*
X7327483Y-8126517D01*
X7380517Y-8126517D01*
X5726517Y-7926517D02*
X5726517Y-7873483D01*
X5673483Y-7873483D01*
X5673483Y-7926517D01*
X5726517Y-7926517D01*
X5853517Y-7926517D02*
X5853517Y-7873483D01*
X5800483Y-7873483D01*
X5800483Y-7926517D01*
X5853517Y-7926517D01*
X5980517Y-7926517D02*
X5980517Y-7873483D01*
X5927483Y-7873483D01*
X5927483Y-7926517D01*
X5980517Y-7926517D01*
X5426517Y-6426517D02*
X5426517Y-6373483D01*
X5373483Y-6373483D01*
X5373483Y-6426517D01*
X5426517Y-6426517D01*
X5553517Y-6426517D02*
X5553517Y-6373483D01*
X5500483Y-6373483D01*
X5500483Y-6426517D01*
X5553517Y-6426517D01*
X5680517Y-6426517D02*
X5680517Y-6373483D01*
X5627483Y-6373483D01*
X5627483Y-6426517D01*
X5680517Y-6426517D01*
X6426517Y-8126517D02*
X6426517Y-8073483D01*
X6373483Y-8073483D01*
X6373483Y-8126517D01*
X6426517Y-8126517D01*
X6553517Y-8126517D02*
X6553517Y-8073483D01*
X6500483Y-8073483D01*
X6500483Y-8126517D01*
X6553517Y-8126517D01*
X6680517Y-8126517D02*
X6680517Y-8073483D01*
X6627483Y-8073483D01*
X6627483Y-8126517D01*
X6680517Y-8126517D01*
X5426517Y-7126517D02*
X5426517Y-7073483D01*
X5373483Y-7073483D01*
X5373483Y-7126517D01*
X5426517Y-7126517D01*
X5553517Y-7126517D02*
X5553517Y-7073483D01*
X5500483Y-7073483D01*
X5500483Y-7126517D01*
X5553517Y-7126517D01*
X5680517Y-7126517D02*
X5680517Y-7073483D01*
X5627483Y-7073483D01*
X5627483Y-7126517D01*
X5680517Y-7126517D01*
X10322000Y-5202000D02*
X10362000Y-5162000D01*
X10322000Y-5122000D01*
X10282000Y-5162000D01*
X10322000Y-5202000D01*
X10576000Y-5202000D02*
X10616000Y-5162000D01*
X10576000Y-5122000D01*
X10536000Y-5162000D01*
X10576000Y-5202000D01*
X10830000Y-5202000D02*
X10870000Y-5162000D01*
X10830000Y-5122000D01*
X10790000Y-5162000D01*
X10830000Y-5202000D01*
X11084000Y-4440000D02*
X11124000Y-4400000D01*
X11084000Y-4360000D01*
X11044000Y-4400000D01*
X11084000Y-4440000D01*
X11084000Y-5202000D02*
X11124000Y-5162000D01*
X11084000Y-5122000D01*
X11044000Y-5162000D01*
X11084000Y-5202000D01*
X11338000Y-4440000D02*
X11378000Y-4400000D01*
X11338000Y-4360000D01*
X11298000Y-4400000D01*
X11338000Y-4440000D01*
X11338000Y-5202000D02*
X11378000Y-5162000D01*
X11338000Y-5122000D01*
X11298000Y-5162000D01*
X11338000Y-5202000D01*
X11592000Y-4440000D02*
X11632000Y-4400000D01*
X11592000Y-4360000D01*
X11552000Y-4400000D01*
X11592000Y-4440000D01*
X11846000Y-4440000D02*
X11886000Y-4400000D01*
X11846000Y-4360000D01*
X11806000Y-4400000D01*
X11846000Y-4440000D01*
X12100000Y-4440000D02*
X12140000Y-4400000D01*
X12100000Y-4360000D01*
X12060000Y-4400000D01*
X12100000Y-4440000D01*
X6500000Y-2840000D02*
X6540000Y-2800000D01*
X6500000Y-2760000D01*
X6460000Y-2800000D01*
X6500000Y-2840000D01*
X6700000Y-2840000D02*
X6740000Y-2800000D01*
X6700000Y-2760000D01*
X6660000Y-2800000D01*
X6700000Y-2840000D01*
X6900000Y-2840000D02*
X6940000Y-2800000D01*
X6900000Y-2760000D01*
X6860000Y-2800000D01*
X6900000Y-2840000D01*
X7100000Y-2840000D02*
X7140000Y-2800000D01*
X7100000Y-2760000D01*
X7060000Y-2800000D01*
X7100000Y-2840000D01*
X7300000Y-2840000D02*
X7340000Y-2800000D01*
X7300000Y-2760000D01*
X7260000Y-2800000D01*
X7300000Y-2840000D01*
X7500000Y-2840000D02*
X7540000Y-2800000D01*
X7500000Y-2760000D01*
X7460000Y-2800000D01*
X7500000Y-2840000D01*
X7700000Y-2840000D02*
X7740000Y-2800000D01*
X7700000Y-2760000D01*
X7660000Y-2800000D01*
X7700000Y-2840000D01*
X7900000Y-2840000D02*
X7940000Y-2800000D01*
X7900000Y-2760000D01*
X7860000Y-2800000D01*
X7900000Y-2840000D01*
X10322000Y-4440000D02*
X10362000Y-4400000D01*
X10322000Y-4360000D01*
X10282000Y-4400000D01*
X10322000Y-4440000D01*
X10576000Y-4440000D02*
X10616000Y-4400000D01*
X10576000Y-4360000D01*
X10536000Y-4400000D01*
X10576000Y-4440000D01*
X10830000Y-4440000D02*
X10870000Y-4400000D01*
X10830000Y-4360000D01*
X10790000Y-4400000D01*
X10830000Y-4440000D01*
X11592000Y-5202000D02*
X11632000Y-5162000D01*
X11592000Y-5122000D01*
X11552000Y-5162000D01*
X11592000Y-5202000D01*
X12100000Y-5202000D02*
X12140000Y-5162000D01*
X12100000Y-5122000D01*
X12060000Y-5162000D01*
X12100000Y-5202000D01*
X10300000Y-2840000D02*
X10340000Y-2800000D01*
X10300000Y-2760000D01*
X10260000Y-2800000D01*
X10300000Y-2840000D01*
X3176000Y-8880000D02*
X3216000Y-8840000D01*
X3176000Y-8800000D01*
X3136000Y-8840000D01*
X3176000Y-8880000D01*
X10500000Y-2840000D02*
X10540000Y-2800000D01*
X10500000Y-2760000D01*
X10460000Y-2800000D01*
X10500000Y-2840000D01*
X10700000Y-2840000D02*
X10740000Y-2800000D01*
X10700000Y-2760000D01*
X10660000Y-2800000D01*
X10700000Y-2840000D01*
X10900000Y-2840000D02*
X10940000Y-2800000D01*
X10900000Y-2760000D01*
X10860000Y-2800000D01*
X10900000Y-2840000D01*
X11100000Y-2840000D02*
X11140000Y-2800000D01*
X11100000Y-2760000D01*
X11060000Y-2800000D01*
X11100000Y-2840000D01*
X11300000Y-2840000D02*
X11340000Y-2800000D01*
X11300000Y-2760000D01*
X11260000Y-2800000D01*
X11300000Y-2840000D01*
X11500000Y-2840000D02*
X11540000Y-2800000D01*
X11500000Y-2760000D01*
X11460000Y-2800000D01*
X11500000Y-2840000D01*
X11700000Y-2840000D02*
X11740000Y-2800000D01*
X11700000Y-2760000D01*
X11660000Y-2800000D01*
X11700000Y-2840000D01*
X14300000Y-2840000D02*
X14340000Y-2800000D01*
X14300000Y-2760000D01*
X14260000Y-2800000D01*
X14300000Y-2840000D01*
X14500000Y-2840000D02*
X14540000Y-2800000D01*
X14500000Y-2760000D01*
X14460000Y-2800000D01*
X14500000Y-2840000D01*
X14700000Y-2840000D02*
X14740000Y-2800000D01*
X14700000Y-2760000D01*
X14660000Y-2800000D01*
X14700000Y-2840000D01*
X14900000Y-2840000D02*
X14940000Y-2800000D01*
X14900000Y-2760000D01*
X14860000Y-2800000D01*
X14900000Y-2840000D01*
X15100000Y-2840000D02*
X15140000Y-2800000D01*
X15100000Y-2760000D01*
X15060000Y-2800000D01*
X15100000Y-2840000D01*
X15300000Y-2840000D02*
X15340000Y-2800000D01*
X15300000Y-2760000D01*
X15260000Y-2800000D01*
X15300000Y-2840000D01*
X4700000Y-8118000D02*
X4740000Y-8078000D01*
X4700000Y-8038000D01*
X4660000Y-8078000D01*
X4700000Y-8118000D01*
X3176000Y-6340000D02*
X3216000Y-6300000D01*
X3176000Y-6260000D01*
X3136000Y-6300000D01*
X3176000Y-6340000D01*
X3176000Y-6594000D02*
X3216000Y-6554000D01*
X3176000Y-6514000D01*
X3136000Y-6554000D01*
X3176000Y-6594000D01*
X3176000Y-6848000D02*
X3216000Y-6808000D01*
X3176000Y-6768000D01*
X3136000Y-6808000D01*
X3176000Y-6848000D01*
X3176000Y-7102000D02*
X3216000Y-7062000D01*
X3176000Y-7022000D01*
X3136000Y-7062000D01*
X3176000Y-7102000D01*
X3176000Y-7356000D02*
X3216000Y-7316000D01*
X3176000Y-7276000D01*
X3136000Y-7316000D01*
X3176000Y-7356000D01*
X3176000Y-7610000D02*
X3216000Y-7570000D01*
X3176000Y-7530000D01*
X3136000Y-7570000D01*
X3176000Y-7610000D01*
X3176000Y-7864000D02*
X3216000Y-7824000D01*
X3176000Y-7784000D01*
X3136000Y-7824000D01*
X3176000Y-7864000D01*
X3176000Y-8118000D02*
X3216000Y-8078000D01*
X3176000Y-8038000D01*
X3136000Y-8078000D01*
X3176000Y-8118000D01*
X3176000Y-8372000D02*
X3216000Y-8332000D01*
X3176000Y-8292000D01*
X3136000Y-8332000D01*
X3176000Y-8372000D01*
X3176000Y-8626000D02*
X3216000Y-8586000D01*
X3176000Y-8546000D01*
X3136000Y-8586000D01*
X3176000Y-8626000D01*
X3176000Y-9134000D02*
X3216000Y-9094000D01*
X3176000Y-9054000D01*
X3136000Y-9094000D01*
X3176000Y-9134000D01*
X3176000Y-9388000D02*
X3216000Y-9348000D01*
X3176000Y-9308000D01*
X3136000Y-9348000D01*
X3176000Y-9388000D01*
X3176000Y-9642000D02*
X3216000Y-9602000D01*
X3176000Y-9562000D01*
X3136000Y-9602000D01*
X3176000Y-9642000D01*
X3176000Y-9896000D02*
X3216000Y-9856000D01*
X3176000Y-9816000D01*
X3136000Y-9856000D01*
X3176000Y-9896000D01*
X4700000Y-6340000D02*
X4740000Y-6300000D01*
X4700000Y-6260000D01*
X4660000Y-6300000D01*
X4700000Y-6340000D01*
X4700000Y-6594000D02*
X4740000Y-6554000D01*
X4700000Y-6514000D01*
X4660000Y-6554000D01*
X4700000Y-6594000D01*
X4700000Y-6848000D02*
X4740000Y-6808000D01*
X4700000Y-6768000D01*
X4660000Y-6808000D01*
X4700000Y-6848000D01*
X4700000Y-7610000D02*
X4740000Y-7570000D01*
X4700000Y-7530000D01*
X4660000Y-7570000D01*
X4700000Y-7610000D01*
X4700000Y-7864000D02*
X4740000Y-7824000D01*
X4700000Y-7784000D01*
X4660000Y-7824000D01*
X4700000Y-7864000D01*
X15500000Y-2840000D02*
X15540000Y-2800000D01*
X15500000Y-2760000D01*
X15460000Y-2800000D01*
X15500000Y-2840000D01*
X15700000Y-2840000D02*
X15740000Y-2800000D01*
X15700000Y-2760000D01*
X15660000Y-2800000D01*
X15700000Y-2840000D01*
X4700000Y-7102000D02*
X4740000Y-7062000D01*
X4700000Y-7022000D01*
X4660000Y-7062000D01*
X4700000Y-7102000D01*
X4700000Y-7356000D02*
X4740000Y-7316000D01*
X4700000Y-7276000D01*
X4660000Y-7316000D01*
X4700000Y-7356000D01*
X4700000Y-8372000D02*
X4740000Y-8332000D01*
X4700000Y-8292000D01*
X4660000Y-8332000D01*
X4700000Y-8372000D01*
X4700000Y-8626000D02*
X4740000Y-8586000D01*
X4700000Y-8546000D01*
X4660000Y-8586000D01*
X4700000Y-8626000D01*
X4700000Y-8880000D02*
X4740000Y-8840000D01*
X4700000Y-8800000D01*
X4660000Y-8840000D01*
X4700000Y-8880000D01*
X4700000Y-9134000D02*
X4740000Y-9094000D01*
X4700000Y-9054000D01*
X4660000Y-9094000D01*
X4700000Y-9134000D01*
X4700000Y-9388000D02*
X4740000Y-9348000D01*
X4700000Y-9308000D01*
X4660000Y-9348000D01*
X4700000Y-9388000D01*
X4700000Y-9642000D02*
X4740000Y-9602000D01*
X4700000Y-9562000D01*
X4660000Y-9602000D01*
X4700000Y-9642000D01*
X4700000Y-9896000D02*
X4740000Y-9856000D01*
X4700000Y-9816000D01*
X4660000Y-9856000D01*
X4700000Y-9896000D01*
X10100000Y-6678000D02*
X10140000Y-6638000D01*
X10100000Y-6598000D01*
X10060000Y-6638000D01*
X10100000Y-6678000D01*
X10100000Y-7440000D02*
X10140000Y-7400000D01*
X10100000Y-7360000D01*
X10060000Y-7400000D01*
X10100000Y-7440000D01*
X10354000Y-6678000D02*
X10394000Y-6638000D01*
X10354000Y-6598000D01*
X10314000Y-6638000D01*
X10354000Y-6678000D01*
X10354000Y-7440000D02*
X10394000Y-7400000D01*
X10354000Y-7360000D01*
X10314000Y-7400000D01*
X10354000Y-7440000D01*
X10608000Y-6678000D02*
X10648000Y-6638000D01*
X10608000Y-6598000D01*
X10568000Y-6638000D01*
X10608000Y-6678000D01*
X10608000Y-7440000D02*
X10648000Y-7400000D01*
X10608000Y-7360000D01*
X10568000Y-7400000D01*
X10608000Y-7440000D01*
X10862000Y-6678000D02*
X10902000Y-6638000D01*
X10862000Y-6598000D01*
X10822000Y-6638000D01*
X10862000Y-6678000D01*
X10862000Y-7440000D02*
X10902000Y-7400000D01*
X10862000Y-7360000D01*
X10822000Y-7400000D01*
X10862000Y-7440000D01*
X11116000Y-6678000D02*
X11156000Y-6638000D01*
X11116000Y-6598000D01*
X11076000Y-6638000D01*
X11116000Y-6678000D01*
X11116000Y-7440000D02*
X11156000Y-7400000D01*
X11116000Y-7360000D01*
X11076000Y-7400000D01*
X11116000Y-7440000D01*
X11370000Y-6678000D02*
X11410000Y-6638000D01*
X11370000Y-6598000D01*
X11330000Y-6638000D01*
X11370000Y-6678000D01*
X11370000Y-7440000D02*
X11410000Y-7400000D01*
X11370000Y-7360000D01*
X11330000Y-7400000D01*
X11370000Y-7440000D01*
X11846000Y-5202000D02*
X11886000Y-5162000D01*
X11846000Y-5122000D01*
X11806000Y-5162000D01*
X11846000Y-5202000D01*
X11624000Y-6678000D02*
X11664000Y-6638000D01*
X11624000Y-6598000D01*
X11584000Y-6638000D01*
X11624000Y-6678000D01*
X11878000Y-6678000D02*
X11918000Y-6638000D01*
X11878000Y-6598000D01*
X11838000Y-6638000D01*
X11878000Y-6678000D01*
X5300000Y-8140000D02*
X5340000Y-8100000D01*
X5300000Y-8060000D01*
X5260000Y-8100000D01*
X5300000Y-8140000D01*
X5300000Y-8340000D02*
X5340000Y-8300000D01*
X5300000Y-8260000D01*
X5260000Y-8300000D01*
X5300000Y-8340000D01*
X5300000Y-8540000D02*
X5340000Y-8500000D01*
X5300000Y-8460000D01*
X5260000Y-8500000D01*
X5300000Y-8540000D01*
X5300000Y-8740000D02*
X5340000Y-8700000D01*
X5300000Y-8660000D01*
X5260000Y-8700000D01*
X5300000Y-8740000D01*
X5300000Y-8940000D02*
X5340000Y-8900000D01*
X5300000Y-8860000D01*
X5260000Y-8900000D01*
X5300000Y-8940000D01*
X5300000Y-9140000D02*
X5340000Y-9100000D01*
X5300000Y-9060000D01*
X5260000Y-9100000D01*
X5300000Y-9140000D01*
X11878000Y-7440000D02*
X11918000Y-7400000D01*
X11878000Y-7360000D01*
X11838000Y-7400000D01*
X11878000Y-7440000D01*
X5300000Y-7940000D02*
X5340000Y-7900000D01*
X5300000Y-7860000D01*
X5260000Y-7900000D01*
X5300000Y-7940000D01*
X11624000Y-7440000D02*
X11664000Y-7400000D01*
X11624000Y-7360000D01*
X11584000Y-7400000D01*
X11624000Y-7440000D01*
X5300000Y-7740000D02*
X5340000Y-7700000D01*
X5300000Y-7660000D01*
X5260000Y-7700000D01*
X5300000Y-7740000D01*
X18222000Y-4440000D02*
X18262000Y-4400000D01*
X18222000Y-4360000D01*
X18182000Y-4400000D01*
X18222000Y-4440000D01*
X14300000Y-6678000D02*
X14340000Y-6638000D01*
X14300000Y-6598000D01*
X14260000Y-6638000D01*
X14300000Y-6678000D01*
X18222000Y-5202000D02*
X18262000Y-5162000D01*
X18222000Y-5122000D01*
X18182000Y-5162000D01*
X18222000Y-5202000D01*
X18476000Y-4440000D02*
X18516000Y-4400000D01*
X18476000Y-4360000D01*
X18436000Y-4400000D01*
X18476000Y-4440000D01*
X18476000Y-5202000D02*
X18516000Y-5162000D01*
X18476000Y-5122000D01*
X18436000Y-5162000D01*
X18476000Y-5202000D01*
X18730000Y-4440000D02*
X18770000Y-4400000D01*
X18730000Y-4360000D01*
X18690000Y-4400000D01*
X18730000Y-4440000D01*
X18730000Y-5202000D02*
X18770000Y-5162000D01*
X18730000Y-5122000D01*
X18690000Y-5162000D01*
X18730000Y-5202000D01*
X18984000Y-4440000D02*
X19024000Y-4400000D01*
X18984000Y-4360000D01*
X18944000Y-4400000D01*
X18984000Y-4440000D01*
X18984000Y-5202000D02*
X19024000Y-5162000D01*
X18984000Y-5122000D01*
X18944000Y-5162000D01*
X18984000Y-5202000D01*
X19238000Y-4440000D02*
X19278000Y-4400000D01*
X19238000Y-4360000D01*
X19198000Y-4400000D01*
X19238000Y-4440000D01*
X19238000Y-5202000D02*
X19278000Y-5162000D01*
X19238000Y-5122000D01*
X19198000Y-5162000D01*
X19238000Y-5202000D01*
X19492000Y-4440000D02*
X19532000Y-4400000D01*
X19492000Y-4360000D01*
X19452000Y-4400000D01*
X19492000Y-4440000D01*
X19492000Y-5202000D02*
X19532000Y-5162000D01*
X19492000Y-5122000D01*
X19452000Y-5162000D01*
X19492000Y-5202000D01*
X19746000Y-4440000D02*
X19786000Y-4400000D01*
X19746000Y-4360000D01*
X19706000Y-4400000D01*
X19746000Y-4440000D01*
X19746000Y-5202000D02*
X19786000Y-5162000D01*
X19746000Y-5122000D01*
X19706000Y-5162000D01*
X19746000Y-5202000D01*
X20000000Y-4440000D02*
X20040000Y-4400000D01*
X20000000Y-4360000D01*
X19960000Y-4400000D01*
X20000000Y-4440000D01*
X20000000Y-5202000D02*
X20040000Y-5162000D01*
X20000000Y-5122000D01*
X19960000Y-5162000D01*
X20000000Y-5202000D01*
X6300000Y-6740000D02*
X6340000Y-6700000D01*
X6300000Y-6660000D01*
X6260000Y-6700000D01*
X6300000Y-6740000D01*
X6300000Y-7502000D02*
X6340000Y-7462000D01*
X6300000Y-7422000D01*
X6260000Y-7462000D01*
X6300000Y-7502000D01*
X6554000Y-6740000D02*
X6594000Y-6700000D01*
X6554000Y-6660000D01*
X6514000Y-6700000D01*
X6554000Y-6740000D01*
X6554000Y-7502000D02*
X6594000Y-7462000D01*
X6554000Y-7422000D01*
X6514000Y-7462000D01*
X6554000Y-7502000D01*
X6808000Y-6740000D02*
X6848000Y-6700000D01*
X6808000Y-6660000D01*
X6768000Y-6700000D01*
X6808000Y-6740000D01*
X6808000Y-7502000D02*
X6848000Y-7462000D01*
X6808000Y-7422000D01*
X6768000Y-7462000D01*
X6808000Y-7502000D01*
X7062000Y-6740000D02*
X7102000Y-6700000D01*
X7062000Y-6660000D01*
X7022000Y-6700000D01*
X7062000Y-6740000D01*
X7062000Y-7502000D02*
X7102000Y-7462000D01*
X7062000Y-7422000D01*
X7022000Y-7462000D01*
X7062000Y-7502000D01*
X7316000Y-6740000D02*
X7356000Y-6700000D01*
X7316000Y-6660000D01*
X7276000Y-6700000D01*
X7316000Y-6740000D01*
X16100000Y-5202000D02*
X16140000Y-5162000D01*
X16100000Y-5122000D01*
X16060000Y-5162000D01*
X16100000Y-5202000D01*
X7316000Y-7502000D02*
X7356000Y-7462000D01*
X7316000Y-7422000D01*
X7276000Y-7462000D01*
X7316000Y-7502000D01*
X7570000Y-6740000D02*
X7610000Y-6700000D01*
X7570000Y-6660000D01*
X7530000Y-6700000D01*
X7570000Y-6740000D01*
X7570000Y-7502000D02*
X7610000Y-7462000D01*
X7570000Y-7422000D01*
X7530000Y-7462000D01*
X7570000Y-7502000D01*
X7824000Y-6740000D02*
X7864000Y-6700000D01*
X7824000Y-6660000D01*
X7784000Y-6700000D01*
X7824000Y-6740000D01*
X7824000Y-7502000D02*
X7864000Y-7462000D01*
X7824000Y-7422000D01*
X7784000Y-7462000D01*
X7824000Y-7502000D01*
X8078000Y-6740000D02*
X8118000Y-6700000D01*
X8078000Y-6660000D01*
X8038000Y-6700000D01*
X8078000Y-6740000D01*
X8078000Y-7502000D02*
X8118000Y-7462000D01*
X8078000Y-7422000D01*
X8038000Y-7462000D01*
X8078000Y-7502000D01*
X2722000Y-4440000D02*
X2762000Y-4400000D01*
X2722000Y-4360000D01*
X2682000Y-4400000D01*
X2722000Y-4440000D01*
X2722000Y-5202000D02*
X2762000Y-5162000D01*
X2722000Y-5122000D01*
X2682000Y-5162000D01*
X2722000Y-5202000D01*
X2976000Y-4440000D02*
X3016000Y-4400000D01*
X2976000Y-4360000D01*
X2936000Y-4400000D01*
X2976000Y-4440000D01*
X2976000Y-5202000D02*
X3016000Y-5162000D01*
X2976000Y-5122000D01*
X2936000Y-5162000D01*
X2976000Y-5202000D01*
X3230000Y-4440000D02*
X3270000Y-4400000D01*
X3230000Y-4360000D01*
X3190000Y-4400000D01*
X3230000Y-4440000D01*
X3230000Y-5202000D02*
X3270000Y-5162000D01*
X3230000Y-5122000D01*
X3190000Y-5162000D01*
X3230000Y-5202000D01*
X3484000Y-4440000D02*
X3524000Y-4400000D01*
X3484000Y-4360000D01*
X3444000Y-4400000D01*
X3484000Y-4440000D01*
X3484000Y-5202000D02*
X3524000Y-5162000D01*
X3484000Y-5122000D01*
X3444000Y-5162000D01*
X3484000Y-5202000D01*
X3738000Y-4440000D02*
X3778000Y-4400000D01*
X3738000Y-4360000D01*
X3698000Y-4400000D01*
X3738000Y-4440000D01*
X3738000Y-5202000D02*
X3778000Y-5162000D01*
X3738000Y-5122000D01*
X3698000Y-5162000D01*
X3738000Y-5202000D01*
X3992000Y-4440000D02*
X4032000Y-4400000D01*
X3992000Y-4360000D01*
X3952000Y-4400000D01*
X3992000Y-4440000D01*
X3992000Y-5202000D02*
X4032000Y-5162000D01*
X3992000Y-5122000D01*
X3952000Y-5162000D01*
X3992000Y-5202000D01*
X4246000Y-4440000D02*
X4286000Y-4400000D01*
X4246000Y-4360000D01*
X4206000Y-4400000D01*
X4246000Y-4440000D01*
X4246000Y-5202000D02*
X4286000Y-5162000D01*
X4246000Y-5122000D01*
X4206000Y-5162000D01*
X4246000Y-5202000D01*
X4500000Y-4440000D02*
X4540000Y-4400000D01*
X4500000Y-4360000D01*
X4460000Y-4400000D01*
X4500000Y-4440000D01*
X4500000Y-5202000D02*
X4540000Y-5162000D01*
X4500000Y-5122000D01*
X4460000Y-5162000D01*
X4500000Y-5202000D01*
X6522000Y-4440000D02*
X6562000Y-4400000D01*
X6522000Y-4360000D01*
X6482000Y-4400000D01*
X6522000Y-4440000D01*
X6522000Y-5202000D02*
X6562000Y-5162000D01*
X6522000Y-5122000D01*
X6482000Y-5162000D01*
X6522000Y-5202000D01*
X6776000Y-4440000D02*
X6816000Y-4400000D01*
X6776000Y-4360000D01*
X6736000Y-4400000D01*
X6776000Y-4440000D01*
X6776000Y-5202000D02*
X6816000Y-5162000D01*
X6776000Y-5122000D01*
X6736000Y-5162000D01*
X6776000Y-5202000D01*
X3700000Y-2840000D02*
X3740000Y-2800000D01*
X3700000Y-2760000D01*
X3660000Y-2800000D01*
X3700000Y-2840000D01*
X18200000Y-6678000D02*
X18240000Y-6638000D01*
X18200000Y-6598000D01*
X18160000Y-6638000D01*
X18200000Y-6678000D01*
X18200000Y-7440000D02*
X18240000Y-7400000D01*
X18200000Y-7360000D01*
X18160000Y-7400000D01*
X18200000Y-7440000D01*
X18454000Y-6678000D02*
X18494000Y-6638000D01*
X18454000Y-6598000D01*
X18414000Y-6638000D01*
X18454000Y-6678000D01*
X18454000Y-7440000D02*
X18494000Y-7400000D01*
X18454000Y-7360000D01*
X18414000Y-7400000D01*
X18454000Y-7440000D01*
X18708000Y-6678000D02*
X18748000Y-6638000D01*
X18708000Y-6598000D01*
X18668000Y-6638000D01*
X18708000Y-6678000D01*
X18708000Y-7440000D02*
X18748000Y-7400000D01*
X18708000Y-7360000D01*
X18668000Y-7400000D01*
X18708000Y-7440000D01*
X18962000Y-6678000D02*
X19002000Y-6638000D01*
X18962000Y-6598000D01*
X18922000Y-6638000D01*
X18962000Y-6678000D01*
X18962000Y-7440000D02*
X19002000Y-7400000D01*
X18962000Y-7360000D01*
X18922000Y-7400000D01*
X18962000Y-7440000D01*
X19216000Y-6678000D02*
X19256000Y-6638000D01*
X19216000Y-6598000D01*
X19176000Y-6638000D01*
X19216000Y-6678000D01*
X19216000Y-7440000D02*
X19256000Y-7400000D01*
X19216000Y-7360000D01*
X19176000Y-7400000D01*
X19216000Y-7440000D01*
X19470000Y-6678000D02*
X19510000Y-6638000D01*
X19470000Y-6598000D01*
X19430000Y-6638000D01*
X19470000Y-6678000D01*
X19470000Y-7440000D02*
X19510000Y-7400000D01*
X19470000Y-7360000D01*
X19430000Y-7400000D01*
X19470000Y-7440000D01*
X19724000Y-6678000D02*
X19764000Y-6638000D01*
X19724000Y-6598000D01*
X19684000Y-6638000D01*
X19724000Y-6678000D01*
X19724000Y-7440000D02*
X19764000Y-7400000D01*
X19724000Y-7360000D01*
X19684000Y-7400000D01*
X19724000Y-7440000D01*
X19978000Y-6678000D02*
X20018000Y-6638000D01*
X19978000Y-6598000D01*
X19938000Y-6638000D01*
X19978000Y-6678000D01*
X19978000Y-7440000D02*
X20018000Y-7400000D01*
X19978000Y-7360000D01*
X19938000Y-7400000D01*
X19978000Y-7440000D01*
X14322000Y-4440000D02*
X14362000Y-4400000D01*
X14322000Y-4360000D01*
X14282000Y-4400000D01*
X14322000Y-4440000D01*
X14322000Y-5202000D02*
X14362000Y-5162000D01*
X14322000Y-5122000D01*
X14282000Y-5162000D01*
X14322000Y-5202000D01*
X14576000Y-4440000D02*
X14616000Y-4400000D01*
X14576000Y-4360000D01*
X14536000Y-4400000D01*
X14576000Y-4440000D01*
X14576000Y-5202000D02*
X14616000Y-5162000D01*
X14576000Y-5122000D01*
X14536000Y-5162000D01*
X14576000Y-5202000D01*
X14830000Y-4440000D02*
X14870000Y-4400000D01*
X14830000Y-4360000D01*
X14790000Y-4400000D01*
X14830000Y-4440000D01*
X14830000Y-5202000D02*
X14870000Y-5162000D01*
X14830000Y-5122000D01*
X14790000Y-5162000D01*
X14830000Y-5202000D01*
X15084000Y-4440000D02*
X15124000Y-4400000D01*
X15084000Y-4360000D01*
X15044000Y-4400000D01*
X15084000Y-4440000D01*
X15084000Y-5202000D02*
X15124000Y-5162000D01*
X15084000Y-5122000D01*
X15044000Y-5162000D01*
X15084000Y-5202000D01*
X15338000Y-4440000D02*
X15378000Y-4400000D01*
X15338000Y-4360000D01*
X15298000Y-4400000D01*
X15338000Y-4440000D01*
X15338000Y-5202000D02*
X15378000Y-5162000D01*
X15338000Y-5122000D01*
X15298000Y-5162000D01*
X15338000Y-5202000D01*
X15592000Y-4440000D02*
X15632000Y-4400000D01*
X15592000Y-4360000D01*
X15552000Y-4400000D01*
X15592000Y-4440000D01*
X15592000Y-5202000D02*
X15632000Y-5162000D01*
X15592000Y-5122000D01*
X15552000Y-5162000D01*
X15592000Y-5202000D01*
X15846000Y-4440000D02*
X15886000Y-4400000D01*
X15846000Y-4360000D01*
X15806000Y-4400000D01*
X15846000Y-4440000D01*
X15846000Y-5202000D02*
X15886000Y-5162000D01*
X15846000Y-5122000D01*
X15806000Y-5162000D01*
X15846000Y-5202000D01*
X16100000Y-4440000D02*
X16140000Y-4400000D01*
X16100000Y-4360000D01*
X16060000Y-4400000D01*
X16100000Y-4440000D01*
X14300000Y-7440000D02*
X14340000Y-7400000D01*
X14300000Y-7360000D01*
X14260000Y-7400000D01*
X14300000Y-7440000D01*
X14554000Y-6678000D02*
X14594000Y-6638000D01*
X14554000Y-6598000D01*
X14514000Y-6638000D01*
X14554000Y-6678000D01*
X14554000Y-7440000D02*
X14594000Y-7400000D01*
X14554000Y-7360000D01*
X14514000Y-7400000D01*
X14554000Y-7440000D01*
X14808000Y-6678000D02*
X14848000Y-6638000D01*
X14808000Y-6598000D01*
X14768000Y-6638000D01*
X14808000Y-6678000D01*
X14808000Y-7440000D02*
X14848000Y-7400000D01*
X14808000Y-7360000D01*
X14768000Y-7400000D01*
X14808000Y-7440000D01*
X15062000Y-6678000D02*
X15102000Y-6638000D01*
X15062000Y-6598000D01*
X15022000Y-6638000D01*
X15062000Y-6678000D01*
X15062000Y-7440000D02*
X15102000Y-7400000D01*
X15062000Y-7360000D01*
X15022000Y-7400000D01*
X15062000Y-7440000D01*
X15316000Y-6678000D02*
X15356000Y-6638000D01*
X15316000Y-6598000D01*
X15276000Y-6638000D01*
X15316000Y-6678000D01*
X15316000Y-7440000D02*
X15356000Y-7400000D01*
X15316000Y-7360000D01*
X15276000Y-7400000D01*
X15316000Y-7440000D01*
X15570000Y-6678000D02*
X15610000Y-6638000D01*
X15570000Y-6598000D01*
X15530000Y-6638000D01*
X15570000Y-6678000D01*
X15570000Y-7440000D02*
X15610000Y-7400000D01*
X15570000Y-7360000D01*
X15530000Y-7400000D01*
X15570000Y-7440000D01*
X15824000Y-6678000D02*
X15864000Y-6638000D01*
X15824000Y-6598000D01*
X15784000Y-6638000D01*
X15824000Y-6678000D01*
X15824000Y-7440000D02*
X15864000Y-7400000D01*
X15824000Y-7360000D01*
X15784000Y-7400000D01*
X15824000Y-7440000D01*
X16078000Y-6678000D02*
X16118000Y-6638000D01*
X16078000Y-6598000D01*
X16038000Y-6638000D01*
X16078000Y-6678000D01*
X16078000Y-7440000D02*
X16118000Y-7400000D01*
X16078000Y-7360000D01*
X16038000Y-7400000D01*
X16078000Y-7440000D01*
X14700000Y-9140000D02*
X14740000Y-9100000D01*
X14700000Y-9060000D01*
X14660000Y-9100000D01*
X14700000Y-9140000D01*
X14900000Y-9140000D02*
X14940000Y-9100000D01*
X14900000Y-9060000D01*
X14860000Y-9100000D01*
X14900000Y-9140000D01*
X15100000Y-9140000D02*
X15140000Y-9100000D01*
X15100000Y-9060000D01*
X15060000Y-9100000D01*
X15100000Y-9140000D01*
X15300000Y-9140000D02*
X15340000Y-9100000D01*
X15300000Y-9060000D01*
X15260000Y-9100000D01*
X15300000Y-9140000D01*
X15500000Y-9140000D02*
X15540000Y-9100000D01*
X15500000Y-9060000D01*
X15460000Y-9100000D01*
X15500000Y-9140000D01*
X15700000Y-9140000D02*
X15740000Y-9100000D01*
X15700000Y-9060000D01*
X15660000Y-9100000D01*
X15700000Y-9140000D01*
X15900000Y-9140000D02*
X15940000Y-9100000D01*
X15900000Y-9060000D01*
X15860000Y-9100000D01*
X15900000Y-9140000D01*
X16100000Y-9140000D02*
X16140000Y-9100000D01*
X16100000Y-9060000D01*
X16060000Y-9100000D01*
X16100000Y-9140000D01*
X2700000Y-2840000D02*
X2740000Y-2800000D01*
X2700000Y-2760000D01*
X2660000Y-2800000D01*
X2700000Y-2840000D01*
X2900000Y-2840000D02*
X2940000Y-2800000D01*
X2900000Y-2760000D01*
X2860000Y-2800000D01*
X2900000Y-2840000D01*
X3100000Y-2840000D02*
X3140000Y-2800000D01*
X3100000Y-2760000D01*
X3060000Y-2800000D01*
X3100000Y-2840000D01*
X3300000Y-2840000D02*
X3340000Y-2800000D01*
X3300000Y-2760000D01*
X3260000Y-2800000D01*
X3300000Y-2840000D01*
X3500000Y-2840000D02*
X3540000Y-2800000D01*
X3500000Y-2760000D01*
X3460000Y-2800000D01*
X3500000Y-2840000D01*
X3900000Y-2840000D02*
X3940000Y-2800000D01*
X3900000Y-2760000D01*
X3860000Y-2800000D01*
X3900000Y-2840000D01*
X4100000Y-2840000D02*
X4140000Y-2800000D01*
X4100000Y-2760000D01*
X4060000Y-2800000D01*
X4100000Y-2840000D01*
X10500000Y-9140000D02*
X10540000Y-9100000D01*
X10500000Y-9060000D01*
X10460000Y-9100000D01*
X10500000Y-9140000D01*
X10700000Y-9140000D02*
X10740000Y-9100000D01*
X10700000Y-9060000D01*
X10660000Y-9100000D01*
X10700000Y-9140000D01*
X7030000Y-4440000D02*
X7070000Y-4400000D01*
X7030000Y-4360000D01*
X6990000Y-4400000D01*
X7030000Y-4440000D01*
X7030000Y-5202000D02*
X7070000Y-5162000D01*
X7030000Y-5122000D01*
X6990000Y-5162000D01*
X7030000Y-5202000D01*
X7284000Y-4440000D02*
X7324000Y-4400000D01*
X7284000Y-4360000D01*
X7244000Y-4400000D01*
X7284000Y-4440000D01*
X7284000Y-5202000D02*
X7324000Y-5162000D01*
X7284000Y-5122000D01*
X7244000Y-5162000D01*
X7284000Y-5202000D01*
X7538000Y-4440000D02*
X7578000Y-4400000D01*
X7538000Y-4360000D01*
X7498000Y-4400000D01*
X7538000Y-4440000D01*
X7538000Y-5202000D02*
X7578000Y-5162000D01*
X7538000Y-5122000D01*
X7498000Y-5162000D01*
X7538000Y-5202000D01*
X7792000Y-4440000D02*
X7832000Y-4400000D01*
X7792000Y-4360000D01*
X7752000Y-4400000D01*
X7792000Y-4440000D01*
X7792000Y-5202000D02*
X7832000Y-5162000D01*
X7792000Y-5122000D01*
X7752000Y-5162000D01*
X7792000Y-5202000D01*
X8046000Y-4440000D02*
X8086000Y-4400000D01*
X8046000Y-4360000D01*
X8006000Y-4400000D01*
X8046000Y-4440000D01*
X8046000Y-5202000D02*
X8086000Y-5162000D01*
X8046000Y-5122000D01*
X8006000Y-5162000D01*
X8046000Y-5202000D01*
X8300000Y-4440000D02*
X8340000Y-4400000D01*
X8300000Y-4360000D01*
X8260000Y-4400000D01*
X8300000Y-4440000D01*
X8300000Y-5202000D02*
X8340000Y-5162000D01*
X8300000Y-5122000D01*
X8260000Y-5162000D01*
X8300000Y-5202000D01*
X18200000Y-2840000D02*
X18240000Y-2800000D01*
X18200000Y-2760000D01*
X18160000Y-2800000D01*
X18200000Y-2840000D01*
X11900000Y-9140000D02*
X11940000Y-9100000D01*
X11900000Y-9060000D01*
X11860000Y-9100000D01*
X11900000Y-9140000D01*
X10900000Y-9140000D02*
X10940000Y-9100000D01*
X10900000Y-9060000D01*
X10860000Y-9100000D01*
X10900000Y-9140000D01*
X11100000Y-9140000D02*
X11140000Y-9100000D01*
X11100000Y-9060000D01*
X11060000Y-9100000D01*
X11100000Y-9140000D01*
X18400000Y-2840000D02*
X18440000Y-2800000D01*
X18400000Y-2760000D01*
X18360000Y-2800000D01*
X18400000Y-2840000D01*
X11300000Y-9140000D02*
X11340000Y-9100000D01*
X11300000Y-9060000D01*
X11260000Y-9100000D01*
X11300000Y-9140000D01*
X11500000Y-9140000D02*
X11540000Y-9100000D01*
X11500000Y-9060000D01*
X11460000Y-9100000D01*
X11500000Y-9140000D01*
X11700000Y-9140000D02*
X11740000Y-9100000D01*
X11700000Y-9060000D01*
X11660000Y-9100000D01*
X11700000Y-9140000D01*
X18600000Y-9140000D02*
X18640000Y-9100000D01*
X18600000Y-9060000D01*
X18560000Y-9100000D01*
X18600000Y-9140000D01*
X18800000Y-9140000D02*
X18840000Y-9100000D01*
X18800000Y-9060000D01*
X18760000Y-9100000D01*
X18800000Y-9140000D01*
X19000000Y-9140000D02*
X19040000Y-9100000D01*
X19000000Y-9060000D01*
X18960000Y-9100000D01*
X19000000Y-9140000D01*
X19200000Y-9140000D02*
X19240000Y-9100000D01*
X19200000Y-9060000D01*
X19160000Y-9100000D01*
X19200000Y-9140000D01*
X19400000Y-9140000D02*
X19440000Y-9100000D01*
X19400000Y-9060000D01*
X19360000Y-9100000D01*
X19400000Y-9140000D01*
X19600000Y-9140000D02*
X19640000Y-9100000D01*
X19600000Y-9060000D01*
X19560000Y-9100000D01*
X19600000Y-9140000D01*
X19800000Y-9140000D02*
X19840000Y-9100000D01*
X19800000Y-9060000D01*
X19760000Y-9100000D01*
X19800000Y-9140000D01*
X20000000Y-9140000D02*
X20040000Y-9100000D01*
X20000000Y-9060000D01*
X19960000Y-9100000D01*
X20000000Y-9140000D01*
X18600000Y-2840000D02*
X18640000Y-2800000D01*
X18600000Y-2760000D01*
X18560000Y-2800000D01*
X18600000Y-2840000D01*
X18800000Y-2840000D02*
X18840000Y-2800000D01*
X18800000Y-2760000D01*
X18760000Y-2800000D01*
X18800000Y-2840000D01*
X19000000Y-2840000D02*
X19040000Y-2800000D01*
X19000000Y-2760000D01*
X18960000Y-2800000D01*
X19000000Y-2840000D01*
X19200000Y-2840000D02*
X19240000Y-2800000D01*
X19200000Y-2760000D01*
X19160000Y-2800000D01*
X19200000Y-2840000D01*
X19400000Y-2840000D02*
X19440000Y-2800000D01*
X19400000Y-2760000D01*
X19360000Y-2800000D01*
X19400000Y-2840000D01*
X19600000Y-2840000D02*
X19640000Y-2800000D01*
X19600000Y-2760000D01*
X19560000Y-2800000D01*
X19600000Y-2840000D01*
X9220000Y-9620000D02*
X9380000Y-9780000D01*
X9380000Y-9620000D02*
X9220000Y-9780000D01*
X9380000Y-9700000D02*
G75*
G03X9380000Y-9700000I-80000J0D01*
G01*
X9220000Y-10220000D02*
X9380000Y-10380000D01*
X9380000Y-10220000D02*
X9220000Y-10380000D01*
X9380000Y-10300000D02*
G75*
G03X9380000Y-10300000I-80000J0D01*
G01*
X9690000Y-9920000D02*
X9850000Y-10080000D01*
X9850000Y-9920000D02*
X9690000Y-10080000D01*
X9850000Y-10000000D02*
G75*
G03X9850000Y-10000000I-80000J0D01*
G01*
D12*
X2283928Y-11468214D02*
X2283928Y-11168214D01*
X2355357Y-11168214D01*
X2398214Y-11182500D01*
X2426786Y-11211071D01*
X2441071Y-11239643D01*
X2455357Y-11296786D01*
X2455357Y-11339643D01*
X2441071Y-11396786D01*
X2426786Y-11425357D01*
X2398214Y-11453929D01*
X2355357Y-11468214D01*
X2283928Y-11468214D01*
X2583928Y-11468214D02*
X2583928Y-11268214D01*
X2583928Y-11325357D02*
X2598214Y-11296786D01*
X2612500Y-11282500D01*
X2641071Y-11268214D01*
X2669643Y-11268214D01*
X2769643Y-11468214D02*
X2769643Y-11268214D01*
X2769643Y-11168214D02*
X2755357Y-11182500D01*
X2769643Y-11196786D01*
X2783928Y-11182500D01*
X2769643Y-11168214D01*
X2769643Y-11196786D01*
X2955357Y-11468214D02*
X2926786Y-11453929D01*
X2912500Y-11425357D01*
X2912500Y-11168214D01*
X3112500Y-11468214D02*
X3083928Y-11453929D01*
X3069643Y-11425357D01*
X3069643Y-11168214D01*
X3455357Y-11468214D02*
X3455357Y-11168214D01*
X3555357Y-11382500D01*
X3655357Y-11168214D01*
X3655357Y-11468214D01*
X3926786Y-11468214D02*
X3926786Y-11311071D01*
X3912500Y-11282500D01*
X3883928Y-11268214D01*
X3826786Y-11268214D01*
X3798214Y-11282500D01*
X3926786Y-11453929D02*
X3898214Y-11468214D01*
X3826786Y-11468214D01*
X3798214Y-11453929D01*
X3783928Y-11425357D01*
X3783928Y-11396786D01*
X3798214Y-11368214D01*
X3826786Y-11353929D01*
X3898214Y-11353929D01*
X3926786Y-11339643D01*
X4069643Y-11268214D02*
X4069643Y-11568214D01*
X4069643Y-11282500D02*
X4098214Y-11268214D01*
X4155357Y-11268214D01*
X4183928Y-11282500D01*
X4198214Y-11296786D01*
X4212500Y-11325357D01*
X4212500Y-11411071D01*
X4198214Y-11439643D01*
X4183928Y-11453929D01*
X4155357Y-11468214D01*
X4098214Y-11468214D01*
X4069643Y-11453929D01*
X4341071Y-11439643D02*
X4355357Y-11453929D01*
X4341071Y-11468214D01*
X4326786Y-11453929D01*
X4341071Y-11439643D01*
X4341071Y-11468214D01*
X4341071Y-11282500D02*
X4355357Y-11296786D01*
X4341071Y-11311071D01*
X4326786Y-11296786D01*
X4341071Y-11282500D01*
X4341071Y-11311071D01*
X1957500Y-11942500D02*
X1997500Y-11982500D01*
X1997500Y-11942500D02*
X1957500Y-11982500D01*
X2341071Y-11798214D02*
X2369643Y-11798214D01*
X2398214Y-11812500D01*
X2412500Y-11826786D01*
X2426786Y-11855357D01*
X2441071Y-11912500D01*
X2441071Y-11983929D01*
X2426786Y-12041071D01*
X2412500Y-12069643D01*
X2398214Y-12083929D01*
X2369643Y-12098214D01*
X2341071Y-12098214D01*
X2312500Y-12083929D01*
X2298214Y-12069643D01*
X2283928Y-12041071D01*
X2269643Y-11983929D01*
X2269643Y-11912500D01*
X2283928Y-11855357D01*
X2298214Y-11826786D01*
X2312500Y-11812500D01*
X2341071Y-11798214D01*
X2569643Y-12069643D02*
X2583928Y-12083929D01*
X2569643Y-12098214D01*
X2555357Y-12083929D01*
X2569643Y-12069643D01*
X2569643Y-12098214D01*
X2841071Y-11898214D02*
X2841071Y-12098214D01*
X2769643Y-11783929D02*
X2698214Y-11998214D01*
X2883928Y-11998214D01*
X3055357Y-11798214D02*
X3083928Y-11798214D01*
X3112500Y-11812500D01*
X3126786Y-11826786D01*
X3141071Y-11855357D01*
X3155357Y-11912500D01*
X3155357Y-11983929D01*
X3141071Y-12041071D01*
X3126786Y-12069643D01*
X3112500Y-12083929D01*
X3083928Y-12098214D01*
X3055357Y-12098214D01*
X3026786Y-12083929D01*
X3012500Y-12069643D01*
X2998214Y-12041071D01*
X2983928Y-11983929D01*
X2983928Y-11912500D01*
X2998214Y-11855357D01*
X3012500Y-11826786D01*
X3026786Y-11812500D01*
X3055357Y-11798214D01*
X3283928Y-12098214D02*
X3283928Y-11898214D01*
X3283928Y-11926786D02*
X3298214Y-11912500D01*
X3326786Y-11898214D01*
X3369643Y-11898214D01*
X3398214Y-11912500D01*
X3412500Y-11941071D01*
X3412500Y-12098214D01*
X3412500Y-11941071D02*
X3426786Y-11912500D01*
X3455357Y-11898214D01*
X3498214Y-11898214D01*
X3526786Y-11912500D01*
X3541071Y-11941071D01*
X3541071Y-12098214D01*
X3683928Y-12098214D02*
X3683928Y-11898214D01*
X3683928Y-11926786D02*
X3698214Y-11912500D01*
X3726786Y-11898214D01*
X3769643Y-11898214D01*
X3798214Y-11912500D01*
X3812500Y-11941071D01*
X3812500Y-12098214D01*
X3812500Y-11941071D02*
X3826786Y-11912500D01*
X3855357Y-11898214D01*
X3898214Y-11898214D01*
X3926786Y-11912500D01*
X3941071Y-11941071D01*
X3941071Y-12098214D01*
X4526786Y-11783929D02*
X4269643Y-12169643D01*
X4912500Y-11798214D02*
X4941071Y-11798214D01*
X4969643Y-11812500D01*
X4983928Y-11826786D01*
X4998214Y-11855357D01*
X5012500Y-11912500D01*
X5012500Y-11983929D01*
X4998214Y-12041071D01*
X4983928Y-12069643D01*
X4969643Y-12083929D01*
X4941071Y-12098214D01*
X4912500Y-12098214D01*
X4883928Y-12083929D01*
X4869643Y-12069643D01*
X4855357Y-12041071D01*
X4841071Y-11983929D01*
X4841071Y-11912500D01*
X4855357Y-11855357D01*
X4869643Y-11826786D01*
X4883928Y-11812500D01*
X4912500Y-11798214D01*
X5141071Y-12069643D02*
X5155357Y-12083929D01*
X5141071Y-12098214D01*
X5126786Y-12083929D01*
X5141071Y-12069643D01*
X5141071Y-12098214D01*
X5341071Y-11798214D02*
X5369643Y-11798214D01*
X5398214Y-11812500D01*
X5412500Y-11826786D01*
X5426786Y-11855357D01*
X5441071Y-11912500D01*
X5441071Y-11983929D01*
X5426786Y-12041071D01*
X5412500Y-12069643D01*
X5398214Y-12083929D01*
X5369643Y-12098214D01*
X5341071Y-12098214D01*
X5312500Y-12083929D01*
X5298214Y-12069643D01*
X5283928Y-12041071D01*
X5269643Y-11983929D01*
X5269643Y-11912500D01*
X5283928Y-11855357D01*
X5298214Y-11826786D01*
X5312500Y-11812500D01*
X5341071Y-11798214D01*
X5726786Y-12098214D02*
X5555357Y-12098214D01*
X5641071Y-12098214D02*
X5641071Y-11798214D01*
X5612500Y-11841071D01*
X5583928Y-11869643D01*
X5555357Y-11883929D01*
X5983928Y-11798214D02*
X5926786Y-11798214D01*
X5898214Y-11812500D01*
X5883928Y-11826786D01*
X5855357Y-11869643D01*
X5841071Y-11926786D01*
X5841071Y-12041071D01*
X5855357Y-12069643D01*
X5869643Y-12083929D01*
X5898214Y-12098214D01*
X5955357Y-12098214D01*
X5983928Y-12083929D01*
X5998214Y-12069643D01*
X6012500Y-12041071D01*
X6012500Y-11969643D01*
X5998214Y-11941071D01*
X5983928Y-11926786D01*
X5955357Y-11912500D01*
X5898214Y-11912500D01*
X5869643Y-11926786D01*
X5855357Y-11941071D01*
X5841071Y-11969643D01*
X6126786Y-11798214D02*
X6126786Y-11855357D01*
X6241071Y-11798214D02*
X6241071Y-11855357D01*
X6683928Y-12212500D02*
X6669643Y-12198214D01*
X6641071Y-12155357D01*
X6626786Y-12126786D01*
X6612500Y-12083929D01*
X6598214Y-12012500D01*
X6598214Y-11955357D01*
X6612500Y-11883929D01*
X6626786Y-11841071D01*
X6641071Y-11812500D01*
X6669643Y-11769643D01*
X6683928Y-11755357D01*
X6941071Y-11798214D02*
X6798214Y-11798214D01*
X6783928Y-11941071D01*
X6798214Y-11926786D01*
X6826786Y-11912500D01*
X6898214Y-11912500D01*
X6926786Y-11926786D01*
X6941071Y-11941071D01*
X6955357Y-11969643D01*
X6955357Y-12041071D01*
X6941071Y-12069643D01*
X6926786Y-12083929D01*
X6898214Y-12098214D01*
X6826786Y-12098214D01*
X6798214Y-12083929D01*
X6783928Y-12069643D01*
X7212500Y-11898214D02*
X7212500Y-12098214D01*
X7141071Y-11783929D02*
X7069643Y-11998214D01*
X7255357Y-11998214D01*
X7598214Y-12098214D02*
X7598214Y-11798214D01*
X7726786Y-12098214D02*
X7726786Y-11941071D01*
X7712500Y-11912500D01*
X7683928Y-11898214D01*
X7641071Y-11898214D01*
X7612500Y-11912500D01*
X7598214Y-11926786D01*
X7912500Y-12098214D02*
X7883928Y-12083929D01*
X7869643Y-12069643D01*
X7855357Y-12041071D01*
X7855357Y-11955357D01*
X7869643Y-11926786D01*
X7883928Y-11912500D01*
X7912500Y-11898214D01*
X7955357Y-11898214D01*
X7983928Y-11912500D01*
X7998214Y-11926786D01*
X8012500Y-11955357D01*
X8012500Y-12041071D01*
X7998214Y-12069643D01*
X7983928Y-12083929D01*
X7955357Y-12098214D01*
X7912500Y-12098214D01*
X8183928Y-12098214D02*
X8155357Y-12083929D01*
X8141071Y-12055357D01*
X8141071Y-11798214D01*
X8412500Y-12083929D02*
X8383928Y-12098214D01*
X8326786Y-12098214D01*
X8298214Y-12083929D01*
X8283928Y-12055357D01*
X8283928Y-11941071D01*
X8298214Y-11912500D01*
X8326786Y-11898214D01*
X8383928Y-11898214D01*
X8412500Y-11912500D01*
X8426786Y-11941071D01*
X8426786Y-11969643D01*
X8283928Y-11998214D01*
X8541071Y-12083929D02*
X8569643Y-12098214D01*
X8626786Y-12098214D01*
X8655357Y-12083929D01*
X8669643Y-12055357D01*
X8669643Y-12041071D01*
X8655357Y-12012500D01*
X8626786Y-11998214D01*
X8583928Y-11998214D01*
X8555357Y-11983929D01*
X8541071Y-11955357D01*
X8541071Y-11941071D01*
X8555357Y-11912500D01*
X8583928Y-11898214D01*
X8626786Y-11898214D01*
X8655357Y-11912500D01*
X8769643Y-12212500D02*
X8783928Y-12198214D01*
X8812500Y-12155357D01*
X8826786Y-12126786D01*
X8841071Y-12083929D01*
X8855357Y-12012500D01*
X8855357Y-11955357D01*
X8841071Y-11883929D01*
X8826786Y-11841071D01*
X8812500Y-11812500D01*
X8783928Y-11769643D01*
X8769643Y-11755357D01*
X1997500Y-12358500D02*
G75*
G03X1997500Y-12358500I-30000J0D01*
G01*
X2341071Y-12194214D02*
X2369643Y-12194214D01*
X2398214Y-12208500D01*
X2412500Y-12222786D01*
X2426786Y-12251357D01*
X2441071Y-12308500D01*
X2441071Y-12379929D01*
X2426786Y-12437071D01*
X2412500Y-12465643D01*
X2398214Y-12479929D01*
X2369643Y-12494214D01*
X2341071Y-12494214D01*
X2312500Y-12479929D01*
X2298214Y-12465643D01*
X2283928Y-12437071D01*
X2269643Y-12379929D01*
X2269643Y-12308500D01*
X2283928Y-12251357D01*
X2298214Y-12222786D01*
X2312500Y-12208500D01*
X2341071Y-12194214D01*
X2569643Y-12465643D02*
X2583928Y-12479929D01*
X2569643Y-12494214D01*
X2555357Y-12479929D01*
X2569643Y-12465643D01*
X2569643Y-12494214D01*
X2841071Y-12194214D02*
X2783928Y-12194214D01*
X2755357Y-12208500D01*
X2741071Y-12222786D01*
X2712500Y-12265643D01*
X2698214Y-12322786D01*
X2698214Y-12437071D01*
X2712500Y-12465643D01*
X2726786Y-12479929D01*
X2755357Y-12494214D01*
X2812500Y-12494214D01*
X2841071Y-12479929D01*
X2855357Y-12465643D01*
X2869643Y-12437071D01*
X2869643Y-12365643D01*
X2855357Y-12337071D01*
X2841071Y-12322786D01*
X2812500Y-12308500D01*
X2755357Y-12308500D01*
X2726786Y-12322786D01*
X2712500Y-12337071D01*
X2698214Y-12365643D01*
X3055357Y-12194214D02*
X3083928Y-12194214D01*
X3112500Y-12208500D01*
X3126786Y-12222786D01*
X3141071Y-12251357D01*
X3155357Y-12308500D01*
X3155357Y-12379929D01*
X3141071Y-12437071D01*
X3126786Y-12465643D01*
X3112500Y-12479929D01*
X3083928Y-12494214D01*
X3055357Y-12494214D01*
X3026786Y-12479929D01*
X3012500Y-12465643D01*
X2998214Y-12437071D01*
X2983928Y-12379929D01*
X2983928Y-12308500D01*
X2998214Y-12251357D01*
X3012500Y-12222786D01*
X3026786Y-12208500D01*
X3055357Y-12194214D01*
X3283928Y-12494214D02*
X3283928Y-12294214D01*
X3283928Y-12322786D02*
X3298214Y-12308500D01*
X3326786Y-12294214D01*
X3369643Y-12294214D01*
X3398214Y-12308500D01*
X3412500Y-12337071D01*
X3412500Y-12494214D01*
X3412500Y-12337071D02*
X3426786Y-12308500D01*
X3455357Y-12294214D01*
X3498214Y-12294214D01*
X3526786Y-12308500D01*
X3541071Y-12337071D01*
X3541071Y-12494214D01*
X3683928Y-12494214D02*
X3683928Y-12294214D01*
X3683928Y-12322786D02*
X3698214Y-12308500D01*
X3726786Y-12294214D01*
X3769643Y-12294214D01*
X3798214Y-12308500D01*
X3812500Y-12337071D01*
X3812500Y-12494214D01*
X3812500Y-12337071D02*
X3826786Y-12308500D01*
X3855357Y-12294214D01*
X3898214Y-12294214D01*
X3926786Y-12308500D01*
X3941071Y-12337071D01*
X3941071Y-12494214D01*
X4526786Y-12179929D02*
X4269643Y-12565643D01*
X4912500Y-12194214D02*
X4941071Y-12194214D01*
X4969643Y-12208500D01*
X4983928Y-12222786D01*
X4998214Y-12251357D01*
X5012500Y-12308500D01*
X5012500Y-12379929D01*
X4998214Y-12437071D01*
X4983928Y-12465643D01*
X4969643Y-12479929D01*
X4941071Y-12494214D01*
X4912500Y-12494214D01*
X4883928Y-12479929D01*
X4869643Y-12465643D01*
X4855357Y-12437071D01*
X4841071Y-12379929D01*
X4841071Y-12308500D01*
X4855357Y-12251357D01*
X4869643Y-12222786D01*
X4883928Y-12208500D01*
X4912500Y-12194214D01*
X5141071Y-12465643D02*
X5155357Y-12479929D01*
X5141071Y-12494214D01*
X5126786Y-12479929D01*
X5141071Y-12465643D01*
X5141071Y-12494214D01*
X5341071Y-12194214D02*
X5369643Y-12194214D01*
X5398214Y-12208500D01*
X5412500Y-12222786D01*
X5426786Y-12251357D01*
X5441071Y-12308500D01*
X5441071Y-12379929D01*
X5426786Y-12437071D01*
X5412500Y-12465643D01*
X5398214Y-12479929D01*
X5369643Y-12494214D01*
X5341071Y-12494214D01*
X5312500Y-12479929D01*
X5298214Y-12465643D01*
X5283928Y-12437071D01*
X5269643Y-12379929D01*
X5269643Y-12308500D01*
X5283928Y-12251357D01*
X5298214Y-12222786D01*
X5312500Y-12208500D01*
X5341071Y-12194214D01*
X5555357Y-12222786D02*
X5569643Y-12208500D01*
X5598214Y-12194214D01*
X5669643Y-12194214D01*
X5698214Y-12208500D01*
X5712500Y-12222786D01*
X5726786Y-12251357D01*
X5726786Y-12279929D01*
X5712500Y-12322786D01*
X5541071Y-12494214D01*
X5726786Y-12494214D01*
X5983928Y-12294214D02*
X5983928Y-12494214D01*
X5912500Y-12179929D02*
X5841071Y-12394214D01*
X6026786Y-12394214D01*
X6126786Y-12194214D02*
X6126786Y-12251357D01*
X6241071Y-12194214D02*
X6241071Y-12251357D01*
X6683928Y-12608500D02*
X6669643Y-12594214D01*
X6641071Y-12551357D01*
X6626786Y-12522786D01*
X6612500Y-12479929D01*
X6598214Y-12408500D01*
X6598214Y-12351357D01*
X6612500Y-12279929D01*
X6626786Y-12237071D01*
X6641071Y-12208500D01*
X6669643Y-12165643D01*
X6683928Y-12151357D01*
X6783928Y-12222786D02*
X6798214Y-12208500D01*
X6826786Y-12194214D01*
X6898214Y-12194214D01*
X6926786Y-12208500D01*
X6941071Y-12222786D01*
X6955357Y-12251357D01*
X6955357Y-12279929D01*
X6941071Y-12322786D01*
X6769643Y-12494214D01*
X6955357Y-12494214D01*
X7141071Y-12194214D02*
X7169643Y-12194214D01*
X7198214Y-12208500D01*
X7212500Y-12222786D01*
X7226786Y-12251357D01*
X7241071Y-12308500D01*
X7241071Y-12379929D01*
X7226786Y-12437071D01*
X7212500Y-12465643D01*
X7198214Y-12479929D01*
X7169643Y-12494214D01*
X7141071Y-12494214D01*
X7112500Y-12479929D01*
X7098214Y-12465643D01*
X7083928Y-12437071D01*
X7069643Y-12379929D01*
X7069643Y-12308500D01*
X7083928Y-12251357D01*
X7098214Y-12222786D01*
X7112500Y-12208500D01*
X7141071Y-12194214D01*
X7598214Y-12494214D02*
X7598214Y-12194214D01*
X7726786Y-12494214D02*
X7726786Y-12337071D01*
X7712500Y-12308500D01*
X7683928Y-12294214D01*
X7641071Y-12294214D01*
X7612500Y-12308500D01*
X7598214Y-12322786D01*
X7912500Y-12494214D02*
X7883928Y-12479929D01*
X7869643Y-12465643D01*
X7855357Y-12437071D01*
X7855357Y-12351357D01*
X7869643Y-12322786D01*
X7883928Y-12308500D01*
X7912500Y-12294214D01*
X7955357Y-12294214D01*
X7983928Y-12308500D01*
X7998214Y-12322786D01*
X8012500Y-12351357D01*
X8012500Y-12437071D01*
X7998214Y-12465643D01*
X7983928Y-12479929D01*
X7955357Y-12494214D01*
X7912500Y-12494214D01*
X8183928Y-12494214D02*
X8155357Y-12479929D01*
X8141071Y-12451357D01*
X8141071Y-12194214D01*
X8412500Y-12479929D02*
X8383928Y-12494214D01*
X8326786Y-12494214D01*
X8298214Y-12479929D01*
X8283928Y-12451357D01*
X8283928Y-12337071D01*
X8298214Y-12308500D01*
X8326786Y-12294214D01*
X8383928Y-12294214D01*
X8412500Y-12308500D01*
X8426786Y-12337071D01*
X8426786Y-12365643D01*
X8283928Y-12394214D01*
X8541071Y-12479929D02*
X8569643Y-12494214D01*
X8626786Y-12494214D01*
X8655357Y-12479929D01*
X8669643Y-12451357D01*
X8669643Y-12437071D01*
X8655357Y-12408500D01*
X8626786Y-12394214D01*
X8583928Y-12394214D01*
X8555357Y-12379929D01*
X8541071Y-12351357D01*
X8541071Y-12337071D01*
X8555357Y-12308500D01*
X8583928Y-12294214D01*
X8626786Y-12294214D01*
X8655357Y-12308500D01*
X8769643Y-12608500D02*
X8783928Y-12594214D01*
X8812500Y-12551357D01*
X8826786Y-12522786D01*
X8841071Y-12479929D01*
X8855357Y-12408500D01*
X8855357Y-12351357D01*
X8841071Y-12279929D01*
X8826786Y-12237071D01*
X8812500Y-12208500D01*
X8783928Y-12165643D01*
X8769643Y-12151357D01*
X1962500Y-12719500D02*
X1962500Y-12789500D01*
X1927500Y-12754500D02*
X1997500Y-12754500D01*
X2341071Y-12590214D02*
X2369643Y-12590214D01*
X2398214Y-12604500D01*
X2412500Y-12618786D01*
X2426786Y-12647357D01*
X2441071Y-12704500D01*
X2441071Y-12775929D01*
X2426786Y-12833071D01*
X2412500Y-12861643D01*
X2398214Y-12875929D01*
X2369643Y-12890214D01*
X2341071Y-12890214D01*
X2312500Y-12875929D01*
X2298214Y-12861643D01*
X2283928Y-12833071D01*
X2269643Y-12775929D01*
X2269643Y-12704500D01*
X2283928Y-12647357D01*
X2298214Y-12618786D01*
X2312500Y-12604500D01*
X2341071Y-12590214D01*
X2569643Y-12861643D02*
X2583928Y-12875929D01*
X2569643Y-12890214D01*
X2555357Y-12875929D01*
X2569643Y-12861643D01*
X2569643Y-12890214D01*
X2683928Y-12590214D02*
X2883928Y-12590214D01*
X2755357Y-12890214D01*
X3055357Y-12590214D02*
X3083928Y-12590214D01*
X3112500Y-12604500D01*
X3126786Y-12618786D01*
X3141071Y-12647357D01*
X3155357Y-12704500D01*
X3155357Y-12775929D01*
X3141071Y-12833071D01*
X3126786Y-12861643D01*
X3112500Y-12875929D01*
X3083928Y-12890214D01*
X3055357Y-12890214D01*
X3026786Y-12875929D01*
X3012500Y-12861643D01*
X2998214Y-12833071D01*
X2983928Y-12775929D01*
X2983928Y-12704500D01*
X2998214Y-12647357D01*
X3012500Y-12618786D01*
X3026786Y-12604500D01*
X3055357Y-12590214D01*
X3283928Y-12890214D02*
X3283928Y-12690214D01*
X3283928Y-12718786D02*
X3298214Y-12704500D01*
X3326786Y-12690214D01*
X3369643Y-12690214D01*
X3398214Y-12704500D01*
X3412500Y-12733071D01*
X3412500Y-12890214D01*
X3412500Y-12733071D02*
X3426786Y-12704500D01*
X3455357Y-12690214D01*
X3498214Y-12690214D01*
X3526786Y-12704500D01*
X3541071Y-12733071D01*
X3541071Y-12890214D01*
X3683928Y-12890214D02*
X3683928Y-12690214D01*
X3683928Y-12718786D02*
X3698214Y-12704500D01*
X3726786Y-12690214D01*
X3769643Y-12690214D01*
X3798214Y-12704500D01*
X3812500Y-12733071D01*
X3812500Y-12890214D01*
X3812500Y-12733071D02*
X3826786Y-12704500D01*
X3855357Y-12690214D01*
X3898214Y-12690214D01*
X3926786Y-12704500D01*
X3941071Y-12733071D01*
X3941071Y-12890214D01*
X4526786Y-12575929D02*
X4269643Y-12961643D01*
X4912500Y-12590214D02*
X4941071Y-12590214D01*
X4969643Y-12604500D01*
X4983928Y-12618786D01*
X4998214Y-12647357D01*
X5012500Y-12704500D01*
X5012500Y-12775929D01*
X4998214Y-12833071D01*
X4983928Y-12861643D01*
X4969643Y-12875929D01*
X4941071Y-12890214D01*
X4912500Y-12890214D01*
X4883928Y-12875929D01*
X4869643Y-12861643D01*
X4855357Y-12833071D01*
X4841071Y-12775929D01*
X4841071Y-12704500D01*
X4855357Y-12647357D01*
X4869643Y-12618786D01*
X4883928Y-12604500D01*
X4912500Y-12590214D01*
X5141071Y-12861643D02*
X5155357Y-12875929D01*
X5141071Y-12890214D01*
X5126786Y-12875929D01*
X5141071Y-12861643D01*
X5141071Y-12890214D01*
X5341071Y-12590214D02*
X5369643Y-12590214D01*
X5398214Y-12604500D01*
X5412500Y-12618786D01*
X5426786Y-12647357D01*
X5441071Y-12704500D01*
X5441071Y-12775929D01*
X5426786Y-12833071D01*
X5412500Y-12861643D01*
X5398214Y-12875929D01*
X5369643Y-12890214D01*
X5341071Y-12890214D01*
X5312500Y-12875929D01*
X5298214Y-12861643D01*
X5283928Y-12833071D01*
X5269643Y-12775929D01*
X5269643Y-12704500D01*
X5283928Y-12647357D01*
X5298214Y-12618786D01*
X5312500Y-12604500D01*
X5341071Y-12590214D01*
X5555357Y-12618786D02*
X5569643Y-12604500D01*
X5598214Y-12590214D01*
X5669643Y-12590214D01*
X5698214Y-12604500D01*
X5712500Y-12618786D01*
X5726786Y-12647357D01*
X5726786Y-12675929D01*
X5712500Y-12718786D01*
X5541071Y-12890214D01*
X5726786Y-12890214D01*
X5898214Y-12718786D02*
X5869643Y-12704500D01*
X5855357Y-12690214D01*
X5841071Y-12661643D01*
X5841071Y-12647357D01*
X5855357Y-12618786D01*
X5869643Y-12604500D01*
X5898214Y-12590214D01*
X5955357Y-12590214D01*
X5983928Y-12604500D01*
X5998214Y-12618786D01*
X6012500Y-12647357D01*
X6012500Y-12661643D01*
X5998214Y-12690214D01*
X5983928Y-12704500D01*
X5955357Y-12718786D01*
X5898214Y-12718786D01*
X5869643Y-12733071D01*
X5855357Y-12747357D01*
X5841071Y-12775929D01*
X5841071Y-12833071D01*
X5855357Y-12861643D01*
X5869643Y-12875929D01*
X5898214Y-12890214D01*
X5955357Y-12890214D01*
X5983928Y-12875929D01*
X5998214Y-12861643D01*
X6012500Y-12833071D01*
X6012500Y-12775929D01*
X5998214Y-12747357D01*
X5983928Y-12733071D01*
X5955357Y-12718786D01*
X6126786Y-12590214D02*
X6126786Y-12647357D01*
X6241071Y-12590214D02*
X6241071Y-12647357D01*
X6683928Y-13004500D02*
X6669643Y-12990214D01*
X6641071Y-12947357D01*
X6626786Y-12918786D01*
X6612500Y-12875929D01*
X6598214Y-12804500D01*
X6598214Y-12747357D01*
X6612500Y-12675929D01*
X6626786Y-12633071D01*
X6641071Y-12604500D01*
X6669643Y-12561643D01*
X6683928Y-12547357D01*
X6955357Y-12890214D02*
X6783928Y-12890214D01*
X6869643Y-12890214D02*
X6869643Y-12590214D01*
X6841071Y-12633071D01*
X6812500Y-12661643D01*
X6783928Y-12675929D01*
X7069643Y-12618786D02*
X7083928Y-12604500D01*
X7112500Y-12590214D01*
X7183928Y-12590214D01*
X7212500Y-12604500D01*
X7226786Y-12618786D01*
X7241071Y-12647357D01*
X7241071Y-12675929D01*
X7226786Y-12718786D01*
X7055357Y-12890214D01*
X7241071Y-12890214D01*
X7412500Y-12718786D02*
X7383928Y-12704500D01*
X7369643Y-12690214D01*
X7355357Y-12661643D01*
X7355357Y-12647357D01*
X7369643Y-12618786D01*
X7383928Y-12604500D01*
X7412500Y-12590214D01*
X7469643Y-12590214D01*
X7498214Y-12604500D01*
X7512500Y-12618786D01*
X7526786Y-12647357D01*
X7526786Y-12661643D01*
X7512500Y-12690214D01*
X7498214Y-12704500D01*
X7469643Y-12718786D01*
X7412500Y-12718786D01*
X7383928Y-12733071D01*
X7369643Y-12747357D01*
X7355357Y-12775929D01*
X7355357Y-12833071D01*
X7369643Y-12861643D01*
X7383928Y-12875929D01*
X7412500Y-12890214D01*
X7469643Y-12890214D01*
X7498214Y-12875929D01*
X7512500Y-12861643D01*
X7526786Y-12833071D01*
X7526786Y-12775929D01*
X7512500Y-12747357D01*
X7498214Y-12733071D01*
X7469643Y-12718786D01*
X7883928Y-12890214D02*
X7883928Y-12590214D01*
X8012500Y-12890214D02*
X8012500Y-12733071D01*
X7998214Y-12704500D01*
X7969643Y-12690214D01*
X7926786Y-12690214D01*
X7898214Y-12704500D01*
X7883928Y-12718786D01*
X8198214Y-12890214D02*
X8169643Y-12875929D01*
X8155357Y-12861643D01*
X8141071Y-12833071D01*
X8141071Y-12747357D01*
X8155357Y-12718786D01*
X8169643Y-12704500D01*
X8198214Y-12690214D01*
X8241071Y-12690214D01*
X8269643Y-12704500D01*
X8283928Y-12718786D01*
X8298214Y-12747357D01*
X8298214Y-12833071D01*
X8283928Y-12861643D01*
X8269643Y-12875929D01*
X8241071Y-12890214D01*
X8198214Y-12890214D01*
X8469643Y-12890214D02*
X8441071Y-12875929D01*
X8426786Y-12847357D01*
X8426786Y-12590214D01*
X8698214Y-12875929D02*
X8669643Y-12890214D01*
X8612500Y-12890214D01*
X8583928Y-12875929D01*
X8569643Y-12847357D01*
X8569643Y-12733071D01*
X8583928Y-12704500D01*
X8612500Y-12690214D01*
X8669643Y-12690214D01*
X8698214Y-12704500D01*
X8712500Y-12733071D01*
X8712500Y-12761643D01*
X8569643Y-12790214D01*
X8826786Y-12875929D02*
X8855357Y-12890214D01*
X8912500Y-12890214D01*
X8941071Y-12875929D01*
X8955357Y-12847357D01*
X8955357Y-12833071D01*
X8941071Y-12804500D01*
X8912500Y-12790214D01*
X8869643Y-12790214D01*
X8841071Y-12775929D01*
X8826786Y-12747357D01*
X8826786Y-12733071D01*
X8841071Y-12704500D01*
X8869643Y-12690214D01*
X8912500Y-12690214D01*
X8941071Y-12704500D01*
X9055357Y-13004500D02*
X9069643Y-12990214D01*
X9098214Y-12947357D01*
X9112500Y-12918786D01*
X9126786Y-12875929D01*
X9141071Y-12804500D01*
X9141071Y-12747357D01*
X9126786Y-12675929D01*
X9112500Y-12633071D01*
X9098214Y-12604500D01*
X9069643Y-12561643D01*
X9055357Y-12547357D01*
X1986517Y-13177017D02*
X1986517Y-13123983D01*
X1933483Y-13123983D01*
X1933483Y-13177017D01*
X1986517Y-13177017D01*
X2341071Y-12986214D02*
X2369643Y-12986214D01*
X2398214Y-13000500D01*
X2412500Y-13014786D01*
X2426786Y-13043357D01*
X2441071Y-13100500D01*
X2441071Y-13171929D01*
X2426786Y-13229071D01*
X2412500Y-13257643D01*
X2398214Y-13271929D01*
X2369643Y-13286214D01*
X2341071Y-13286214D01*
X2312500Y-13271929D01*
X2298214Y-13257643D01*
X2283928Y-13229071D01*
X2269643Y-13171929D01*
X2269643Y-13100500D01*
X2283928Y-13043357D01*
X2298214Y-13014786D01*
X2312500Y-13000500D01*
X2341071Y-12986214D01*
X2569643Y-13257643D02*
X2583928Y-13271929D01*
X2569643Y-13286214D01*
X2555357Y-13271929D01*
X2569643Y-13257643D01*
X2569643Y-13286214D01*
X2683928Y-12986214D02*
X2883928Y-12986214D01*
X2755357Y-13286214D01*
X3141071Y-12986214D02*
X2998214Y-12986214D01*
X2983928Y-13129071D01*
X2998214Y-13114786D01*
X3026786Y-13100500D01*
X3098214Y-13100500D01*
X3126786Y-13114786D01*
X3141071Y-13129071D01*
X3155357Y-13157643D01*
X3155357Y-13229071D01*
X3141071Y-13257643D01*
X3126786Y-13271929D01*
X3098214Y-13286214D01*
X3026786Y-13286214D01*
X2998214Y-13271929D01*
X2983928Y-13257643D01*
X3283928Y-13286214D02*
X3283928Y-13086214D01*
X3283928Y-13114786D02*
X3298214Y-13100500D01*
X3326786Y-13086214D01*
X3369643Y-13086214D01*
X3398214Y-13100500D01*
X3412500Y-13129071D01*
X3412500Y-13286214D01*
X3412500Y-13129071D02*
X3426786Y-13100500D01*
X3455357Y-13086214D01*
X3498214Y-13086214D01*
X3526786Y-13100500D01*
X3541071Y-13129071D01*
X3541071Y-13286214D01*
X3683928Y-13286214D02*
X3683928Y-13086214D01*
X3683928Y-13114786D02*
X3698214Y-13100500D01*
X3726786Y-13086214D01*
X3769643Y-13086214D01*
X3798214Y-13100500D01*
X3812500Y-13129071D01*
X3812500Y-13286214D01*
X3812500Y-13129071D02*
X3826786Y-13100500D01*
X3855357Y-13086214D01*
X3898214Y-13086214D01*
X3926786Y-13100500D01*
X3941071Y-13129071D01*
X3941071Y-13286214D01*
X4526786Y-12971929D02*
X4269643Y-13357643D01*
X4912500Y-12986214D02*
X4941071Y-12986214D01*
X4969643Y-13000500D01*
X4983928Y-13014786D01*
X4998214Y-13043357D01*
X5012500Y-13100500D01*
X5012500Y-13171929D01*
X4998214Y-13229071D01*
X4983928Y-13257643D01*
X4969643Y-13271929D01*
X4941071Y-13286214D01*
X4912500Y-13286214D01*
X4883928Y-13271929D01*
X4869643Y-13257643D01*
X4855357Y-13229071D01*
X4841071Y-13171929D01*
X4841071Y-13100500D01*
X4855357Y-13043357D01*
X4869643Y-13014786D01*
X4883928Y-13000500D01*
X4912500Y-12986214D01*
X5141071Y-13257643D02*
X5155357Y-13271929D01*
X5141071Y-13286214D01*
X5126786Y-13271929D01*
X5141071Y-13257643D01*
X5141071Y-13286214D01*
X5341071Y-12986214D02*
X5369643Y-12986214D01*
X5398214Y-13000500D01*
X5412500Y-13014786D01*
X5426786Y-13043357D01*
X5441071Y-13100500D01*
X5441071Y-13171929D01*
X5426786Y-13229071D01*
X5412500Y-13257643D01*
X5398214Y-13271929D01*
X5369643Y-13286214D01*
X5341071Y-13286214D01*
X5312500Y-13271929D01*
X5298214Y-13257643D01*
X5283928Y-13229071D01*
X5269643Y-13171929D01*
X5269643Y-13100500D01*
X5283928Y-13043357D01*
X5298214Y-13014786D01*
X5312500Y-13000500D01*
X5341071Y-12986214D01*
X5541071Y-12986214D02*
X5726786Y-12986214D01*
X5626786Y-13100500D01*
X5669643Y-13100500D01*
X5698214Y-13114786D01*
X5712500Y-13129071D01*
X5726786Y-13157643D01*
X5726786Y-13229071D01*
X5712500Y-13257643D01*
X5698214Y-13271929D01*
X5669643Y-13286214D01*
X5583928Y-13286214D01*
X5555357Y-13271929D01*
X5541071Y-13257643D01*
X5912500Y-12986214D02*
X5941071Y-12986214D01*
X5969643Y-13000500D01*
X5983928Y-13014786D01*
X5998214Y-13043357D01*
X6012500Y-13100500D01*
X6012500Y-13171929D01*
X5998214Y-13229071D01*
X5983928Y-13257643D01*
X5969643Y-13271929D01*
X5941071Y-13286214D01*
X5912500Y-13286214D01*
X5883928Y-13271929D01*
X5869643Y-13257643D01*
X5855357Y-13229071D01*
X5841071Y-13171929D01*
X5841071Y-13100500D01*
X5855357Y-13043357D01*
X5869643Y-13014786D01*
X5883928Y-13000500D01*
X5912500Y-12986214D01*
X6126786Y-12986214D02*
X6126786Y-13043357D01*
X6241071Y-12986214D02*
X6241071Y-13043357D01*
X6683928Y-13400500D02*
X6669643Y-13386214D01*
X6641071Y-13343357D01*
X6626786Y-13314786D01*
X6612500Y-13271929D01*
X6598214Y-13200500D01*
X6598214Y-13143357D01*
X6612500Y-13071929D01*
X6626786Y-13029071D01*
X6641071Y-13000500D01*
X6669643Y-12957643D01*
X6683928Y-12943357D01*
X6783928Y-13014786D02*
X6798214Y-13000500D01*
X6826786Y-12986214D01*
X6898214Y-12986214D01*
X6926786Y-13000500D01*
X6941071Y-13014786D01*
X6955357Y-13043357D01*
X6955357Y-13071929D01*
X6941071Y-13114786D01*
X6769643Y-13286214D01*
X6955357Y-13286214D01*
X7212500Y-13086214D02*
X7212500Y-13286214D01*
X7141071Y-12971929D02*
X7069643Y-13186214D01*
X7255357Y-13186214D01*
X7598214Y-13286214D02*
X7598214Y-12986214D01*
X7726786Y-13286214D02*
X7726786Y-13129071D01*
X7712500Y-13100500D01*
X7683928Y-13086214D01*
X7641071Y-13086214D01*
X7612500Y-13100500D01*
X7598214Y-13114786D01*
X7912500Y-13286214D02*
X7883928Y-13271929D01*
X7869643Y-13257643D01*
X7855357Y-13229071D01*
X7855357Y-13143357D01*
X7869643Y-13114786D01*
X7883928Y-13100500D01*
X7912500Y-13086214D01*
X7955357Y-13086214D01*
X7983928Y-13100500D01*
X7998214Y-13114786D01*
X8012500Y-13143357D01*
X8012500Y-13229071D01*
X7998214Y-13257643D01*
X7983928Y-13271929D01*
X7955357Y-13286214D01*
X7912500Y-13286214D01*
X8183928Y-13286214D02*
X8155357Y-13271929D01*
X8141071Y-13243357D01*
X8141071Y-12986214D01*
X8412500Y-13271929D02*
X8383928Y-13286214D01*
X8326786Y-13286214D01*
X8298214Y-13271929D01*
X8283928Y-13243357D01*
X8283928Y-13129071D01*
X8298214Y-13100500D01*
X8326786Y-13086214D01*
X8383928Y-13086214D01*
X8412500Y-13100500D01*
X8426786Y-13129071D01*
X8426786Y-13157643D01*
X8283928Y-13186214D01*
X8541071Y-13271929D02*
X8569643Y-13286214D01*
X8626786Y-13286214D01*
X8655357Y-13271929D01*
X8669643Y-13243357D01*
X8669643Y-13229071D01*
X8655357Y-13200500D01*
X8626786Y-13186214D01*
X8583928Y-13186214D01*
X8555357Y-13171929D01*
X8541071Y-13143357D01*
X8541071Y-13129071D01*
X8555357Y-13100500D01*
X8583928Y-13086214D01*
X8626786Y-13086214D01*
X8655357Y-13100500D01*
X8769643Y-13400500D02*
X8783928Y-13386214D01*
X8812500Y-13343357D01*
X8826786Y-13314786D01*
X8841071Y-13271929D01*
X8855357Y-13200500D01*
X8855357Y-13143357D01*
X8841071Y-13071929D01*
X8826786Y-13029071D01*
X8812500Y-13000500D01*
X8783928Y-12957643D01*
X8769643Y-12943357D01*
X1957500Y-13586500D02*
X1997500Y-13546500D01*
X1957500Y-13506500D01*
X1917500Y-13546500D01*
X1957500Y-13586500D01*
X2341071Y-13382214D02*
X2369643Y-13382214D01*
X2398214Y-13396500D01*
X2412500Y-13410786D01*
X2426786Y-13439357D01*
X2441071Y-13496500D01*
X2441071Y-13567929D01*
X2426786Y-13625071D01*
X2412500Y-13653643D01*
X2398214Y-13667929D01*
X2369643Y-13682214D01*
X2341071Y-13682214D01*
X2312500Y-13667929D01*
X2298214Y-13653643D01*
X2283928Y-13625071D01*
X2269643Y-13567929D01*
X2269643Y-13496500D01*
X2283928Y-13439357D01*
X2298214Y-13410786D01*
X2312500Y-13396500D01*
X2341071Y-13382214D01*
X2569643Y-13653643D02*
X2583928Y-13667929D01*
X2569643Y-13682214D01*
X2555357Y-13667929D01*
X2569643Y-13653643D01*
X2569643Y-13682214D01*
X2755357Y-13510786D02*
X2726786Y-13496500D01*
X2712500Y-13482214D01*
X2698214Y-13453643D01*
X2698214Y-13439357D01*
X2712500Y-13410786D01*
X2726786Y-13396500D01*
X2755357Y-13382214D01*
X2812500Y-13382214D01*
X2841071Y-13396500D01*
X2855357Y-13410786D01*
X2869643Y-13439357D01*
X2869643Y-13453643D01*
X2855357Y-13482214D01*
X2841071Y-13496500D01*
X2812500Y-13510786D01*
X2755357Y-13510786D01*
X2726786Y-13525071D01*
X2712500Y-13539357D01*
X2698214Y-13567929D01*
X2698214Y-13625071D01*
X2712500Y-13653643D01*
X2726786Y-13667929D01*
X2755357Y-13682214D01*
X2812500Y-13682214D01*
X2841071Y-13667929D01*
X2855357Y-13653643D01*
X2869643Y-13625071D01*
X2869643Y-13567929D01*
X2855357Y-13539357D01*
X2841071Y-13525071D01*
X2812500Y-13510786D01*
X3055357Y-13382214D02*
X3083928Y-13382214D01*
X3112500Y-13396500D01*
X3126786Y-13410786D01*
X3141071Y-13439357D01*
X3155357Y-13496500D01*
X3155357Y-13567929D01*
X3141071Y-13625071D01*
X3126786Y-13653643D01*
X3112500Y-13667929D01*
X3083928Y-13682214D01*
X3055357Y-13682214D01*
X3026786Y-13667929D01*
X3012500Y-13653643D01*
X2998214Y-13625071D01*
X2983928Y-13567929D01*
X2983928Y-13496500D01*
X2998214Y-13439357D01*
X3012500Y-13410786D01*
X3026786Y-13396500D01*
X3055357Y-13382214D01*
X3283928Y-13682214D02*
X3283928Y-13482214D01*
X3283928Y-13510786D02*
X3298214Y-13496500D01*
X3326786Y-13482214D01*
X3369643Y-13482214D01*
X3398214Y-13496500D01*
X3412500Y-13525071D01*
X3412500Y-13682214D01*
X3412500Y-13525071D02*
X3426786Y-13496500D01*
X3455357Y-13482214D01*
X3498214Y-13482214D01*
X3526786Y-13496500D01*
X3541071Y-13525071D01*
X3541071Y-13682214D01*
X3683928Y-13682214D02*
X3683928Y-13482214D01*
X3683928Y-13510786D02*
X3698214Y-13496500D01*
X3726786Y-13482214D01*
X3769643Y-13482214D01*
X3798214Y-13496500D01*
X3812500Y-13525071D01*
X3812500Y-13682214D01*
X3812500Y-13525071D02*
X3826786Y-13496500D01*
X3855357Y-13482214D01*
X3898214Y-13482214D01*
X3926786Y-13496500D01*
X3941071Y-13525071D01*
X3941071Y-13682214D01*
X4526786Y-13367929D02*
X4269643Y-13753643D01*
X4912500Y-13382214D02*
X4941071Y-13382214D01*
X4969643Y-13396500D01*
X4983928Y-13410786D01*
X4998214Y-13439357D01*
X5012500Y-13496500D01*
X5012500Y-13567929D01*
X4998214Y-13625071D01*
X4983928Y-13653643D01*
X4969643Y-13667929D01*
X4941071Y-13682214D01*
X4912500Y-13682214D01*
X4883928Y-13667929D01*
X4869643Y-13653643D01*
X4855357Y-13625071D01*
X4841071Y-13567929D01*
X4841071Y-13496500D01*
X4855357Y-13439357D01*
X4869643Y-13410786D01*
X4883928Y-13396500D01*
X4912500Y-13382214D01*
X5141071Y-13653643D02*
X5155357Y-13667929D01*
X5141071Y-13682214D01*
X5126786Y-13667929D01*
X5141071Y-13653643D01*
X5141071Y-13682214D01*
X5341071Y-13382214D02*
X5369643Y-13382214D01*
X5398214Y-13396500D01*
X5412500Y-13410786D01*
X5426786Y-13439357D01*
X5441071Y-13496500D01*
X5441071Y-13567929D01*
X5426786Y-13625071D01*
X5412500Y-13653643D01*
X5398214Y-13667929D01*
X5369643Y-13682214D01*
X5341071Y-13682214D01*
X5312500Y-13667929D01*
X5298214Y-13653643D01*
X5283928Y-13625071D01*
X5269643Y-13567929D01*
X5269643Y-13496500D01*
X5283928Y-13439357D01*
X5298214Y-13410786D01*
X5312500Y-13396500D01*
X5341071Y-13382214D01*
X5541071Y-13382214D02*
X5726786Y-13382214D01*
X5626786Y-13496500D01*
X5669643Y-13496500D01*
X5698214Y-13510786D01*
X5712500Y-13525071D01*
X5726786Y-13553643D01*
X5726786Y-13625071D01*
X5712500Y-13653643D01*
X5698214Y-13667929D01*
X5669643Y-13682214D01*
X5583928Y-13682214D01*
X5555357Y-13667929D01*
X5541071Y-13653643D01*
X6012500Y-13682214D02*
X5841071Y-13682214D01*
X5926786Y-13682214D02*
X5926786Y-13382214D01*
X5898214Y-13425071D01*
X5869643Y-13453643D01*
X5841071Y-13467929D01*
X6126786Y-13382214D02*
X6126786Y-13439357D01*
X6241071Y-13382214D02*
X6241071Y-13439357D01*
X6683928Y-13796500D02*
X6669643Y-13782214D01*
X6641071Y-13739357D01*
X6626786Y-13710786D01*
X6612500Y-13667929D01*
X6598214Y-13596500D01*
X6598214Y-13539357D01*
X6612500Y-13467929D01*
X6626786Y-13425071D01*
X6641071Y-13396500D01*
X6669643Y-13353643D01*
X6683928Y-13339357D01*
X6783928Y-13410786D02*
X6798214Y-13396500D01*
X6826786Y-13382214D01*
X6898214Y-13382214D01*
X6926786Y-13396500D01*
X6941071Y-13410786D01*
X6955357Y-13439357D01*
X6955357Y-13467929D01*
X6941071Y-13510786D01*
X6769643Y-13682214D01*
X6955357Y-13682214D01*
X7212500Y-13482214D02*
X7212500Y-13682214D01*
X7141071Y-13367929D02*
X7069643Y-13582214D01*
X7255357Y-13582214D01*
X7498214Y-13382214D02*
X7441071Y-13382214D01*
X7412500Y-13396500D01*
X7398214Y-13410786D01*
X7369643Y-13453643D01*
X7355357Y-13510786D01*
X7355357Y-13625071D01*
X7369643Y-13653643D01*
X7383928Y-13667929D01*
X7412500Y-13682214D01*
X7469643Y-13682214D01*
X7498214Y-13667929D01*
X7512500Y-13653643D01*
X7526786Y-13625071D01*
X7526786Y-13553643D01*
X7512500Y-13525071D01*
X7498214Y-13510786D01*
X7469643Y-13496500D01*
X7412500Y-13496500D01*
X7383928Y-13510786D01*
X7369643Y-13525071D01*
X7355357Y-13553643D01*
X7883928Y-13682214D02*
X7883928Y-13382214D01*
X8012500Y-13682214D02*
X8012500Y-13525071D01*
X7998214Y-13496500D01*
X7969643Y-13482214D01*
X7926786Y-13482214D01*
X7898214Y-13496500D01*
X7883928Y-13510786D01*
X8198214Y-13682214D02*
X8169643Y-13667929D01*
X8155357Y-13653643D01*
X8141071Y-13625071D01*
X8141071Y-13539357D01*
X8155357Y-13510786D01*
X8169643Y-13496500D01*
X8198214Y-13482214D01*
X8241071Y-13482214D01*
X8269643Y-13496500D01*
X8283928Y-13510786D01*
X8298214Y-13539357D01*
X8298214Y-13625071D01*
X8283928Y-13653643D01*
X8269643Y-13667929D01*
X8241071Y-13682214D01*
X8198214Y-13682214D01*
X8469643Y-13682214D02*
X8441071Y-13667929D01*
X8426786Y-13639357D01*
X8426786Y-13382214D01*
X8698214Y-13667929D02*
X8669643Y-13682214D01*
X8612500Y-13682214D01*
X8583928Y-13667929D01*
X8569643Y-13639357D01*
X8569643Y-13525071D01*
X8583928Y-13496500D01*
X8612500Y-13482214D01*
X8669643Y-13482214D01*
X8698214Y-13496500D01*
X8712500Y-13525071D01*
X8712500Y-13553643D01*
X8569643Y-13582214D01*
X8826786Y-13667929D02*
X8855357Y-13682214D01*
X8912500Y-13682214D01*
X8941071Y-13667929D01*
X8955357Y-13639357D01*
X8955357Y-13625071D01*
X8941071Y-13596500D01*
X8912500Y-13582214D01*
X8869643Y-13582214D01*
X8841071Y-13567929D01*
X8826786Y-13539357D01*
X8826786Y-13525071D01*
X8841071Y-13496500D01*
X8869643Y-13482214D01*
X8912500Y-13482214D01*
X8941071Y-13496500D01*
X9055357Y-13796500D02*
X9069643Y-13782214D01*
X9098214Y-13739357D01*
X9112500Y-13710786D01*
X9126786Y-13667929D01*
X9141071Y-13596500D01*
X9141071Y-13539357D01*
X9126786Y-13467929D01*
X9112500Y-13425071D01*
X9098214Y-13396500D01*
X9069643Y-13353643D01*
X9055357Y-13339357D01*
X1837500Y-13862500D02*
X1997500Y-14022500D01*
X1997500Y-13862500D02*
X1837500Y-14022500D01*
X1997500Y-13942500D02*
G75*
G03X1997500Y-13942500I-80000J0D01*
G01*
X2441071Y-14078214D02*
X2269643Y-14078214D01*
X2355357Y-14078214D02*
X2355357Y-13778214D01*
X2326786Y-13821071D01*
X2298214Y-13849643D01*
X2269643Y-13863929D01*
X2569643Y-14049643D02*
X2583928Y-14063929D01*
X2569643Y-14078214D01*
X2555357Y-14063929D01*
X2569643Y-14049643D01*
X2569643Y-14078214D01*
X2841071Y-13778214D02*
X2783928Y-13778214D01*
X2755357Y-13792500D01*
X2741071Y-13806786D01*
X2712500Y-13849643D01*
X2698214Y-13906786D01*
X2698214Y-14021071D01*
X2712500Y-14049643D01*
X2726786Y-14063929D01*
X2755357Y-14078214D01*
X2812500Y-14078214D01*
X2841071Y-14063929D01*
X2855357Y-14049643D01*
X2869643Y-14021071D01*
X2869643Y-13949643D01*
X2855357Y-13921071D01*
X2841071Y-13906786D01*
X2812500Y-13892500D01*
X2755357Y-13892500D01*
X2726786Y-13906786D01*
X2712500Y-13921071D01*
X2698214Y-13949643D01*
X3055357Y-13778214D02*
X3083928Y-13778214D01*
X3112500Y-13792500D01*
X3126786Y-13806786D01*
X3141071Y-13835357D01*
X3155357Y-13892500D01*
X3155357Y-13963929D01*
X3141071Y-14021071D01*
X3126786Y-14049643D01*
X3112500Y-14063929D01*
X3083928Y-14078214D01*
X3055357Y-14078214D01*
X3026786Y-14063929D01*
X3012500Y-14049643D01*
X2998214Y-14021071D01*
X2983928Y-13963929D01*
X2983928Y-13892500D01*
X2998214Y-13835357D01*
X3012500Y-13806786D01*
X3026786Y-13792500D01*
X3055357Y-13778214D01*
X3283928Y-14078214D02*
X3283928Y-13878214D01*
X3283928Y-13906786D02*
X3298214Y-13892500D01*
X3326786Y-13878214D01*
X3369643Y-13878214D01*
X3398214Y-13892500D01*
X3412500Y-13921071D01*
X3412500Y-14078214D01*
X3412500Y-13921071D02*
X3426786Y-13892500D01*
X3455357Y-13878214D01*
X3498214Y-13878214D01*
X3526786Y-13892500D01*
X3541071Y-13921071D01*
X3541071Y-14078214D01*
X3683928Y-14078214D02*
X3683928Y-13878214D01*
X3683928Y-13906786D02*
X3698214Y-13892500D01*
X3726786Y-13878214D01*
X3769643Y-13878214D01*
X3798214Y-13892500D01*
X3812500Y-13921071D01*
X3812500Y-14078214D01*
X3812500Y-13921071D02*
X3826786Y-13892500D01*
X3855357Y-13878214D01*
X3898214Y-13878214D01*
X3926786Y-13892500D01*
X3941071Y-13921071D01*
X3941071Y-14078214D01*
X4526786Y-13763929D02*
X4269643Y-14149643D01*
X4912500Y-13778214D02*
X4941071Y-13778214D01*
X4969643Y-13792500D01*
X4983928Y-13806786D01*
X4998214Y-13835357D01*
X5012500Y-13892500D01*
X5012500Y-13963929D01*
X4998214Y-14021071D01*
X4983928Y-14049643D01*
X4969643Y-14063929D01*
X4941071Y-14078214D01*
X4912500Y-14078214D01*
X4883928Y-14063929D01*
X4869643Y-14049643D01*
X4855357Y-14021071D01*
X4841071Y-13963929D01*
X4841071Y-13892500D01*
X4855357Y-13835357D01*
X4869643Y-13806786D01*
X4883928Y-13792500D01*
X4912500Y-13778214D01*
X5141071Y-14049643D02*
X5155357Y-14063929D01*
X5141071Y-14078214D01*
X5126786Y-14063929D01*
X5141071Y-14049643D01*
X5141071Y-14078214D01*
X5341071Y-13778214D02*
X5369643Y-13778214D01*
X5398214Y-13792500D01*
X5412500Y-13806786D01*
X5426786Y-13835357D01*
X5441071Y-13892500D01*
X5441071Y-13963929D01*
X5426786Y-14021071D01*
X5412500Y-14049643D01*
X5398214Y-14063929D01*
X5369643Y-14078214D01*
X5341071Y-14078214D01*
X5312500Y-14063929D01*
X5298214Y-14049643D01*
X5283928Y-14021071D01*
X5269643Y-13963929D01*
X5269643Y-13892500D01*
X5283928Y-13835357D01*
X5298214Y-13806786D01*
X5312500Y-13792500D01*
X5341071Y-13778214D01*
X5698214Y-13778214D02*
X5641071Y-13778214D01*
X5612500Y-13792500D01*
X5598214Y-13806786D01*
X5569643Y-13849643D01*
X5555357Y-13906786D01*
X5555357Y-14021071D01*
X5569643Y-14049643D01*
X5583928Y-14063929D01*
X5612500Y-14078214D01*
X5669643Y-14078214D01*
X5698214Y-14063929D01*
X5712500Y-14049643D01*
X5726786Y-14021071D01*
X5726786Y-13949643D01*
X5712500Y-13921071D01*
X5698214Y-13906786D01*
X5669643Y-13892500D01*
X5612500Y-13892500D01*
X5583928Y-13906786D01*
X5569643Y-13921071D01*
X5555357Y-13949643D01*
X5826786Y-13778214D02*
X6012500Y-13778214D01*
X5912500Y-13892500D01*
X5955357Y-13892500D01*
X5983928Y-13906786D01*
X5998214Y-13921071D01*
X6012500Y-13949643D01*
X6012500Y-14021071D01*
X5998214Y-14049643D01*
X5983928Y-14063929D01*
X5955357Y-14078214D01*
X5869643Y-14078214D01*
X5841071Y-14063929D01*
X5826786Y-14049643D01*
X6126786Y-13778214D02*
X6126786Y-13835357D01*
X6241071Y-13778214D02*
X6241071Y-13835357D01*
X6683928Y-14192500D02*
X6669643Y-14178214D01*
X6641071Y-14135357D01*
X6626786Y-14106786D01*
X6612500Y-14063929D01*
X6598214Y-13992500D01*
X6598214Y-13935357D01*
X6612500Y-13863929D01*
X6626786Y-13821071D01*
X6641071Y-13792500D01*
X6669643Y-13749643D01*
X6683928Y-13735357D01*
X6769643Y-13778214D02*
X6955357Y-13778214D01*
X6855357Y-13892500D01*
X6898214Y-13892500D01*
X6926786Y-13906786D01*
X6941071Y-13921071D01*
X6955357Y-13949643D01*
X6955357Y-14021071D01*
X6941071Y-14049643D01*
X6926786Y-14063929D01*
X6898214Y-14078214D01*
X6812500Y-14078214D01*
X6783928Y-14063929D01*
X6769643Y-14049643D01*
X7312500Y-14078214D02*
X7312500Y-13778214D01*
X7441071Y-14078214D02*
X7441071Y-13921071D01*
X7426786Y-13892500D01*
X7398214Y-13878214D01*
X7355357Y-13878214D01*
X7326786Y-13892500D01*
X7312500Y-13906786D01*
X7626786Y-14078214D02*
X7598214Y-14063929D01*
X7583928Y-14049643D01*
X7569643Y-14021071D01*
X7569643Y-13935357D01*
X7583928Y-13906786D01*
X7598214Y-13892500D01*
X7626786Y-13878214D01*
X7669643Y-13878214D01*
X7698214Y-13892500D01*
X7712500Y-13906786D01*
X7726786Y-13935357D01*
X7726786Y-14021071D01*
X7712500Y-14049643D01*
X7698214Y-14063929D01*
X7669643Y-14078214D01*
X7626786Y-14078214D01*
X7898214Y-14078214D02*
X7869643Y-14063929D01*
X7855357Y-14035357D01*
X7855357Y-13778214D01*
X8126786Y-14063929D02*
X8098214Y-14078214D01*
X8041071Y-14078214D01*
X8012500Y-14063929D01*
X7998214Y-14035357D01*
X7998214Y-13921071D01*
X8012500Y-13892500D01*
X8041071Y-13878214D01*
X8098214Y-13878214D01*
X8126786Y-13892500D01*
X8141071Y-13921071D01*
X8141071Y-13949643D01*
X7998214Y-13978214D01*
X8255357Y-14063929D02*
X8283928Y-14078214D01*
X8341071Y-14078214D01*
X8369643Y-14063929D01*
X8383928Y-14035357D01*
X8383928Y-14021071D01*
X8369643Y-13992500D01*
X8341071Y-13978214D01*
X8298214Y-13978214D01*
X8269643Y-13963929D01*
X8255357Y-13935357D01*
X8255357Y-13921071D01*
X8269643Y-13892500D01*
X8298214Y-13878214D01*
X8341071Y-13878214D01*
X8369643Y-13892500D01*
X8483928Y-14192500D02*
X8498214Y-14178214D01*
X8526786Y-14135357D01*
X8541071Y-14106786D01*
X8555357Y-14063929D01*
X8569643Y-13992500D01*
X8569643Y-13935357D01*
X8555357Y-13863929D01*
X8541071Y-13821071D01*
X8526786Y-13792500D01*
X8498214Y-13749643D01*
X8483928Y-13735357D01*
M02*
