G04 #@! TF.GenerationSoftware,KiCad,Pcbnew,(5.1.4-0-10_14)*
G04 #@! TF.CreationDate,2019-12-08T14:58:00+00:00*
G04 #@! TF.ProjectId,LED_cube_with_74HCT595,4c45445f-6375-4626-955f-776974685f37,rev?*
G04 #@! TF.SameCoordinates,Original*
G04 #@! TF.FileFunction,Copper,L1,Top*
G04 #@! TF.FilePolarity,Positive*
%FSLAX46Y46*%
G04 Gerber Fmt 4.6, Leading zero omitted, Abs format (unit mm)*
G04 Created by KiCad (PCBNEW (5.1.4-0-10_14)) date 2019-12-08 14:58:00*
%MOMM*%
%LPD*%
G04 APERTURE LIST*
%ADD10C,1.200000*%
%ADD11R,1.200000X1.200000*%
%ADD12O,1.600000X1.600000*%
%ADD13R,1.600000X1.600000*%
%ADD14O,1.600000X2.400000*%
%ADD15R,1.600000X2.400000*%
%ADD16O,1.350000X1.350000*%
%ADD17R,1.350000X1.350000*%
%ADD18O,1.050000X1.500000*%
%ADD19R,1.050000X1.500000*%
%ADD20C,1.400000*%
%ADD21O,1.400000X1.400000*%
%ADD22R,2.600000X2.600000*%
%ADD23C,2.600000*%
%ADD24C,0.800000*%
%ADD25C,0.250000*%
G04 APERTURE END LIST*
D10*
X83000000Y-92000000D03*
D11*
X81000000Y-92000000D03*
D12*
X31760000Y-63000000D03*
X47000000Y-63000000D03*
X31760000Y-98560000D03*
X47000000Y-65540000D03*
X31760000Y-96020000D03*
X47000000Y-68080000D03*
X31760000Y-93480000D03*
X47000000Y-70620000D03*
X31760000Y-90940000D03*
X47000000Y-73160000D03*
X31760000Y-88400000D03*
X47000000Y-75700000D03*
X31760000Y-85860000D03*
X47000000Y-78240000D03*
X31760000Y-83320000D03*
X47000000Y-80780000D03*
X31760000Y-80780000D03*
X47000000Y-83320000D03*
X31760000Y-78240000D03*
X47000000Y-85860000D03*
X31760000Y-75700000D03*
X47000000Y-88400000D03*
X31760000Y-73160000D03*
X47000000Y-90940000D03*
X31760000Y-70620000D03*
X47000000Y-93480000D03*
X31760000Y-68080000D03*
X47000000Y-96020000D03*
X31760000Y-65540000D03*
D13*
X47000000Y-98560000D03*
D14*
X200000000Y-51620000D03*
X182220000Y-44000000D03*
X197460000Y-51620000D03*
X184760000Y-44000000D03*
X194920000Y-51620000D03*
X187300000Y-44000000D03*
X192380000Y-51620000D03*
X189840000Y-44000000D03*
X189840000Y-51620000D03*
X192380000Y-44000000D03*
X187300000Y-51620000D03*
X194920000Y-44000000D03*
X184760000Y-51620000D03*
X197460000Y-44000000D03*
X182220000Y-51620000D03*
D15*
X200000000Y-44000000D03*
D14*
X161000000Y-51620000D03*
X143220000Y-44000000D03*
X158460000Y-51620000D03*
X145760000Y-44000000D03*
X155920000Y-51620000D03*
X148300000Y-44000000D03*
X153380000Y-51620000D03*
X150840000Y-44000000D03*
X150840000Y-51620000D03*
X153380000Y-44000000D03*
X148300000Y-51620000D03*
X155920000Y-44000000D03*
X145760000Y-51620000D03*
X158460000Y-44000000D03*
X143220000Y-51620000D03*
D15*
X161000000Y-44000000D03*
X101000000Y-74000000D03*
D14*
X118780000Y-66380000D03*
X103540000Y-74000000D03*
X116240000Y-66380000D03*
X106080000Y-74000000D03*
X113700000Y-66380000D03*
X108620000Y-74000000D03*
X111160000Y-66380000D03*
X111160000Y-74000000D03*
X108620000Y-66380000D03*
X113700000Y-74000000D03*
X106080000Y-66380000D03*
X116240000Y-74000000D03*
X103540000Y-66380000D03*
X118780000Y-74000000D03*
X101000000Y-66380000D03*
X143000000Y-66380000D03*
X160780000Y-74000000D03*
X145540000Y-66380000D03*
X158240000Y-74000000D03*
X148080000Y-66380000D03*
X155700000Y-74000000D03*
X150620000Y-66380000D03*
X153160000Y-74000000D03*
X153160000Y-66380000D03*
X150620000Y-74000000D03*
X155700000Y-66380000D03*
X148080000Y-74000000D03*
X158240000Y-66380000D03*
X145540000Y-74000000D03*
X160780000Y-66380000D03*
D15*
X143000000Y-74000000D03*
D16*
X27000000Y-28000000D03*
X29000000Y-28000000D03*
X31000000Y-28000000D03*
X33000000Y-28000000D03*
X35000000Y-28000000D03*
X37000000Y-28000000D03*
X39000000Y-28000000D03*
D17*
X41000000Y-28000000D03*
X105000000Y-91000000D03*
D16*
X107000000Y-91000000D03*
X109000000Y-91000000D03*
X111000000Y-91000000D03*
X113000000Y-91000000D03*
X115000000Y-91000000D03*
X117000000Y-91000000D03*
X119000000Y-91000000D03*
D17*
X79000000Y-28000000D03*
D16*
X77000000Y-28000000D03*
X75000000Y-28000000D03*
X73000000Y-28000000D03*
X71000000Y-28000000D03*
X69000000Y-28000000D03*
X67000000Y-28000000D03*
X65000000Y-28000000D03*
X161000000Y-91000000D03*
X159000000Y-91000000D03*
X157000000Y-91000000D03*
X155000000Y-91000000D03*
X153000000Y-91000000D03*
X151000000Y-91000000D03*
X149000000Y-91000000D03*
D17*
X147000000Y-91000000D03*
D16*
X103000000Y-28000000D03*
X105000000Y-28000000D03*
X107000000Y-28000000D03*
X109000000Y-28000000D03*
X111000000Y-28000000D03*
X113000000Y-28000000D03*
X115000000Y-28000000D03*
D17*
X117000000Y-28000000D03*
D16*
X200000000Y-91000000D03*
X198000000Y-91000000D03*
X196000000Y-91000000D03*
X194000000Y-91000000D03*
X192000000Y-91000000D03*
X190000000Y-91000000D03*
X188000000Y-91000000D03*
D17*
X186000000Y-91000000D03*
D16*
X53000000Y-91000000D03*
X53000000Y-89000000D03*
X53000000Y-87000000D03*
X53000000Y-85000000D03*
X53000000Y-83000000D03*
X53000000Y-81000000D03*
X53000000Y-79000000D03*
D17*
X53000000Y-77000000D03*
X157000000Y-28000000D03*
D16*
X155000000Y-28000000D03*
X153000000Y-28000000D03*
X151000000Y-28000000D03*
X149000000Y-28000000D03*
X147000000Y-28000000D03*
X145000000Y-28000000D03*
X143000000Y-28000000D03*
D17*
X196000000Y-28000000D03*
D16*
X194000000Y-28000000D03*
X192000000Y-28000000D03*
X190000000Y-28000000D03*
X188000000Y-28000000D03*
X186000000Y-28000000D03*
X184000000Y-28000000D03*
X182000000Y-28000000D03*
D18*
X55270000Y-64000000D03*
X56540000Y-64000000D03*
D19*
X54000000Y-64000000D03*
X57000000Y-79000000D03*
D18*
X59540000Y-79000000D03*
X58270000Y-79000000D03*
X72270000Y-81000000D03*
X73540000Y-81000000D03*
D19*
X71000000Y-81000000D03*
X84730000Y-81000000D03*
D18*
X87270000Y-81000000D03*
X86000000Y-81000000D03*
X55270000Y-71000000D03*
X56540000Y-71000000D03*
D19*
X54000000Y-71000000D03*
D18*
X65270000Y-81000000D03*
X66540000Y-81000000D03*
D19*
X64000000Y-81000000D03*
D18*
X79270000Y-81000000D03*
X80540000Y-81000000D03*
D19*
X78000000Y-81000000D03*
X92000000Y-81000000D03*
D18*
X94540000Y-81000000D03*
X93270000Y-81000000D03*
D20*
X48000000Y-33000000D03*
D21*
X48000000Y-38080000D03*
X45000000Y-38080000D03*
D20*
X45000000Y-33000000D03*
D21*
X119000000Y-78920000D03*
D20*
X119000000Y-84000000D03*
X42000000Y-33000000D03*
D21*
X42000000Y-38080000D03*
D20*
X116000000Y-84000000D03*
D21*
X116000000Y-78920000D03*
X39000000Y-38080000D03*
D20*
X39000000Y-33000000D03*
D21*
X113000000Y-78920000D03*
D20*
X113000000Y-84000000D03*
X36000000Y-33000000D03*
D21*
X36000000Y-38080000D03*
D20*
X110000000Y-84000000D03*
D21*
X110000000Y-78920000D03*
X33000000Y-38080000D03*
D20*
X33000000Y-33000000D03*
D21*
X107000000Y-78920000D03*
D20*
X107000000Y-84000000D03*
X30000000Y-33000000D03*
D21*
X30000000Y-38080000D03*
D20*
X104000000Y-84000000D03*
D21*
X104000000Y-78920000D03*
X27000000Y-38080000D03*
D20*
X27000000Y-33000000D03*
D21*
X101000000Y-78920000D03*
D20*
X101000000Y-84000000D03*
D21*
X98000000Y-78920000D03*
D20*
X98000000Y-84000000D03*
D21*
X86000000Y-38000000D03*
D20*
X86000000Y-32920000D03*
X83000000Y-33000000D03*
D21*
X83000000Y-38080000D03*
D20*
X161000000Y-85000000D03*
D21*
X161000000Y-79920000D03*
X80000000Y-38080000D03*
D20*
X80000000Y-33000000D03*
D21*
X158000000Y-79920000D03*
D20*
X158000000Y-85000000D03*
X77000000Y-33000000D03*
D21*
X77000000Y-38080000D03*
D20*
X155000000Y-85000000D03*
D21*
X155000000Y-79920000D03*
X74000000Y-38080000D03*
D20*
X74000000Y-33000000D03*
D21*
X152000000Y-79920000D03*
D20*
X152000000Y-85000000D03*
X71000000Y-33000000D03*
D21*
X71000000Y-38080000D03*
D20*
X149000000Y-85000000D03*
D21*
X149000000Y-79920000D03*
X68000000Y-38080000D03*
D20*
X68000000Y-33000000D03*
D21*
X146000000Y-79920000D03*
D20*
X146000000Y-85000000D03*
X65000000Y-33000000D03*
D21*
X65000000Y-38080000D03*
D20*
X143000000Y-85000000D03*
D21*
X143000000Y-79920000D03*
X140000000Y-79920000D03*
D20*
X140000000Y-85000000D03*
X124000000Y-33000000D03*
D21*
X124000000Y-38080000D03*
X121000000Y-38080000D03*
D20*
X121000000Y-33000000D03*
D21*
X200000000Y-79920000D03*
D20*
X200000000Y-85000000D03*
X118000000Y-33000000D03*
D21*
X118000000Y-38080000D03*
D20*
X197000000Y-85000000D03*
D21*
X197000000Y-79920000D03*
X115000000Y-38080000D03*
D20*
X115000000Y-33000000D03*
D21*
X194000000Y-79920000D03*
D20*
X194000000Y-85000000D03*
X112000000Y-33000000D03*
D21*
X112000000Y-38080000D03*
D20*
X191000000Y-85000000D03*
D21*
X191000000Y-79920000D03*
X109000000Y-38080000D03*
D20*
X109000000Y-33000000D03*
D21*
X188000000Y-79920000D03*
D20*
X188000000Y-85000000D03*
X106000000Y-33000000D03*
D21*
X106000000Y-38080000D03*
D20*
X185000000Y-85000000D03*
D21*
X185000000Y-79920000D03*
X103000000Y-38080000D03*
D20*
X103000000Y-33000000D03*
D21*
X182000000Y-79920000D03*
D20*
X182000000Y-85000000D03*
X179000000Y-85000000D03*
D21*
X179000000Y-79920000D03*
X164000000Y-38000000D03*
D20*
X164000000Y-32920000D03*
X161000000Y-33000000D03*
D21*
X161000000Y-38080000D03*
D20*
X179000000Y-33000000D03*
D21*
X179000000Y-38080000D03*
X158000000Y-38080000D03*
D20*
X158000000Y-33000000D03*
D21*
X182000000Y-38080000D03*
D20*
X182000000Y-33000000D03*
X155000000Y-33000000D03*
D21*
X155000000Y-38080000D03*
D20*
X185000000Y-33000000D03*
D21*
X185000000Y-38080000D03*
X152000000Y-38080000D03*
D20*
X152000000Y-33000000D03*
D21*
X188000000Y-38080000D03*
D20*
X188000000Y-33000000D03*
X149000000Y-33000000D03*
D21*
X149000000Y-38080000D03*
D20*
X191000000Y-33000000D03*
D21*
X191000000Y-38080000D03*
X146000000Y-38080000D03*
D20*
X146000000Y-33000000D03*
X194000000Y-33000000D03*
D21*
X194000000Y-38080000D03*
D20*
X143000000Y-33000000D03*
D21*
X143000000Y-38080000D03*
X197000000Y-38080000D03*
D20*
X197000000Y-33000000D03*
X200000000Y-33000000D03*
D21*
X200000000Y-38080000D03*
D14*
X45000000Y-51620000D03*
X27220000Y-44000000D03*
X42460000Y-51620000D03*
X29760000Y-44000000D03*
X39920000Y-51620000D03*
X32300000Y-44000000D03*
X37380000Y-51620000D03*
X34840000Y-44000000D03*
X34840000Y-51620000D03*
X37380000Y-44000000D03*
X32300000Y-51620000D03*
X39920000Y-44000000D03*
X29760000Y-51620000D03*
X42460000Y-44000000D03*
X27220000Y-51620000D03*
D15*
X45000000Y-44000000D03*
X63000000Y-74620000D03*
D14*
X80780000Y-67000000D03*
X65540000Y-74620000D03*
X78240000Y-67000000D03*
X68080000Y-74620000D03*
X75700000Y-67000000D03*
X70620000Y-74620000D03*
X73160000Y-67000000D03*
X73160000Y-74620000D03*
X70620000Y-67000000D03*
X75700000Y-74620000D03*
X68080000Y-67000000D03*
X78240000Y-74620000D03*
X65540000Y-67000000D03*
X80780000Y-74620000D03*
X63000000Y-67000000D03*
X83000000Y-51620000D03*
X65220000Y-44000000D03*
X80460000Y-51620000D03*
X67760000Y-44000000D03*
X77920000Y-51620000D03*
X70300000Y-44000000D03*
X75380000Y-51620000D03*
X72840000Y-44000000D03*
X72840000Y-51620000D03*
X75380000Y-44000000D03*
X70300000Y-51620000D03*
X77920000Y-44000000D03*
X67760000Y-51620000D03*
X80460000Y-44000000D03*
X65220000Y-51620000D03*
D15*
X83000000Y-44000000D03*
X121000000Y-44000000D03*
D14*
X103220000Y-51620000D03*
X118460000Y-44000000D03*
X105760000Y-51620000D03*
X115920000Y-44000000D03*
X108300000Y-51620000D03*
X113380000Y-44000000D03*
X110840000Y-51620000D03*
X110840000Y-44000000D03*
X113380000Y-51620000D03*
X108300000Y-44000000D03*
X115920000Y-51620000D03*
X105760000Y-44000000D03*
X118460000Y-51620000D03*
X103220000Y-44000000D03*
X121000000Y-51620000D03*
D15*
X182000000Y-74000000D03*
D14*
X199780000Y-66380000D03*
X184540000Y-74000000D03*
X197240000Y-66380000D03*
X187080000Y-74000000D03*
X194700000Y-66380000D03*
X189620000Y-74000000D03*
X192160000Y-66380000D03*
X192160000Y-74000000D03*
X189620000Y-66380000D03*
X194700000Y-74000000D03*
X187080000Y-66380000D03*
X197240000Y-74000000D03*
X184540000Y-66380000D03*
X199780000Y-74000000D03*
X182000000Y-66380000D03*
D22*
X93000000Y-97000000D03*
D23*
X93000000Y-103000000D03*
X97700000Y-100000000D03*
D10*
X54000000Y-52000000D03*
D11*
X52000000Y-52000000D03*
X125000000Y-66000000D03*
D10*
X127000000Y-66000000D03*
D11*
X87000000Y-66000000D03*
D10*
X89000000Y-66000000D03*
X89000000Y-52000000D03*
D11*
X87000000Y-52000000D03*
X165000000Y-66000000D03*
D10*
X167000000Y-66000000D03*
X127000000Y-52000000D03*
D11*
X125000000Y-52000000D03*
X175000000Y-66000000D03*
D10*
X177000000Y-66000000D03*
X167000000Y-52000000D03*
D11*
X165000000Y-52000000D03*
X175000000Y-52000000D03*
D10*
X177000000Y-52000000D03*
D24*
X47000000Y-60000000D03*
X79000000Y-60000000D03*
X66000000Y-60000000D03*
X101000000Y-60000000D03*
X121000000Y-60000000D03*
X142000000Y-60000000D03*
X163000000Y-60000000D03*
X180000000Y-60000000D03*
X200000000Y-60000000D03*
X34000000Y-60000000D03*
X54000000Y-60000000D03*
X73000000Y-57000000D03*
X47000000Y-59000000D03*
X70000000Y-59000000D03*
X76000000Y-59000000D03*
X108000000Y-59000000D03*
X114000000Y-59000000D03*
X156000000Y-59000000D03*
X148000000Y-59000000D03*
X188000000Y-59000000D03*
X187000000Y-59000000D03*
X195000000Y-59000000D03*
X47000000Y-58000000D03*
X68000000Y-58000000D03*
X78000000Y-58000000D03*
X106000000Y-58000000D03*
X116000000Y-58000000D03*
X158000000Y-58000000D03*
X146000000Y-58000000D03*
X197000000Y-58000000D03*
X185000000Y-58000000D03*
X47000000Y-57000000D03*
X111000000Y-57000000D03*
X150000000Y-57000000D03*
X153000000Y-57000000D03*
X192000000Y-57000000D03*
X47000000Y-56000000D03*
X75000000Y-56000000D03*
X71000000Y-56000000D03*
X113000000Y-56000000D03*
X109000000Y-56000000D03*
X153000000Y-56000000D03*
X151000000Y-56000000D03*
X193000000Y-56000000D03*
X190000000Y-56000000D03*
X47000000Y-61000000D03*
X83000000Y-61000000D03*
X120000000Y-61000000D03*
X101000000Y-61000000D03*
X143000000Y-61000000D03*
X161000000Y-61000000D03*
X182000000Y-61000000D03*
X63000000Y-61000000D03*
X52000000Y-61000000D03*
D25*
X118780000Y-74000000D02*
X118780000Y-73600000D01*
X47000000Y-60000000D02*
X54000000Y-60000000D01*
X66000000Y-60000000D02*
X79000000Y-60000000D01*
X79000000Y-60000000D02*
X101000000Y-60000000D01*
X101000000Y-60000000D02*
X121000000Y-60000000D01*
X121000000Y-60000000D02*
X142000000Y-60000000D01*
X142000000Y-60000000D02*
X163000000Y-60000000D01*
X163000000Y-60000000D02*
X180000000Y-60000000D01*
X180000000Y-60000000D02*
X200000000Y-60000000D01*
X31219999Y-92065001D02*
X30000000Y-90845002D01*
X45874999Y-92065001D02*
X31219999Y-92065001D01*
X47000000Y-90940000D02*
X45874999Y-92065001D01*
X33094998Y-60000000D02*
X34000000Y-60000000D01*
X30000000Y-63094998D02*
X33094998Y-60000000D01*
X30000000Y-90845002D02*
X30000000Y-63094998D01*
X66000000Y-60000000D02*
X54000000Y-60000000D01*
X53060000Y-97000000D02*
X71000000Y-97000000D01*
X53060000Y-97000000D02*
X93000000Y-97000000D01*
X47000000Y-90940000D02*
X53060000Y-97000000D01*
X81830000Y-74620000D02*
X80780000Y-74620000D01*
X89587095Y-74620000D02*
X81830000Y-74620000D01*
X95390010Y-80422915D02*
X89587095Y-74620000D01*
X95390010Y-93059990D02*
X95390010Y-80422915D01*
X93000000Y-95450000D02*
X95390010Y-93059990D01*
X93000000Y-97000000D02*
X93000000Y-95450000D01*
X72034990Y-75809990D02*
X77225000Y-81000000D01*
X72034990Y-73754006D02*
X72034990Y-75809990D01*
X77225000Y-81000000D02*
X78000000Y-81000000D01*
X72694006Y-73094990D02*
X72034990Y-73754006D01*
X79654990Y-73094990D02*
X72694006Y-73094990D01*
X80780000Y-74220000D02*
X79654990Y-73094990D01*
X80780000Y-74620000D02*
X80780000Y-74220000D01*
X54000000Y-42562998D02*
X54000000Y-51151472D01*
X48492001Y-37054999D02*
X54000000Y-42562998D01*
X46974999Y-37587999D02*
X47507999Y-37054999D01*
X46974999Y-46068591D02*
X46974999Y-37587999D01*
X54000000Y-51151472D02*
X54000000Y-52000000D01*
X47507999Y-37054999D02*
X48492001Y-37054999D01*
X32914990Y-50094990D02*
X42948600Y-50094990D01*
X27220000Y-44400000D02*
X32914990Y-50094990D01*
X42948600Y-50094990D02*
X46974999Y-46068591D01*
X27220000Y-44000000D02*
X27220000Y-44400000D01*
X65220000Y-45450000D02*
X65220000Y-44000000D01*
X64094990Y-52485994D02*
X64094990Y-46575010D01*
X64094990Y-46575010D02*
X65220000Y-45450000D01*
X64754006Y-53145010D02*
X64094990Y-52485994D01*
X65685994Y-53145010D02*
X64754006Y-53145010D01*
X66345010Y-50754006D02*
X66345010Y-52485994D01*
X66345010Y-52485994D02*
X65685994Y-53145010D01*
X67099016Y-50000000D02*
X66345010Y-50754006D01*
X87000000Y-50000000D02*
X67099016Y-50000000D01*
X89000000Y-52000000D02*
X87000000Y-50000000D01*
X200905010Y-71424990D02*
X199780000Y-72550000D01*
X200245994Y-64854990D02*
X200905010Y-65514006D01*
X200905010Y-65514006D02*
X200905010Y-71424990D01*
X199314006Y-64854990D02*
X200245994Y-64854990D01*
X198365010Y-65803986D02*
X199314006Y-64854990D01*
X198365010Y-67245994D02*
X198365010Y-65803986D01*
X199780000Y-72550000D02*
X199780000Y-74000000D01*
X197611004Y-68000000D02*
X198365010Y-67245994D01*
X179000000Y-68000000D02*
X197611004Y-68000000D01*
X177000000Y-66000000D02*
X179000000Y-68000000D01*
X83000000Y-92000000D02*
X83000000Y-97000000D01*
X39920000Y-51220000D02*
X39920000Y-51620000D01*
X39920000Y-52020000D02*
X39920000Y-51620000D01*
X47000000Y-88400000D02*
X44400000Y-88400000D01*
X39920000Y-83920000D02*
X39920000Y-51620000D01*
X44400000Y-88400000D02*
X39920000Y-83920000D01*
X47000000Y-59000000D02*
X70000000Y-59000000D01*
X70000000Y-59000000D02*
X76000000Y-59000000D01*
X76000000Y-59000000D02*
X108000000Y-59000000D01*
X108000000Y-59000000D02*
X114000000Y-59000000D01*
X114000000Y-59000000D02*
X148000000Y-59000000D01*
X156000000Y-59000000D02*
X187000000Y-59000000D01*
X148000000Y-59000000D02*
X156000000Y-59000000D01*
X188000000Y-59000000D02*
X195000000Y-59000000D01*
X187000000Y-59000000D02*
X188000000Y-59000000D01*
X47000000Y-58000000D02*
X68000000Y-58000000D01*
X68000000Y-58000000D02*
X78000000Y-58000000D01*
X78000000Y-58000000D02*
X106000000Y-58000000D01*
X106000000Y-58000000D02*
X116000000Y-58000000D01*
X116000000Y-58000000D02*
X146000000Y-58000000D01*
X158000000Y-58000000D02*
X185000000Y-58000000D01*
X146000000Y-58000000D02*
X158000000Y-58000000D01*
X185000000Y-58000000D02*
X197000000Y-58000000D01*
X47000000Y-57000000D02*
X111000000Y-57000000D01*
X111000000Y-57000000D02*
X150000000Y-57000000D01*
X150000000Y-57000000D02*
X153000000Y-57000000D01*
X153000000Y-57000000D02*
X192000000Y-57000000D01*
X47000000Y-56000000D02*
X71000000Y-56000000D01*
X75000000Y-56000000D02*
X109000000Y-56000000D01*
X71000000Y-56000000D02*
X75000000Y-56000000D01*
X113000000Y-56000000D02*
X151000000Y-56000000D01*
X109000000Y-56000000D02*
X113000000Y-56000000D01*
X153000000Y-56000000D02*
X190000000Y-56000000D01*
X151000000Y-56000000D02*
X153000000Y-56000000D01*
X190000000Y-56000000D02*
X193000000Y-56000000D01*
X45000000Y-52020000D02*
X45000000Y-51620000D01*
X135000000Y-61000000D02*
X120000000Y-61000000D01*
X135000000Y-61000000D02*
X143000000Y-61000000D01*
X47000000Y-61000000D02*
X52000000Y-61000000D01*
X83000000Y-61000000D02*
X101000000Y-61000000D01*
X63000000Y-61000000D02*
X83000000Y-61000000D01*
X120000000Y-61000000D02*
X113000000Y-61000000D01*
X101000000Y-61000000D02*
X135000000Y-61000000D01*
X143000000Y-61000000D02*
X161000000Y-61000000D01*
X161000000Y-61000000D02*
X182000000Y-61000000D01*
X46434315Y-61000000D02*
X47000000Y-61000000D01*
X45000000Y-59565685D02*
X46434315Y-61000000D01*
X45000000Y-51620000D02*
X45000000Y-59565685D01*
X200000000Y-53070000D02*
X200000000Y-51620000D01*
X200725001Y-53795001D02*
X200000000Y-53070000D01*
X200725001Y-60348001D02*
X200725001Y-53795001D01*
X200073002Y-61000000D02*
X200725001Y-60348001D01*
X182000000Y-61000000D02*
X200073002Y-61000000D01*
X71000000Y-103000000D02*
X36200000Y-103000000D01*
X36200000Y-103000000D02*
X31760000Y-98560000D01*
X93000000Y-103000000D02*
X36200000Y-103000000D01*
X52000000Y-61000000D02*
X63000000Y-61000000D01*
X45380000Y-52000000D02*
X45000000Y-51620000D01*
X52000000Y-52000000D02*
X45380000Y-52000000D01*
X86620000Y-51620000D02*
X87000000Y-52000000D01*
X83000000Y-51620000D02*
X86620000Y-51620000D01*
X198874990Y-53145010D02*
X200000000Y-52020000D01*
X200000000Y-52020000D02*
X200000000Y-51620000D01*
X175295010Y-53145010D02*
X198874990Y-53145010D01*
X175000000Y-52850000D02*
X175295010Y-53145010D01*
X175000000Y-52000000D02*
X175000000Y-52850000D01*
X180020000Y-64000000D02*
X182000000Y-65980000D01*
X182000000Y-65980000D02*
X182000000Y-66380000D01*
X177000000Y-64000000D02*
X180020000Y-64000000D01*
X175000000Y-66000000D02*
X177000000Y-64000000D01*
X144125010Y-64854990D02*
X143000000Y-65980000D01*
X153625994Y-64854990D02*
X144125010Y-64854990D01*
X143000000Y-65980000D02*
X143000000Y-66380000D01*
X154285010Y-66956014D02*
X154285010Y-65514006D01*
X155234006Y-67905010D02*
X154285010Y-66956014D01*
X161245994Y-67905010D02*
X155234006Y-67905010D01*
X163151004Y-66000000D02*
X161245994Y-67905010D01*
X154285010Y-65514006D02*
X153625994Y-64854990D01*
X165000000Y-66000000D02*
X163151004Y-66000000D01*
X64125010Y-68525010D02*
X63000000Y-67400000D01*
X63000000Y-67400000D02*
X63000000Y-67000000D01*
X83624990Y-68525010D02*
X64125010Y-68525010D01*
X86150000Y-66000000D02*
X83624990Y-68525010D01*
X87000000Y-66000000D02*
X86150000Y-66000000D01*
X43000000Y-28000000D02*
X48000000Y-33000000D01*
X41000000Y-28000000D02*
X43000000Y-28000000D01*
X44000000Y-33000000D02*
X45000000Y-33000000D01*
X39000000Y-28000000D02*
X44000000Y-33000000D01*
X37000000Y-28000000D02*
X42000000Y-33000000D01*
X35000000Y-29000000D02*
X39000000Y-33000000D01*
X35000000Y-28000000D02*
X35000000Y-29000000D01*
X33000000Y-30000000D02*
X36000000Y-33000000D01*
X33000000Y-28000000D02*
X33000000Y-30000000D01*
X31000000Y-28000000D02*
X31000000Y-29000000D01*
X33000000Y-31000000D02*
X33000000Y-33000000D01*
X31000000Y-29000000D02*
X33000000Y-31000000D01*
X29000000Y-32000000D02*
X30000000Y-33000000D01*
X29000000Y-28000000D02*
X29000000Y-32000000D01*
X27000000Y-28000000D02*
X27000000Y-33000000D01*
X119000000Y-91000000D02*
X119000000Y-84000000D01*
X116000000Y-90000000D02*
X117000000Y-91000000D01*
X116000000Y-84000000D02*
X116000000Y-90000000D01*
X113000000Y-89000000D02*
X115000000Y-91000000D01*
X113000000Y-84000000D02*
X113000000Y-89000000D01*
X110000000Y-88000000D02*
X113000000Y-91000000D01*
X110000000Y-84000000D02*
X110000000Y-88000000D01*
X107000000Y-87000000D02*
X111000000Y-91000000D01*
X107000000Y-84000000D02*
X107000000Y-87000000D01*
X104000000Y-86000000D02*
X109000000Y-91000000D01*
X104000000Y-84000000D02*
X104000000Y-86000000D01*
X101000000Y-85000000D02*
X107000000Y-91000000D01*
X101000000Y-84000000D02*
X101000000Y-85000000D01*
X98000000Y-84000000D02*
X105000000Y-91000000D01*
X65000000Y-33000000D02*
X65000000Y-28000000D01*
X67000000Y-28000000D02*
X67000000Y-30000000D01*
X68000000Y-31000000D02*
X68000000Y-33000000D01*
X67000000Y-30000000D02*
X68000000Y-31000000D01*
X69000000Y-28000000D02*
X69000000Y-29000000D01*
X71000000Y-31000000D02*
X71000000Y-33000000D01*
X69000000Y-29000000D02*
X71000000Y-31000000D01*
X71000000Y-28000000D02*
X71000000Y-29000000D01*
X74000000Y-32000000D02*
X74000000Y-33000000D01*
X71000000Y-29000000D02*
X74000000Y-32000000D01*
X73000000Y-29000000D02*
X77000000Y-33000000D01*
X73000000Y-28000000D02*
X73000000Y-29000000D01*
X75000000Y-28000000D02*
X80000000Y-33000000D01*
X77000000Y-28000000D02*
X80000000Y-31000000D01*
X81000000Y-31000000D02*
X83000000Y-33000000D01*
X80000000Y-31000000D02*
X81000000Y-31000000D01*
X81080000Y-28000000D02*
X86000000Y-32920000D01*
X79000000Y-28000000D02*
X81080000Y-28000000D01*
X146000000Y-91000000D02*
X140000000Y-85000000D01*
X147000000Y-91000000D02*
X146000000Y-91000000D01*
X149000000Y-91000000D02*
X143000000Y-85000000D01*
X151000000Y-90000000D02*
X151000000Y-91000000D01*
X146000000Y-85000000D02*
X151000000Y-90000000D01*
X149000000Y-87000000D02*
X153000000Y-91000000D01*
X149000000Y-85000000D02*
X149000000Y-87000000D01*
X152000000Y-88000000D02*
X155000000Y-91000000D01*
X152000000Y-85000000D02*
X152000000Y-88000000D01*
X155000000Y-89000000D02*
X157000000Y-91000000D01*
X155000000Y-85000000D02*
X155000000Y-89000000D01*
X158000000Y-90000000D02*
X159000000Y-91000000D01*
X158000000Y-85000000D02*
X158000000Y-90000000D01*
X161000000Y-85000000D02*
X161000000Y-91000000D01*
X117000000Y-28000000D02*
X119000000Y-30000000D01*
X121000000Y-30000000D02*
X124000000Y-33000000D01*
X119000000Y-30000000D02*
X121000000Y-30000000D01*
X115000000Y-28000000D02*
X118000000Y-31000000D01*
X119000000Y-31000000D02*
X121000000Y-33000000D01*
X118000000Y-31000000D02*
X119000000Y-31000000D01*
X113000000Y-28000000D02*
X118000000Y-33000000D01*
X115000000Y-32000000D02*
X115000000Y-33000000D01*
X111000000Y-28000000D02*
X115000000Y-32000000D01*
X109000000Y-28000000D02*
X112000000Y-31000000D01*
X112000000Y-31000000D02*
X112000000Y-33000000D01*
X107000000Y-28000000D02*
X107000000Y-29000000D01*
X109000000Y-31000000D02*
X109000000Y-33000000D01*
X107000000Y-29000000D02*
X109000000Y-31000000D01*
X105000000Y-28000000D02*
X105000000Y-30000000D01*
X106000000Y-31000000D02*
X106000000Y-33000000D01*
X105000000Y-30000000D02*
X106000000Y-31000000D01*
X103000000Y-28000000D02*
X103000000Y-33000000D01*
X185000000Y-91000000D02*
X179000000Y-85000000D01*
X186000000Y-91000000D02*
X185000000Y-91000000D01*
X188000000Y-91000000D02*
X182000000Y-85000000D01*
X190000000Y-91000000D02*
X190000000Y-90000000D01*
X190000000Y-90000000D02*
X185000000Y-85000000D01*
X192000000Y-90000000D02*
X192000000Y-91000000D01*
X188000000Y-86000000D02*
X192000000Y-90000000D01*
X188000000Y-85000000D02*
X188000000Y-86000000D01*
X194000000Y-91000000D02*
X194000000Y-90000000D01*
X191000000Y-87000000D02*
X191000000Y-85000000D01*
X194000000Y-90000000D02*
X191000000Y-87000000D01*
X194000000Y-85000000D02*
X194000000Y-87000000D01*
X194000000Y-87000000D02*
X196000000Y-89000000D01*
X196000000Y-89000000D02*
X196000000Y-91000000D01*
X197000000Y-85000000D02*
X197000000Y-87000000D01*
X198000000Y-91000000D02*
X198000000Y-88000000D01*
X198000000Y-88000000D02*
X197000000Y-87000000D01*
X200000000Y-85000000D02*
X200000000Y-91000000D01*
X56540000Y-64225000D02*
X51000000Y-69765000D01*
X56540000Y-64000000D02*
X56540000Y-64225000D01*
X51000000Y-69765000D02*
X51000000Y-76000000D01*
X52000000Y-77000000D02*
X53000000Y-77000000D01*
X51000000Y-76000000D02*
X52000000Y-77000000D01*
X56540000Y-75460000D02*
X53000000Y-79000000D01*
X56540000Y-71000000D02*
X56540000Y-75460000D01*
X59540000Y-79225000D02*
X57765000Y-81000000D01*
X57765000Y-81000000D02*
X53000000Y-81000000D01*
X59540000Y-79000000D02*
X59540000Y-79225000D01*
X64765000Y-83000000D02*
X53000000Y-83000000D01*
X66540000Y-81225000D02*
X64765000Y-83000000D01*
X66540000Y-81000000D02*
X66540000Y-81225000D01*
X73540000Y-81225000D02*
X69765000Y-85000000D01*
X69765000Y-85000000D02*
X53000000Y-85000000D01*
X73540000Y-81000000D02*
X73540000Y-81225000D01*
X54549990Y-85450010D02*
X53000000Y-87000000D01*
X76314990Y-85450010D02*
X54549990Y-85450010D01*
X80540000Y-81225000D02*
X76314990Y-85450010D01*
X80540000Y-81000000D02*
X80540000Y-81225000D01*
X87270000Y-81225000D02*
X82495000Y-86000000D01*
X87270000Y-81000000D02*
X87270000Y-81225000D01*
X56000000Y-86000000D02*
X53000000Y-89000000D01*
X82495000Y-86000000D02*
X56000000Y-86000000D01*
X94540000Y-81225000D02*
X89314990Y-86450010D01*
X94540000Y-81000000D02*
X94540000Y-81225000D01*
X57549990Y-86450010D02*
X53000000Y-91000000D01*
X89314990Y-86450010D02*
X57549990Y-86450010D01*
X143000000Y-28000000D02*
X143000000Y-33000000D01*
X145000000Y-28000000D02*
X145000000Y-30000000D01*
X146000000Y-31000000D02*
X146000000Y-33000000D01*
X145000000Y-30000000D02*
X146000000Y-31000000D01*
X147000000Y-28000000D02*
X147000000Y-29000000D01*
X149000000Y-31000000D02*
X149000000Y-33000000D01*
X147000000Y-29000000D02*
X149000000Y-31000000D01*
X149000000Y-28000000D02*
X152000000Y-31000000D01*
X152000000Y-31000000D02*
X152000000Y-33000000D01*
X151000000Y-29000000D02*
X155000000Y-33000000D01*
X151000000Y-28000000D02*
X151000000Y-29000000D01*
X153000000Y-28000000D02*
X158000000Y-33000000D01*
X157000000Y-30000000D02*
X158000000Y-30000000D01*
X155000000Y-28000000D02*
X157000000Y-30000000D01*
X158000000Y-30000000D02*
X161000000Y-33000000D01*
X159080000Y-28000000D02*
X164000000Y-32920000D01*
X157000000Y-28000000D02*
X159080000Y-28000000D01*
X179000000Y-31000000D02*
X179000000Y-33000000D01*
X182000000Y-28000000D02*
X179000000Y-31000000D01*
X182000000Y-33000000D02*
X182000000Y-31000000D01*
X182000000Y-31000000D02*
X184000000Y-29000000D01*
X184000000Y-29000000D02*
X184000000Y-28000000D01*
X186000000Y-28000000D02*
X186000000Y-30000000D01*
X186000000Y-30000000D02*
X185000000Y-31000000D01*
X185000000Y-31000000D02*
X185000000Y-33000000D01*
X188000000Y-33000000D02*
X188000000Y-28000000D01*
X190000000Y-28000000D02*
X190000000Y-30000000D01*
X191000000Y-31000000D02*
X191000000Y-33000000D01*
X190000000Y-30000000D02*
X191000000Y-31000000D01*
X194000000Y-33000000D02*
X194000000Y-32000000D01*
X194000000Y-32000000D02*
X192000000Y-30000000D01*
X192000000Y-30000000D02*
X192000000Y-28000000D01*
X194000000Y-29000000D02*
X194000000Y-28000000D01*
X197000000Y-32000000D02*
X194000000Y-29000000D01*
X197000000Y-33000000D02*
X197000000Y-32000000D01*
X196925000Y-28000000D02*
X196000000Y-28000000D01*
X200000000Y-31075000D02*
X196925000Y-28000000D01*
X200000000Y-33000000D02*
X200000000Y-31075000D01*
X65540000Y-67000000D02*
X65540000Y-67400000D01*
X55270000Y-63775000D02*
X55270000Y-64000000D01*
X56120010Y-62924990D02*
X55270000Y-63775000D01*
X61864990Y-62924990D02*
X56120010Y-62924990D01*
X65540000Y-66600000D02*
X61864990Y-62924990D01*
X65540000Y-67000000D02*
X65540000Y-66600000D01*
X58270000Y-78775000D02*
X58270000Y-79000000D01*
X59120010Y-77924990D02*
X58270000Y-78775000D01*
X62635010Y-77924990D02*
X59120010Y-77924990D01*
X65540000Y-75020000D02*
X62635010Y-77924990D01*
X65540000Y-74620000D02*
X65540000Y-75020000D01*
X72270000Y-81000000D02*
X72270000Y-78270000D01*
X70620000Y-76620000D02*
X70620000Y-74620000D01*
X72270000Y-78270000D02*
X70620000Y-76620000D01*
X75700000Y-75020000D02*
X75700000Y-74620000D01*
X75700000Y-75020000D02*
X78680000Y-78000000D01*
X84000000Y-78000000D02*
X86000000Y-80000000D01*
X86000000Y-80000000D02*
X86000000Y-81000000D01*
X78680000Y-78000000D02*
X84000000Y-78000000D01*
X61950000Y-74620000D02*
X63000000Y-74620000D01*
X56120010Y-69924990D02*
X57254990Y-69924990D01*
X57254990Y-69924990D02*
X61950000Y-74620000D01*
X55270000Y-70775000D02*
X56120010Y-69924990D01*
X55270000Y-71000000D02*
X55270000Y-70775000D01*
X68080000Y-75020000D02*
X68000000Y-75100000D01*
X68080000Y-74620000D02*
X68080000Y-75020000D01*
X65270000Y-76881004D02*
X65270000Y-81000000D01*
X67531004Y-74620000D02*
X65270000Y-76881004D01*
X68080000Y-74620000D02*
X67531004Y-74620000D01*
X79270000Y-80409998D02*
X79270000Y-81000000D01*
X74930002Y-76070000D02*
X79270000Y-80409998D01*
X74210000Y-76070000D02*
X74930002Y-76070000D01*
X73160000Y-75020000D02*
X74210000Y-76070000D01*
X73160000Y-74620000D02*
X73160000Y-75020000D01*
X93270000Y-80000000D02*
X93270000Y-81000000D01*
X90819990Y-77549990D02*
X93270000Y-80000000D01*
X80769990Y-77549990D02*
X90819990Y-77549990D01*
X78240000Y-75020000D02*
X80769990Y-77549990D01*
X78240000Y-74620000D02*
X78240000Y-75020000D01*
X42460000Y-51220000D02*
X42460000Y-51620000D01*
X43510000Y-50170000D02*
X42460000Y-51220000D01*
X43910000Y-50170000D02*
X43510000Y-50170000D01*
X48000000Y-46080000D02*
X43910000Y-50170000D01*
X48000000Y-38080000D02*
X48000000Y-46080000D01*
X45000000Y-44000000D02*
X45000000Y-38080000D01*
X116240000Y-76160000D02*
X119000000Y-78920000D01*
X116240000Y-74000000D02*
X116240000Y-76160000D01*
X42460000Y-38540000D02*
X42000000Y-38080000D01*
X42460000Y-44000000D02*
X42460000Y-38540000D01*
X113700000Y-76620000D02*
X116000000Y-78920000D01*
X113700000Y-74000000D02*
X113700000Y-76620000D01*
X39920000Y-42550000D02*
X39000000Y-41630000D01*
X39920000Y-44000000D02*
X39920000Y-42550000D01*
X39000000Y-41630000D02*
X39000000Y-38080000D01*
X111160000Y-77080000D02*
X113000000Y-78920000D01*
X111160000Y-74000000D02*
X111160000Y-77080000D01*
X36000000Y-38080000D02*
X36000000Y-40000000D01*
X37380000Y-41380000D02*
X37380000Y-44000000D01*
X36000000Y-40000000D02*
X37380000Y-41380000D01*
X108620000Y-77540000D02*
X110000000Y-78920000D01*
X108620000Y-74000000D02*
X108620000Y-77540000D01*
X34840000Y-39920000D02*
X33000000Y-38080000D01*
X34840000Y-44000000D02*
X34840000Y-39920000D01*
X106080000Y-78000000D02*
X107000000Y-78920000D01*
X106080000Y-74000000D02*
X106080000Y-78000000D01*
X32300000Y-40380000D02*
X32300000Y-44000000D01*
X30000000Y-38080000D02*
X32300000Y-40380000D01*
X103540000Y-78460000D02*
X104000000Y-78920000D01*
X103540000Y-74000000D02*
X103540000Y-78460000D01*
X29760000Y-40840000D02*
X27000000Y-38080000D01*
X29760000Y-44000000D02*
X29760000Y-40840000D01*
X101000000Y-74000000D02*
X101000000Y-78920000D01*
X102490000Y-67830000D02*
X103540000Y-66780000D01*
X102090000Y-67830000D02*
X102490000Y-67830000D01*
X98000000Y-71920000D02*
X102090000Y-67830000D01*
X103540000Y-66780000D02*
X103540000Y-66380000D01*
X98000000Y-78920000D02*
X98000000Y-71920000D01*
X80460000Y-51220000D02*
X80460000Y-51620000D01*
X83000000Y-38080000D02*
X83000000Y-44000000D01*
X158240000Y-74400000D02*
X158240000Y-74000000D01*
X161000000Y-77160000D02*
X158240000Y-74400000D01*
X161000000Y-79920000D02*
X161000000Y-77160000D01*
X80000000Y-43540000D02*
X80460000Y-44000000D01*
X80000000Y-38080000D02*
X80000000Y-43540000D01*
X155700000Y-74400000D02*
X155700000Y-74000000D01*
X156750000Y-75450000D02*
X155700000Y-74400000D01*
X157150000Y-75450000D02*
X156750000Y-75450000D01*
X158000000Y-76300000D02*
X157150000Y-75450000D01*
X158000000Y-79920000D02*
X158000000Y-76300000D01*
X77000000Y-38080000D02*
X77000000Y-40000000D01*
X77920000Y-40920000D02*
X77920000Y-44000000D01*
X77000000Y-40000000D02*
X77920000Y-40920000D01*
X153160000Y-74400000D02*
X153160000Y-74000000D01*
X154210000Y-75450000D02*
X153160000Y-74400000D01*
X155000000Y-75840000D02*
X154610000Y-75450000D01*
X154610000Y-75450000D02*
X154210000Y-75450000D01*
X155000000Y-79920000D02*
X155000000Y-75840000D01*
X74000000Y-38080000D02*
X74000000Y-40000000D01*
X75380000Y-41380000D02*
X75380000Y-44000000D01*
X74000000Y-40000000D02*
X75380000Y-41380000D01*
X152000000Y-74330000D02*
X151670000Y-74000000D01*
X151670000Y-74000000D02*
X150620000Y-74000000D01*
X152000000Y-79920000D02*
X152000000Y-74330000D01*
X72840000Y-43600000D02*
X72840000Y-44000000D01*
X71790000Y-42550000D02*
X72840000Y-43600000D01*
X71000000Y-42160000D02*
X71390000Y-42550000D01*
X71390000Y-42550000D02*
X71790000Y-42550000D01*
X71000000Y-38080000D02*
X71000000Y-42160000D01*
X149000000Y-74920000D02*
X148080000Y-74000000D01*
X149000000Y-79920000D02*
X149000000Y-74920000D01*
X70300000Y-43600000D02*
X70300000Y-44000000D01*
X68850000Y-42550000D02*
X69250000Y-42550000D01*
X69250000Y-42550000D02*
X70300000Y-43600000D01*
X68000000Y-41700000D02*
X68850000Y-42550000D01*
X68000000Y-38080000D02*
X68000000Y-41700000D01*
X146000000Y-74460000D02*
X145540000Y-74000000D01*
X146000000Y-79920000D02*
X146000000Y-74460000D01*
X67760000Y-43600000D02*
X67760000Y-44000000D01*
X66710000Y-42550000D02*
X67760000Y-43600000D01*
X66310000Y-42550000D02*
X66710000Y-42550000D01*
X65000000Y-41240000D02*
X66310000Y-42550000D01*
X65000000Y-38080000D02*
X65000000Y-41240000D01*
X143000000Y-79920000D02*
X143000000Y-74000000D01*
X144090000Y-67830000D02*
X144490000Y-67830000D01*
X144490000Y-67830000D02*
X145540000Y-66780000D01*
X140000000Y-71920000D02*
X144090000Y-67830000D01*
X145540000Y-66780000D02*
X145540000Y-66380000D01*
X140000000Y-79920000D02*
X140000000Y-71920000D01*
X118460000Y-51220000D02*
X118460000Y-51620000D01*
X121000000Y-38080000D02*
X121000000Y-44000000D01*
X197240000Y-74400000D02*
X197240000Y-74000000D01*
X198290000Y-75450000D02*
X197240000Y-74400000D01*
X198690000Y-75450000D02*
X198290000Y-75450000D01*
X200000000Y-76760000D02*
X198690000Y-75450000D01*
X200000000Y-79920000D02*
X200000000Y-76760000D01*
X118000000Y-43540000D02*
X118460000Y-44000000D01*
X118000000Y-38080000D02*
X118000000Y-43540000D01*
X194700000Y-74400000D02*
X194700000Y-74000000D01*
X196150000Y-75450000D02*
X195750000Y-75450000D01*
X195750000Y-75450000D02*
X194700000Y-74400000D01*
X197000000Y-76300000D02*
X196150000Y-75450000D01*
X197000000Y-79920000D02*
X197000000Y-76300000D01*
X115000000Y-43080000D02*
X115920000Y-44000000D01*
X115000000Y-38080000D02*
X115000000Y-43080000D01*
X192160000Y-74400000D02*
X192160000Y-74000000D01*
X194000000Y-75840000D02*
X193610000Y-75450000D01*
X193210000Y-75450000D02*
X192160000Y-74400000D01*
X193610000Y-75450000D02*
X193210000Y-75450000D01*
X194000000Y-79920000D02*
X194000000Y-75840000D01*
X112330000Y-44000000D02*
X113380000Y-44000000D01*
X112000000Y-43670000D02*
X112330000Y-44000000D01*
X112000000Y-38080000D02*
X112000000Y-43670000D01*
X190670000Y-74000000D02*
X189620000Y-74000000D01*
X191000000Y-74330000D02*
X190670000Y-74000000D01*
X191000000Y-79920000D02*
X191000000Y-74330000D01*
X109390000Y-42550000D02*
X109790000Y-42550000D01*
X109000000Y-42160000D02*
X109390000Y-42550000D01*
X110840000Y-43600000D02*
X110840000Y-44000000D01*
X109790000Y-42550000D02*
X110840000Y-43600000D01*
X109000000Y-38080000D02*
X109000000Y-42160000D01*
X188000000Y-74920000D02*
X187080000Y-74000000D01*
X188000000Y-79920000D02*
X188000000Y-74920000D01*
X108300000Y-43600000D02*
X108300000Y-44000000D01*
X107250000Y-42550000D02*
X108300000Y-43600000D01*
X106000000Y-41700000D02*
X106850000Y-42550000D01*
X106850000Y-42550000D02*
X107250000Y-42550000D01*
X106000000Y-38080000D02*
X106000000Y-41700000D01*
X185000000Y-74460000D02*
X184540000Y-74000000D01*
X185000000Y-79920000D02*
X185000000Y-74460000D01*
X105760000Y-43600000D02*
X105760000Y-44000000D01*
X104710000Y-42550000D02*
X105760000Y-43600000D01*
X103000000Y-41240000D02*
X104310000Y-42550000D01*
X104310000Y-42550000D02*
X104710000Y-42550000D01*
X103000000Y-38080000D02*
X103000000Y-41240000D01*
X182000000Y-74000000D02*
X182000000Y-79920000D01*
X161000000Y-38080000D02*
X161000000Y-44000000D01*
X184760000Y-43600000D02*
X184760000Y-44000000D01*
X184760000Y-43840000D02*
X184760000Y-44000000D01*
X179000000Y-38080000D02*
X184760000Y-43840000D01*
X158000000Y-43540000D02*
X158460000Y-44000000D01*
X158000000Y-38080000D02*
X158000000Y-43540000D01*
X187300000Y-43380000D02*
X187300000Y-44000000D01*
X182000000Y-38080000D02*
X187300000Y-43380000D01*
X155000000Y-43080000D02*
X155920000Y-44000000D01*
X155000000Y-38080000D02*
X155000000Y-43080000D01*
X188790000Y-42550000D02*
X189840000Y-43600000D01*
X189840000Y-43600000D02*
X189840000Y-44000000D01*
X188390000Y-42550000D02*
X188790000Y-42550000D01*
X185000000Y-39160000D02*
X188390000Y-42550000D01*
X185000000Y-38080000D02*
X185000000Y-39160000D01*
X152000000Y-43670000D02*
X152330000Y-44000000D01*
X152330000Y-44000000D02*
X153380000Y-44000000D01*
X152000000Y-38080000D02*
X152000000Y-43670000D01*
X192380000Y-43600000D02*
X192380000Y-44000000D01*
X191330000Y-42550000D02*
X192380000Y-43600000D01*
X188000000Y-39620000D02*
X190930000Y-42550000D01*
X190930000Y-42550000D02*
X191330000Y-42550000D01*
X188000000Y-38080000D02*
X188000000Y-39620000D01*
X149790000Y-42550000D02*
X150840000Y-43600000D01*
X149390000Y-42550000D02*
X149790000Y-42550000D01*
X150840000Y-43600000D02*
X150840000Y-44000000D01*
X149000000Y-42160000D02*
X149390000Y-42550000D01*
X149000000Y-38080000D02*
X149000000Y-42160000D01*
X194920000Y-43600000D02*
X194920000Y-44000000D01*
X193870000Y-42550000D02*
X194920000Y-43600000D01*
X191000000Y-40080000D02*
X193470000Y-42550000D01*
X193470000Y-42550000D02*
X193870000Y-42550000D01*
X191000000Y-38080000D02*
X191000000Y-40080000D01*
X147250000Y-42550000D02*
X148300000Y-43600000D01*
X146850000Y-42550000D02*
X147250000Y-42550000D01*
X148300000Y-43600000D02*
X148300000Y-44000000D01*
X146000000Y-41700000D02*
X146850000Y-42550000D01*
X146000000Y-38080000D02*
X146000000Y-41700000D01*
X197000000Y-43540000D02*
X197460000Y-44000000D01*
X196410000Y-42550000D02*
X197460000Y-43600000D01*
X196010000Y-42550000D02*
X196410000Y-42550000D01*
X197460000Y-43600000D02*
X197460000Y-44000000D01*
X194000000Y-40540000D02*
X196010000Y-42550000D01*
X194000000Y-38080000D02*
X194000000Y-40540000D01*
X145760000Y-43600000D02*
X145760000Y-44000000D01*
X144710000Y-42550000D02*
X145760000Y-43600000D01*
X144310000Y-42550000D02*
X144710000Y-42550000D01*
X143000000Y-41240000D02*
X144310000Y-42550000D01*
X143000000Y-38080000D02*
X143000000Y-41240000D01*
X200000000Y-43600000D02*
X200000000Y-44000000D01*
X198550000Y-42550000D02*
X198950000Y-42550000D01*
X198950000Y-42550000D02*
X200000000Y-43600000D01*
X197000000Y-41000000D02*
X198550000Y-42550000D01*
X197000000Y-38080000D02*
X197000000Y-41000000D01*
X197460000Y-51220000D02*
X197460000Y-51620000D01*
X201125001Y-39205001D02*
X200699999Y-38779999D01*
X201125001Y-46504999D02*
X201125001Y-39205001D01*
X200699999Y-38779999D02*
X200000000Y-38080000D01*
X197460000Y-50170000D02*
X201125001Y-46504999D01*
X197460000Y-51620000D02*
X197460000Y-50170000D01*
X139483986Y-67905010D02*
X143388996Y-64000000D01*
X106080000Y-66780000D02*
X107205010Y-67905010D01*
X107205010Y-67905010D02*
X139483986Y-67905010D01*
X106080000Y-66380000D02*
X106080000Y-66780000D01*
X160780000Y-65980000D02*
X160780000Y-66380000D01*
X158800000Y-64000000D02*
X160780000Y-65980000D01*
X143388996Y-64000000D02*
X158800000Y-64000000D01*
X118780000Y-65980000D02*
X116800000Y-64000000D01*
X118780000Y-66380000D02*
X118780000Y-65980000D01*
X70680000Y-64000000D02*
X68080000Y-66600000D01*
X68080000Y-66600000D02*
X68080000Y-67000000D01*
X116800000Y-64000000D02*
X70680000Y-64000000D01*
X65220000Y-50170000D02*
X67390000Y-48000000D01*
X65220000Y-51620000D02*
X65220000Y-50170000D01*
X115920000Y-51220000D02*
X115920000Y-51620000D01*
X112700000Y-48000000D02*
X115920000Y-51220000D01*
X67390000Y-48000000D02*
X112700000Y-48000000D01*
X199780000Y-67830000D02*
X196610000Y-71000000D01*
X199780000Y-66380000D02*
X199780000Y-67830000D01*
X148080000Y-66780000D02*
X148080000Y-66380000D01*
X152300000Y-71000000D02*
X148080000Y-66780000D01*
X196610000Y-71000000D02*
X152300000Y-71000000D01*
X103220000Y-52020000D02*
X106000000Y-54800000D01*
X103220000Y-51620000D02*
X103220000Y-52020000D01*
X155920000Y-52020000D02*
X155920000Y-51620000D01*
X153140000Y-54800000D02*
X155920000Y-52020000D01*
X106000000Y-54800000D02*
X153140000Y-54800000D01*
X143220000Y-50170000D02*
X144390000Y-49000000D01*
X143220000Y-51620000D02*
X143220000Y-50170000D01*
X194920000Y-51220000D02*
X194920000Y-51620000D01*
X192700000Y-49000000D02*
X194920000Y-51220000D01*
X144390000Y-49000000D02*
X192700000Y-49000000D01*
X119160000Y-66000000D02*
X118780000Y-66380000D01*
X125000000Y-66000000D02*
X119160000Y-66000000D01*
M02*
