M48
; DRILL file {KiCad (5.1.4-0-10_14)} date Sunday, 08 December 2019 at 14:58:03
; FORMAT={-:-/ absolute / metric / decimal}
; #@! TF.CreationDate,2019-12-08T14:58:03+00:00
; #@! TF.GenerationSoftware,Kicad,Pcbnew,(5.1.4-0-10_14)
FMAT,2
METRIC
T1C0.400
T2C0.600
T3C0.700
T4C0.750
T5C0.800
T6C1.600
%
G90
G05
T1
X34.0Y-60.0
X47.0Y-56.0
X47.0Y-57.0
X47.0Y-58.0
X47.0Y-59.0
X47.0Y-60.0
X47.0Y-61.0
X52.0Y-61.0
X54.0Y-60.0
X63.0Y-61.0
X66.0Y-60.0
X68.0Y-58.0
X70.0Y-59.0
X71.0Y-56.0
X73.0Y-57.0
X75.0Y-56.0
X76.0Y-59.0
X78.0Y-58.0
X79.0Y-60.0
X83.0Y-61.0
X101.0Y-60.0
X101.0Y-61.0
X106.0Y-58.0
X108.0Y-59.0
X109.0Y-56.0
X111.0Y-57.0
X113.0Y-56.0
X114.0Y-59.0
X116.0Y-58.0
X120.0Y-61.0
X121.0Y-60.0
X142.0Y-60.0
X143.0Y-61.0
X146.0Y-58.0
X148.0Y-59.0
X150.0Y-57.0
X151.0Y-56.0
X153.0Y-56.0
X153.0Y-57.0
X156.0Y-59.0
X158.0Y-58.0
X161.0Y-61.0
X163.0Y-60.0
X180.0Y-60.0
X182.0Y-61.0
X185.0Y-58.0
X187.0Y-59.0
X188.0Y-59.0
X190.0Y-56.0
X192.0Y-57.0
X193.0Y-56.0
X195.0Y-59.0
X197.0Y-58.0
X200.0Y-60.0
T2
X175.0Y-66.0
X177.0Y-66.0
X165.0Y-52.0
X167.0Y-52.0
X165.0Y-66.0
X167.0Y-66.0
X175.0Y-52.0
X177.0Y-52.0
X125.0Y-52.0
X127.0Y-52.0
X81.0Y-92.0
X83.0Y-92.0
X87.0Y-52.0
X89.0Y-52.0
X87.0Y-66.0
X89.0Y-66.0
X125.0Y-66.0
X127.0Y-66.0
X52.0Y-52.0
X54.0Y-52.0
T3
X121.0Y-33.0
X121.0Y-38.08
X118.0Y-33.0
X118.0Y-38.08
X112.0Y-33.0
X112.0Y-38.08
X113.0Y-78.92
X113.0Y-84.0
X36.0Y-33.0
X36.0Y-38.08
X146.0Y-33.0
X146.0Y-38.08
X109.0Y-33.0
X109.0Y-38.08
X86.0Y-32.92
X86.0Y-38.0
X152.0Y-79.92
X152.0Y-85.0
X103.0Y-33.0
X103.0Y-38.08
X119.0Y-78.92
X119.0Y-84.0
X116.0Y-78.92
X116.0Y-84.0
X155.0Y-33.0
X191.0Y-79.92
X191.0Y-85.0
X188.0Y-79.92
X188.0Y-85.0
X74.0Y-33.0
X74.0Y-38.08
X106.0Y-33.0
X106.0Y-38.08
X101.0Y-78.92
X179.0Y-85.0
X42.0Y-33.0
X101.0Y-84.0
X179.0Y-79.92
X200.0Y-33.0
X200.0Y-38.08
X149.0Y-79.92
X42.0Y-38.08
X155.0Y-38.08
X161.0Y-33.0
X161.0Y-38.08
X149.0Y-85.0
X27.0Y-33.0
X71.0Y-38.08
X191.0Y-33.0
X191.0Y-38.08
X71.0Y-33.0
X27.0Y-38.08
X152.0Y-33.0
X152.0Y-38.08
X155.0Y-79.92
X155.0Y-85.0
X45.0Y-33.0
X45.0Y-38.08
X146.0Y-79.92
X146.0Y-85.0
X48.0Y-33.0
X48.0Y-38.08
X124.0Y-33.0
X124.0Y-38.08
X98.0Y-78.92
X98.0Y-84.0
X200.0Y-79.92
X200.0Y-85.0
X143.0Y-85.0
X197.0Y-33.0
X77.0Y-33.0
X197.0Y-85.0
X197.0Y-38.08
X77.0Y-38.08
X197.0Y-79.92
X158.0Y-33.0
X158.0Y-38.08
X39.0Y-33.0
X39.0Y-38.08
X149.0Y-33.0
X149.0Y-38.08
X104.0Y-78.92
X104.0Y-84.0
X143.0Y-79.92
X30.0Y-33.0
X158.0Y-79.92
X158.0Y-85.0
X194.0Y-79.92
X194.0Y-85.0
X185.0Y-79.92
X185.0Y-85.0
X164.0Y-32.92
X164.0Y-38.0
X182.0Y-79.92
X182.0Y-85.0
X65.0Y-38.08
X30.0Y-38.08
X185.0Y-33.0
X140.0Y-85.0
X143.0Y-33.0
X143.0Y-38.08
X161.0Y-79.92
X161.0Y-85.0
X140.0Y-79.92
X107.0Y-78.92
X107.0Y-84.0
X115.0Y-33.0
X115.0Y-38.08
X33.0Y-33.0
X33.0Y-38.08
X80.0Y-33.0
X80.0Y-38.08
X65.0Y-33.0
X110.0Y-78.92
X110.0Y-84.0
X68.0Y-33.0
X179.0Y-33.0
X179.0Y-38.08
X182.0Y-33.0
X182.0Y-38.08
X68.0Y-38.08
X185.0Y-38.08
X188.0Y-33.0
X188.0Y-38.08
X194.0Y-33.0
X194.0Y-38.08
X83.0Y-33.0
X83.0Y-38.08
T4
X84.73Y-81.0
X86.0Y-81.0
X87.27Y-81.0
X78.0Y-81.0
X79.27Y-81.0
X80.54Y-81.0
X92.0Y-81.0
X93.27Y-81.0
X94.54Y-81.0
X71.0Y-81.0
X72.27Y-81.0
X73.54Y-81.0
X57.0Y-79.0
X58.27Y-79.0
X59.54Y-79.0
X54.0Y-64.0
X55.27Y-64.0
X56.54Y-64.0
X64.0Y-81.0
X65.27Y-81.0
X66.54Y-81.0
X54.0Y-71.0
X55.27Y-71.0
X56.54Y-71.0
T5
X103.22Y-51.62
X105.76Y-51.62
X108.3Y-51.62
X110.84Y-44.0
X110.84Y-51.62
X113.38Y-44.0
X113.38Y-51.62
X115.92Y-44.0
X118.46Y-44.0
X121.0Y-44.0
X65.0Y-28.0
X67.0Y-28.0
X69.0Y-28.0
X71.0Y-28.0
X73.0Y-28.0
X75.0Y-28.0
X77.0Y-28.0
X79.0Y-28.0
X103.22Y-44.0
X105.76Y-44.0
X108.3Y-44.0
X115.92Y-51.62
X121.0Y-51.62
X103.0Y-28.0
X31.76Y-88.4
X105.0Y-28.0
X107.0Y-28.0
X109.0Y-28.0
X111.0Y-28.0
X113.0Y-28.0
X115.0Y-28.0
X117.0Y-28.0
X143.0Y-28.0
X145.0Y-28.0
X147.0Y-28.0
X149.0Y-28.0
X151.0Y-28.0
X153.0Y-28.0
X47.0Y-80.78
X31.76Y-63.0
X31.76Y-65.54
X31.76Y-68.08
X31.76Y-70.62
X31.76Y-73.16
X31.76Y-75.7
X31.76Y-78.24
X31.76Y-80.78
X31.76Y-83.32
X31.76Y-85.86
X31.76Y-90.94
X31.76Y-93.48
X31.76Y-96.02
X31.76Y-98.56
X47.0Y-63.0
X47.0Y-65.54
X47.0Y-68.08
X47.0Y-75.7
X47.0Y-78.24
X155.0Y-28.0
X157.0Y-28.0
X47.0Y-70.62
X47.0Y-73.16
X47.0Y-83.32
X47.0Y-85.86
X47.0Y-88.4
X47.0Y-90.94
X47.0Y-93.48
X47.0Y-96.02
X47.0Y-98.56
X101.0Y-66.38
X101.0Y-74.0
X103.54Y-66.38
X103.54Y-74.0
X106.08Y-66.38
X106.08Y-74.0
X108.62Y-66.38
X108.62Y-74.0
X111.16Y-66.38
X111.16Y-74.0
X113.7Y-66.38
X113.7Y-74.0
X118.46Y-51.62
X116.24Y-66.38
X118.78Y-66.38
X53.0Y-81.0
X53.0Y-83.0
X53.0Y-85.0
X53.0Y-87.0
X53.0Y-89.0
X53.0Y-91.0
X118.78Y-74.0
X53.0Y-79.0
X116.24Y-74.0
X53.0Y-77.0
X182.22Y-44.0
X143.0Y-66.38
X182.22Y-51.62
X184.76Y-44.0
X184.76Y-51.62
X187.3Y-44.0
X187.3Y-51.62
X189.84Y-44.0
X189.84Y-51.62
X192.38Y-44.0
X192.38Y-51.62
X194.92Y-44.0
X194.92Y-51.62
X197.46Y-44.0
X197.46Y-51.62
X200.0Y-44.0
X200.0Y-51.62
X63.0Y-67.0
X63.0Y-74.62
X65.54Y-67.0
X65.54Y-74.62
X68.08Y-67.0
X68.08Y-74.62
X70.62Y-67.0
X70.62Y-74.62
X73.16Y-67.0
X161.0Y-51.62
X73.16Y-74.62
X75.7Y-67.0
X75.7Y-74.62
X78.24Y-67.0
X78.24Y-74.62
X80.78Y-67.0
X80.78Y-74.62
X27.22Y-44.0
X27.22Y-51.62
X29.76Y-44.0
X29.76Y-51.62
X32.3Y-44.0
X32.3Y-51.62
X34.84Y-44.0
X34.84Y-51.62
X37.38Y-44.0
X37.38Y-51.62
X39.92Y-44.0
X39.92Y-51.62
X42.46Y-44.0
X42.46Y-51.62
X45.0Y-44.0
X45.0Y-51.62
X65.22Y-44.0
X65.22Y-51.62
X67.76Y-44.0
X67.76Y-51.62
X37.0Y-28.0
X182.0Y-66.38
X182.0Y-74.0
X184.54Y-66.38
X184.54Y-74.0
X187.08Y-66.38
X187.08Y-74.0
X189.62Y-66.38
X189.62Y-74.0
X192.16Y-66.38
X192.16Y-74.0
X194.7Y-66.38
X194.7Y-74.0
X197.24Y-66.38
X197.24Y-74.0
X199.78Y-66.38
X199.78Y-74.0
X143.22Y-44.0
X143.22Y-51.62
X145.76Y-44.0
X145.76Y-51.62
X148.3Y-44.0
X148.3Y-51.62
X150.84Y-44.0
X150.84Y-51.62
X153.38Y-44.0
X153.38Y-51.62
X155.92Y-44.0
X155.92Y-51.62
X158.46Y-44.0
X158.46Y-51.62
X161.0Y-44.0
X143.0Y-74.0
X145.54Y-66.38
X145.54Y-74.0
X148.08Y-66.38
X148.08Y-74.0
X150.62Y-66.38
X150.62Y-74.0
X153.16Y-66.38
X153.16Y-74.0
X155.7Y-66.38
X155.7Y-74.0
X158.24Y-66.38
X158.24Y-74.0
X160.78Y-66.38
X160.78Y-74.0
X147.0Y-91.0
X149.0Y-91.0
X151.0Y-91.0
X153.0Y-91.0
X155.0Y-91.0
X157.0Y-91.0
X159.0Y-91.0
X161.0Y-91.0
X27.0Y-28.0
X29.0Y-28.0
X31.0Y-28.0
X33.0Y-28.0
X35.0Y-28.0
X39.0Y-28.0
X41.0Y-28.0
X105.0Y-91.0
X107.0Y-91.0
X70.3Y-44.0
X70.3Y-51.62
X72.84Y-44.0
X72.84Y-51.62
X75.38Y-44.0
X75.38Y-51.62
X77.92Y-44.0
X77.92Y-51.62
X80.46Y-44.0
X80.46Y-51.62
X83.0Y-44.0
X83.0Y-51.62
X182.0Y-28.0
X119.0Y-91.0
X109.0Y-91.0
X111.0Y-91.0
X184.0Y-28.0
X113.0Y-91.0
X115.0Y-91.0
X117.0Y-91.0
X186.0Y-91.0
X188.0Y-91.0
X190.0Y-91.0
X192.0Y-91.0
X194.0Y-91.0
X196.0Y-91.0
X198.0Y-91.0
X200.0Y-91.0
X186.0Y-28.0
X188.0Y-28.0
X190.0Y-28.0
X192.0Y-28.0
X194.0Y-28.0
X196.0Y-28.0
T6
X93.0Y-97.0
X93.0Y-103.0
X97.7Y-100.0
T0
M30
