G04 #@! TF.GenerationSoftware,KiCad,Pcbnew,(5.1.4-0-10_14)*
G04 #@! TF.CreationDate,2019-12-08T14:58:00+00:00*
G04 #@! TF.ProjectId,LED_cube_with_74HCT595,4c45445f-6375-4626-955f-776974685f37,rev?*
G04 #@! TF.SameCoordinates,Original*
G04 #@! TF.FileFunction,Copper,L2,Bot*
G04 #@! TF.FilePolarity,Positive*
%FSLAX46Y46*%
G04 Gerber Fmt 4.6, Leading zero omitted, Abs format (unit mm)*
G04 Created by KiCad (PCBNEW (5.1.4-0-10_14)) date 2019-12-08 14:58:00*
%MOMM*%
%LPD*%
G04 APERTURE LIST*
%ADD10C,1.200000*%
%ADD11R,1.200000X1.200000*%
%ADD12O,1.600000X1.600000*%
%ADD13R,1.600000X1.600000*%
%ADD14O,1.600000X2.400000*%
%ADD15R,1.600000X2.400000*%
%ADD16O,1.350000X1.350000*%
%ADD17R,1.350000X1.350000*%
%ADD18O,1.050000X1.500000*%
%ADD19R,1.050000X1.500000*%
%ADD20C,1.400000*%
%ADD21O,1.400000X1.400000*%
%ADD22R,2.600000X2.600000*%
%ADD23C,2.600000*%
%ADD24C,0.800000*%
%ADD25C,0.250000*%
G04 APERTURE END LIST*
D10*
X83000000Y-92000000D03*
D11*
X81000000Y-92000000D03*
D12*
X31760000Y-63000000D03*
X47000000Y-63000000D03*
X31760000Y-98560000D03*
X47000000Y-65540000D03*
X31760000Y-96020000D03*
X47000000Y-68080000D03*
X31760000Y-93480000D03*
X47000000Y-70620000D03*
X31760000Y-90940000D03*
X47000000Y-73160000D03*
X31760000Y-88400000D03*
X47000000Y-75700000D03*
X31760000Y-85860000D03*
X47000000Y-78240000D03*
X31760000Y-83320000D03*
X47000000Y-80780000D03*
X31760000Y-80780000D03*
X47000000Y-83320000D03*
X31760000Y-78240000D03*
X47000000Y-85860000D03*
X31760000Y-75700000D03*
X47000000Y-88400000D03*
X31760000Y-73160000D03*
X47000000Y-90940000D03*
X31760000Y-70620000D03*
X47000000Y-93480000D03*
X31760000Y-68080000D03*
X47000000Y-96020000D03*
X31760000Y-65540000D03*
D13*
X47000000Y-98560000D03*
D14*
X200000000Y-51620000D03*
X182220000Y-44000000D03*
X197460000Y-51620000D03*
X184760000Y-44000000D03*
X194920000Y-51620000D03*
X187300000Y-44000000D03*
X192380000Y-51620000D03*
X189840000Y-44000000D03*
X189840000Y-51620000D03*
X192380000Y-44000000D03*
X187300000Y-51620000D03*
X194920000Y-44000000D03*
X184760000Y-51620000D03*
X197460000Y-44000000D03*
X182220000Y-51620000D03*
D15*
X200000000Y-44000000D03*
D14*
X161000000Y-51620000D03*
X143220000Y-44000000D03*
X158460000Y-51620000D03*
X145760000Y-44000000D03*
X155920000Y-51620000D03*
X148300000Y-44000000D03*
X153380000Y-51620000D03*
X150840000Y-44000000D03*
X150840000Y-51620000D03*
X153380000Y-44000000D03*
X148300000Y-51620000D03*
X155920000Y-44000000D03*
X145760000Y-51620000D03*
X158460000Y-44000000D03*
X143220000Y-51620000D03*
D15*
X161000000Y-44000000D03*
X101000000Y-74000000D03*
D14*
X118780000Y-66380000D03*
X103540000Y-74000000D03*
X116240000Y-66380000D03*
X106080000Y-74000000D03*
X113700000Y-66380000D03*
X108620000Y-74000000D03*
X111160000Y-66380000D03*
X111160000Y-74000000D03*
X108620000Y-66380000D03*
X113700000Y-74000000D03*
X106080000Y-66380000D03*
X116240000Y-74000000D03*
X103540000Y-66380000D03*
X118780000Y-74000000D03*
X101000000Y-66380000D03*
X143000000Y-66380000D03*
X160780000Y-74000000D03*
X145540000Y-66380000D03*
X158240000Y-74000000D03*
X148080000Y-66380000D03*
X155700000Y-74000000D03*
X150620000Y-66380000D03*
X153160000Y-74000000D03*
X153160000Y-66380000D03*
X150620000Y-74000000D03*
X155700000Y-66380000D03*
X148080000Y-74000000D03*
X158240000Y-66380000D03*
X145540000Y-74000000D03*
X160780000Y-66380000D03*
D15*
X143000000Y-74000000D03*
D16*
X27000000Y-28000000D03*
X29000000Y-28000000D03*
X31000000Y-28000000D03*
X33000000Y-28000000D03*
X35000000Y-28000000D03*
X37000000Y-28000000D03*
X39000000Y-28000000D03*
D17*
X41000000Y-28000000D03*
X105000000Y-91000000D03*
D16*
X107000000Y-91000000D03*
X109000000Y-91000000D03*
X111000000Y-91000000D03*
X113000000Y-91000000D03*
X115000000Y-91000000D03*
X117000000Y-91000000D03*
X119000000Y-91000000D03*
D17*
X79000000Y-28000000D03*
D16*
X77000000Y-28000000D03*
X75000000Y-28000000D03*
X73000000Y-28000000D03*
X71000000Y-28000000D03*
X69000000Y-28000000D03*
X67000000Y-28000000D03*
X65000000Y-28000000D03*
X161000000Y-91000000D03*
X159000000Y-91000000D03*
X157000000Y-91000000D03*
X155000000Y-91000000D03*
X153000000Y-91000000D03*
X151000000Y-91000000D03*
X149000000Y-91000000D03*
D17*
X147000000Y-91000000D03*
D16*
X103000000Y-28000000D03*
X105000000Y-28000000D03*
X107000000Y-28000000D03*
X109000000Y-28000000D03*
X111000000Y-28000000D03*
X113000000Y-28000000D03*
X115000000Y-28000000D03*
D17*
X117000000Y-28000000D03*
D16*
X200000000Y-91000000D03*
X198000000Y-91000000D03*
X196000000Y-91000000D03*
X194000000Y-91000000D03*
X192000000Y-91000000D03*
X190000000Y-91000000D03*
X188000000Y-91000000D03*
D17*
X186000000Y-91000000D03*
D16*
X53000000Y-91000000D03*
X53000000Y-89000000D03*
X53000000Y-87000000D03*
X53000000Y-85000000D03*
X53000000Y-83000000D03*
X53000000Y-81000000D03*
X53000000Y-79000000D03*
D17*
X53000000Y-77000000D03*
X157000000Y-28000000D03*
D16*
X155000000Y-28000000D03*
X153000000Y-28000000D03*
X151000000Y-28000000D03*
X149000000Y-28000000D03*
X147000000Y-28000000D03*
X145000000Y-28000000D03*
X143000000Y-28000000D03*
D17*
X196000000Y-28000000D03*
D16*
X194000000Y-28000000D03*
X192000000Y-28000000D03*
X190000000Y-28000000D03*
X188000000Y-28000000D03*
X186000000Y-28000000D03*
X184000000Y-28000000D03*
X182000000Y-28000000D03*
D18*
X55270000Y-64000000D03*
X56540000Y-64000000D03*
D19*
X54000000Y-64000000D03*
X57000000Y-79000000D03*
D18*
X59540000Y-79000000D03*
X58270000Y-79000000D03*
X72270000Y-81000000D03*
X73540000Y-81000000D03*
D19*
X71000000Y-81000000D03*
X84730000Y-81000000D03*
D18*
X87270000Y-81000000D03*
X86000000Y-81000000D03*
X55270000Y-71000000D03*
X56540000Y-71000000D03*
D19*
X54000000Y-71000000D03*
D18*
X65270000Y-81000000D03*
X66540000Y-81000000D03*
D19*
X64000000Y-81000000D03*
D18*
X79270000Y-81000000D03*
X80540000Y-81000000D03*
D19*
X78000000Y-81000000D03*
X92000000Y-81000000D03*
D18*
X94540000Y-81000000D03*
X93270000Y-81000000D03*
D20*
X48000000Y-33000000D03*
D21*
X48000000Y-38080000D03*
X45000000Y-38080000D03*
D20*
X45000000Y-33000000D03*
D21*
X119000000Y-78920000D03*
D20*
X119000000Y-84000000D03*
X42000000Y-33000000D03*
D21*
X42000000Y-38080000D03*
D20*
X116000000Y-84000000D03*
D21*
X116000000Y-78920000D03*
X39000000Y-38080000D03*
D20*
X39000000Y-33000000D03*
D21*
X113000000Y-78920000D03*
D20*
X113000000Y-84000000D03*
X36000000Y-33000000D03*
D21*
X36000000Y-38080000D03*
D20*
X110000000Y-84000000D03*
D21*
X110000000Y-78920000D03*
X33000000Y-38080000D03*
D20*
X33000000Y-33000000D03*
D21*
X107000000Y-78920000D03*
D20*
X107000000Y-84000000D03*
X30000000Y-33000000D03*
D21*
X30000000Y-38080000D03*
D20*
X104000000Y-84000000D03*
D21*
X104000000Y-78920000D03*
X27000000Y-38080000D03*
D20*
X27000000Y-33000000D03*
D21*
X101000000Y-78920000D03*
D20*
X101000000Y-84000000D03*
D21*
X98000000Y-78920000D03*
D20*
X98000000Y-84000000D03*
D21*
X86000000Y-38000000D03*
D20*
X86000000Y-32920000D03*
X83000000Y-33000000D03*
D21*
X83000000Y-38080000D03*
D20*
X161000000Y-85000000D03*
D21*
X161000000Y-79920000D03*
X80000000Y-38080000D03*
D20*
X80000000Y-33000000D03*
D21*
X158000000Y-79920000D03*
D20*
X158000000Y-85000000D03*
X77000000Y-33000000D03*
D21*
X77000000Y-38080000D03*
D20*
X155000000Y-85000000D03*
D21*
X155000000Y-79920000D03*
X74000000Y-38080000D03*
D20*
X74000000Y-33000000D03*
D21*
X152000000Y-79920000D03*
D20*
X152000000Y-85000000D03*
X71000000Y-33000000D03*
D21*
X71000000Y-38080000D03*
D20*
X149000000Y-85000000D03*
D21*
X149000000Y-79920000D03*
X68000000Y-38080000D03*
D20*
X68000000Y-33000000D03*
D21*
X146000000Y-79920000D03*
D20*
X146000000Y-85000000D03*
X65000000Y-33000000D03*
D21*
X65000000Y-38080000D03*
D20*
X143000000Y-85000000D03*
D21*
X143000000Y-79920000D03*
X140000000Y-79920000D03*
D20*
X140000000Y-85000000D03*
X124000000Y-33000000D03*
D21*
X124000000Y-38080000D03*
X121000000Y-38080000D03*
D20*
X121000000Y-33000000D03*
D21*
X200000000Y-79920000D03*
D20*
X200000000Y-85000000D03*
X118000000Y-33000000D03*
D21*
X118000000Y-38080000D03*
D20*
X197000000Y-85000000D03*
D21*
X197000000Y-79920000D03*
X115000000Y-38080000D03*
D20*
X115000000Y-33000000D03*
D21*
X194000000Y-79920000D03*
D20*
X194000000Y-85000000D03*
X112000000Y-33000000D03*
D21*
X112000000Y-38080000D03*
D20*
X191000000Y-85000000D03*
D21*
X191000000Y-79920000D03*
X109000000Y-38080000D03*
D20*
X109000000Y-33000000D03*
D21*
X188000000Y-79920000D03*
D20*
X188000000Y-85000000D03*
X106000000Y-33000000D03*
D21*
X106000000Y-38080000D03*
D20*
X185000000Y-85000000D03*
D21*
X185000000Y-79920000D03*
X103000000Y-38080000D03*
D20*
X103000000Y-33000000D03*
D21*
X182000000Y-79920000D03*
D20*
X182000000Y-85000000D03*
X179000000Y-85000000D03*
D21*
X179000000Y-79920000D03*
X164000000Y-38000000D03*
D20*
X164000000Y-32920000D03*
X161000000Y-33000000D03*
D21*
X161000000Y-38080000D03*
D20*
X179000000Y-33000000D03*
D21*
X179000000Y-38080000D03*
X158000000Y-38080000D03*
D20*
X158000000Y-33000000D03*
D21*
X182000000Y-38080000D03*
D20*
X182000000Y-33000000D03*
X155000000Y-33000000D03*
D21*
X155000000Y-38080000D03*
D20*
X185000000Y-33000000D03*
D21*
X185000000Y-38080000D03*
X152000000Y-38080000D03*
D20*
X152000000Y-33000000D03*
D21*
X188000000Y-38080000D03*
D20*
X188000000Y-33000000D03*
X149000000Y-33000000D03*
D21*
X149000000Y-38080000D03*
D20*
X191000000Y-33000000D03*
D21*
X191000000Y-38080000D03*
X146000000Y-38080000D03*
D20*
X146000000Y-33000000D03*
X194000000Y-33000000D03*
D21*
X194000000Y-38080000D03*
D20*
X143000000Y-33000000D03*
D21*
X143000000Y-38080000D03*
X197000000Y-38080000D03*
D20*
X197000000Y-33000000D03*
X200000000Y-33000000D03*
D21*
X200000000Y-38080000D03*
D14*
X45000000Y-51620000D03*
X27220000Y-44000000D03*
X42460000Y-51620000D03*
X29760000Y-44000000D03*
X39920000Y-51620000D03*
X32300000Y-44000000D03*
X37380000Y-51620000D03*
X34840000Y-44000000D03*
X34840000Y-51620000D03*
X37380000Y-44000000D03*
X32300000Y-51620000D03*
X39920000Y-44000000D03*
X29760000Y-51620000D03*
X42460000Y-44000000D03*
X27220000Y-51620000D03*
D15*
X45000000Y-44000000D03*
X63000000Y-74620000D03*
D14*
X80780000Y-67000000D03*
X65540000Y-74620000D03*
X78240000Y-67000000D03*
X68080000Y-74620000D03*
X75700000Y-67000000D03*
X70620000Y-74620000D03*
X73160000Y-67000000D03*
X73160000Y-74620000D03*
X70620000Y-67000000D03*
X75700000Y-74620000D03*
X68080000Y-67000000D03*
X78240000Y-74620000D03*
X65540000Y-67000000D03*
X80780000Y-74620000D03*
X63000000Y-67000000D03*
X83000000Y-51620000D03*
X65220000Y-44000000D03*
X80460000Y-51620000D03*
X67760000Y-44000000D03*
X77920000Y-51620000D03*
X70300000Y-44000000D03*
X75380000Y-51620000D03*
X72840000Y-44000000D03*
X72840000Y-51620000D03*
X75380000Y-44000000D03*
X70300000Y-51620000D03*
X77920000Y-44000000D03*
X67760000Y-51620000D03*
X80460000Y-44000000D03*
X65220000Y-51620000D03*
D15*
X83000000Y-44000000D03*
X121000000Y-44000000D03*
D14*
X103220000Y-51620000D03*
X118460000Y-44000000D03*
X105760000Y-51620000D03*
X115920000Y-44000000D03*
X108300000Y-51620000D03*
X113380000Y-44000000D03*
X110840000Y-51620000D03*
X110840000Y-44000000D03*
X113380000Y-51620000D03*
X108300000Y-44000000D03*
X115920000Y-51620000D03*
X105760000Y-44000000D03*
X118460000Y-51620000D03*
X103220000Y-44000000D03*
X121000000Y-51620000D03*
D15*
X182000000Y-74000000D03*
D14*
X199780000Y-66380000D03*
X184540000Y-74000000D03*
X197240000Y-66380000D03*
X187080000Y-74000000D03*
X194700000Y-66380000D03*
X189620000Y-74000000D03*
X192160000Y-66380000D03*
X192160000Y-74000000D03*
X189620000Y-66380000D03*
X194700000Y-74000000D03*
X187080000Y-66380000D03*
X197240000Y-74000000D03*
X184540000Y-66380000D03*
X199780000Y-74000000D03*
X182000000Y-66380000D03*
D22*
X93000000Y-97000000D03*
D23*
X93000000Y-103000000D03*
X97700000Y-100000000D03*
D10*
X54000000Y-52000000D03*
D11*
X52000000Y-52000000D03*
X125000000Y-66000000D03*
D10*
X127000000Y-66000000D03*
D11*
X87000000Y-66000000D03*
D10*
X89000000Y-66000000D03*
X89000000Y-52000000D03*
D11*
X87000000Y-52000000D03*
X165000000Y-66000000D03*
D10*
X167000000Y-66000000D03*
X127000000Y-52000000D03*
D11*
X125000000Y-52000000D03*
X175000000Y-66000000D03*
D10*
X177000000Y-66000000D03*
X167000000Y-52000000D03*
D11*
X165000000Y-52000000D03*
X175000000Y-52000000D03*
D10*
X177000000Y-52000000D03*
D24*
X47000000Y-60000000D03*
X79000000Y-60000000D03*
X66000000Y-60000000D03*
X101000000Y-60000000D03*
X121000000Y-60000000D03*
X142000000Y-60000000D03*
X163000000Y-60000000D03*
X180000000Y-60000000D03*
X200000000Y-60000000D03*
X34000000Y-60000000D03*
X54000000Y-60000000D03*
X73000000Y-57000000D03*
X47000000Y-59000000D03*
X70000000Y-59000000D03*
X76000000Y-59000000D03*
X108000000Y-59000000D03*
X114000000Y-59000000D03*
X156000000Y-59000000D03*
X148000000Y-59000000D03*
X188000000Y-59000000D03*
X187000000Y-59000000D03*
X195000000Y-59000000D03*
X47000000Y-58000000D03*
X68000000Y-58000000D03*
X78000000Y-58000000D03*
X106000000Y-58000000D03*
X116000000Y-58000000D03*
X158000000Y-58000000D03*
X146000000Y-58000000D03*
X197000000Y-58000000D03*
X185000000Y-58000000D03*
X47000000Y-57000000D03*
X111000000Y-57000000D03*
X150000000Y-57000000D03*
X153000000Y-57000000D03*
X192000000Y-57000000D03*
X47000000Y-56000000D03*
X75000000Y-56000000D03*
X71000000Y-56000000D03*
X113000000Y-56000000D03*
X109000000Y-56000000D03*
X153000000Y-56000000D03*
X151000000Y-56000000D03*
X193000000Y-56000000D03*
X190000000Y-56000000D03*
X47000000Y-61000000D03*
X83000000Y-61000000D03*
X120000000Y-61000000D03*
X101000000Y-61000000D03*
X143000000Y-61000000D03*
X161000000Y-61000000D03*
X182000000Y-61000000D03*
X63000000Y-61000000D03*
X52000000Y-61000000D03*
D25*
X65220000Y-44000000D02*
X65220000Y-44400000D01*
X33608996Y-60000000D02*
X34000000Y-60000000D01*
X26094990Y-46575010D02*
X26094990Y-52485994D01*
X26094990Y-52485994D02*
X33608996Y-60000000D01*
X27220000Y-45450000D02*
X26094990Y-46575010D01*
X27220000Y-44000000D02*
X27220000Y-45450000D01*
X64094990Y-58094990D02*
X66000000Y-60000000D01*
X64094990Y-44075010D02*
X64094990Y-58094990D01*
X64170000Y-44000000D02*
X64094990Y-44075010D01*
X65220000Y-44000000D02*
X64170000Y-44000000D01*
X79654990Y-72044990D02*
X80780000Y-73170000D01*
X79654990Y-60654990D02*
X79654990Y-72044990D01*
X80780000Y-73170000D02*
X80780000Y-74620000D01*
X79000000Y-60000000D02*
X79654990Y-60654990D01*
X119830000Y-74000000D02*
X118780000Y-74000000D01*
X121000000Y-72830000D02*
X119830000Y-74000000D01*
X121000000Y-60000000D02*
X121000000Y-72830000D01*
X101000000Y-46620000D02*
X101000000Y-60000000D01*
X103220000Y-44400000D02*
X101000000Y-46620000D01*
X103220000Y-44000000D02*
X103220000Y-44400000D01*
X142170000Y-44000000D02*
X143220000Y-44000000D01*
X142000000Y-44170000D02*
X142170000Y-44000000D01*
X142000000Y-60000000D02*
X142000000Y-44170000D01*
X163000000Y-72830000D02*
X161830000Y-74000000D01*
X163000000Y-60000000D02*
X163000000Y-72830000D01*
X180000000Y-45170000D02*
X180000000Y-60000000D01*
X181170000Y-44000000D02*
X180000000Y-45170000D01*
X201000000Y-71330000D02*
X199780000Y-72550000D01*
X199780000Y-72550000D02*
X199780000Y-74000000D01*
X201000000Y-61000000D02*
X201000000Y-71330000D01*
X200000000Y-60000000D02*
X201000000Y-61000000D01*
X47000000Y-60000000D02*
X34000000Y-60000000D01*
X54000000Y-64000000D02*
X54000000Y-63775000D01*
X54000000Y-64000000D02*
X54000000Y-71000000D01*
X54000000Y-71000000D02*
X54000000Y-73000000D01*
X57000000Y-76000000D02*
X57000000Y-79000000D01*
X54000000Y-73000000D02*
X57000000Y-76000000D01*
X92000000Y-81000000D02*
X90000000Y-83000000D01*
X57000000Y-80000000D02*
X57000000Y-79000000D01*
X60000000Y-83000000D02*
X57000000Y-80000000D01*
X64000000Y-83000000D02*
X60000000Y-83000000D01*
X64000000Y-81000000D02*
X64000000Y-83000000D01*
X84730000Y-81225000D02*
X84000000Y-81955000D01*
X84730000Y-81000000D02*
X84730000Y-81225000D01*
X84000000Y-81955000D02*
X84000000Y-83000000D01*
X90000000Y-83000000D02*
X84000000Y-83000000D01*
X78000000Y-81000000D02*
X78000000Y-83000000D01*
X84000000Y-83000000D02*
X78000000Y-83000000D01*
X71000000Y-81000000D02*
X71000000Y-83000000D01*
X71000000Y-83000000D02*
X64000000Y-83000000D01*
X78000000Y-83000000D02*
X71000000Y-83000000D01*
X54000000Y-64000000D02*
X54000000Y-60000000D01*
X118088008Y-42474990D02*
X104345010Y-42474990D01*
X123507999Y-37054999D02*
X118088008Y-42474990D01*
X103220000Y-43600000D02*
X103220000Y-44000000D01*
X124492001Y-37054999D02*
X123507999Y-37054999D01*
X104345010Y-42474990D02*
X103220000Y-43600000D01*
X127000000Y-39562998D02*
X124492001Y-37054999D01*
X127000000Y-52000000D02*
X127000000Y-39562998D01*
X143220000Y-44400000D02*
X143220000Y-44000000D01*
X145820000Y-47000000D02*
X143220000Y-44400000D01*
X181170000Y-44000000D02*
X182220000Y-44000000D01*
X177000000Y-48170000D02*
X181170000Y-44000000D01*
X177000000Y-52000000D02*
X177000000Y-48170000D01*
X157045010Y-50754006D02*
X153291004Y-47000000D01*
X157045010Y-52196014D02*
X157045010Y-50754006D01*
X158925994Y-53145010D02*
X157994006Y-53145010D01*
X159585010Y-52485994D02*
X158925994Y-53145010D01*
X159585010Y-51043986D02*
X159585010Y-52485994D01*
X160628996Y-50000000D02*
X159585010Y-51043986D01*
X157994006Y-53145010D02*
X157045010Y-52196014D01*
X165000000Y-50000000D02*
X160628996Y-50000000D01*
X153291004Y-47000000D02*
X145820000Y-47000000D01*
X167000000Y-52000000D02*
X165000000Y-50000000D01*
X161830000Y-74000000D02*
X160780000Y-74000000D01*
X167000000Y-68830000D02*
X161830000Y-74000000D01*
X167000000Y-66000000D02*
X167000000Y-68830000D01*
X119000000Y-74000000D02*
X118780000Y-74000000D01*
X127000000Y-66000000D02*
X119000000Y-74000000D01*
X80780000Y-74220000D02*
X80780000Y-74620000D01*
X89000000Y-66000000D02*
X80780000Y-74220000D01*
X35148996Y-59000000D02*
X47000000Y-59000000D01*
X28634990Y-50754006D02*
X28634990Y-52485994D01*
X28634990Y-52485994D02*
X35148996Y-59000000D01*
X31174990Y-50094990D02*
X29294006Y-50094990D01*
X32300000Y-51220000D02*
X31174990Y-50094990D01*
X29294006Y-50094990D02*
X28634990Y-50754006D01*
X32300000Y-51620000D02*
X32300000Y-51220000D01*
X70000000Y-52320000D02*
X70000000Y-59000000D01*
X70300000Y-52020000D02*
X70000000Y-52320000D01*
X70300000Y-51620000D02*
X70300000Y-52020000D01*
X76000000Y-66700000D02*
X75700000Y-67000000D01*
X76000000Y-59000000D02*
X76000000Y-66700000D01*
X108000000Y-51920000D02*
X108300000Y-51620000D01*
X108000000Y-59000000D02*
X108000000Y-51920000D01*
X114000000Y-66080000D02*
X113700000Y-66380000D01*
X114000000Y-59000000D02*
X114000000Y-66080000D01*
X148300000Y-58700000D02*
X148000000Y-59000000D01*
X148300000Y-51620000D02*
X148300000Y-58700000D01*
X156000000Y-66080000D02*
X155700000Y-66380000D01*
X156000000Y-59000000D02*
X156000000Y-66080000D01*
X194700000Y-59300000D02*
X195000000Y-59000000D01*
X194700000Y-66380000D02*
X194700000Y-59300000D01*
X187000000Y-51920000D02*
X187300000Y-51620000D01*
X187000000Y-59000000D02*
X187000000Y-51920000D01*
X47565685Y-59000000D02*
X47000000Y-59000000D01*
X48125001Y-59559316D02*
X47565685Y-59000000D01*
X48125001Y-84734999D02*
X48125001Y-59559316D01*
X47000000Y-85860000D02*
X48125001Y-84734999D01*
X197240000Y-66380000D02*
X197240000Y-65980000D01*
X29760000Y-52020000D02*
X35740000Y-58000000D01*
X29760000Y-51620000D02*
X29760000Y-52020000D01*
X67760000Y-57760000D02*
X68000000Y-58000000D01*
X67760000Y-51620000D02*
X67760000Y-57760000D01*
X78000000Y-66760000D02*
X78240000Y-67000000D01*
X78000000Y-58000000D02*
X78000000Y-66760000D01*
X105760000Y-57760000D02*
X106000000Y-58000000D01*
X105760000Y-51620000D02*
X105760000Y-57760000D01*
X116000000Y-66140000D02*
X116240000Y-66380000D01*
X116000000Y-58000000D02*
X116000000Y-66140000D01*
X146000000Y-51860000D02*
X145760000Y-51620000D01*
X146000000Y-58000000D02*
X146000000Y-51860000D01*
X158000000Y-66140000D02*
X158240000Y-66380000D01*
X158000000Y-58000000D02*
X158000000Y-66140000D01*
X197240000Y-58240000D02*
X197000000Y-58000000D01*
X197240000Y-66380000D02*
X197240000Y-58240000D01*
X184760000Y-57760000D02*
X185000000Y-58000000D01*
X184760000Y-51620000D02*
X184760000Y-57760000D01*
X48575010Y-59009325D02*
X47565685Y-58000000D01*
X47540001Y-86985001D02*
X48575010Y-85949992D01*
X45874999Y-84445001D02*
X45874999Y-86400001D01*
X47000000Y-83320000D02*
X45874999Y-84445001D01*
X46459999Y-86985001D02*
X47540001Y-86985001D01*
X45874999Y-86400001D02*
X46459999Y-86985001D01*
X46000000Y-58000000D02*
X47000000Y-58000000D01*
X47565685Y-58000000D02*
X46000000Y-58000000D01*
X48575010Y-85949992D02*
X48575010Y-59009325D01*
X35740000Y-58000000D02*
X46000000Y-58000000D01*
X39820000Y-57000000D02*
X47000000Y-57000000D01*
X34840000Y-52020000D02*
X39820000Y-57000000D01*
X34840000Y-51620000D02*
X34840000Y-52020000D01*
X73000000Y-51780000D02*
X72840000Y-51620000D01*
X73000000Y-66840000D02*
X73000000Y-51780000D01*
X73000000Y-66840000D02*
X73160000Y-67000000D01*
X111000000Y-51780000D02*
X110840000Y-51620000D01*
X111000000Y-57000000D02*
X111000000Y-51780000D01*
X111000000Y-66220000D02*
X111160000Y-66380000D01*
X111000000Y-57000000D02*
X111000000Y-66220000D01*
X150000000Y-52460000D02*
X150840000Y-51620000D01*
X150000000Y-57000000D02*
X150000000Y-52460000D01*
X153000000Y-66220000D02*
X153160000Y-66380000D01*
X153000000Y-57000000D02*
X153000000Y-66220000D01*
X192000000Y-66220000D02*
X192160000Y-66380000D01*
X192000000Y-57000000D02*
X192000000Y-66220000D01*
X189840000Y-53840000D02*
X189840000Y-51620000D01*
X192000000Y-56000000D02*
X189840000Y-53840000D01*
X192000000Y-57000000D02*
X192000000Y-56000000D01*
X49025019Y-58459334D02*
X47565685Y-57000000D01*
X49025019Y-88039983D02*
X49025019Y-58459334D01*
X47540001Y-89525001D02*
X49025019Y-88039983D01*
X46459999Y-89525001D02*
X47540001Y-89525001D01*
X47565685Y-57000000D02*
X47000000Y-57000000D01*
X45424990Y-88489992D02*
X46459999Y-89525001D01*
X45424990Y-82355010D02*
X45424990Y-88489992D01*
X47000000Y-80780000D02*
X45424990Y-82355010D01*
X41360000Y-56000000D02*
X47000000Y-56000000D01*
X37380000Y-52020000D02*
X41360000Y-56000000D01*
X37380000Y-51620000D02*
X37380000Y-52020000D01*
X71000000Y-66620000D02*
X70620000Y-67000000D01*
X71000000Y-56000000D02*
X71000000Y-66620000D01*
X75380000Y-55620000D02*
X75000000Y-56000000D01*
X75380000Y-51620000D02*
X75380000Y-55620000D01*
X109000000Y-66000000D02*
X108620000Y-66380000D01*
X109000000Y-56000000D02*
X109000000Y-66000000D01*
X113000000Y-52000000D02*
X113380000Y-51620000D01*
X113000000Y-56000000D02*
X113000000Y-52000000D01*
X151000000Y-66000000D02*
X150620000Y-66380000D01*
X151000000Y-56000000D02*
X151000000Y-66000000D01*
X153000000Y-52000000D02*
X153380000Y-51620000D01*
X153000000Y-56000000D02*
X153000000Y-52000000D01*
X190000000Y-66000000D02*
X189620000Y-66380000D01*
X190000000Y-56000000D02*
X190000000Y-66000000D01*
X193000000Y-52240000D02*
X192380000Y-51620000D01*
X193000000Y-56000000D02*
X193000000Y-52240000D01*
X49475028Y-57909343D02*
X47565685Y-56000000D01*
X47565685Y-56000000D02*
X47000000Y-56000000D01*
X49475028Y-90129974D02*
X49475028Y-57909343D01*
X47540001Y-92065001D02*
X49475028Y-90129974D01*
X44974981Y-90579983D02*
X46459999Y-92065001D01*
X46459999Y-92065001D02*
X47540001Y-92065001D01*
X44974981Y-80265019D02*
X44974981Y-90579983D01*
X47000000Y-78240000D02*
X44974981Y-80265019D01*
X83000000Y-61000000D02*
X83000000Y-51620000D01*
X120000000Y-52620000D02*
X121000000Y-51620000D01*
X120000000Y-61000000D02*
X120000000Y-52620000D01*
X101000000Y-66380000D02*
X101000000Y-61000000D01*
X143000000Y-61000000D02*
X143000000Y-66380000D01*
X161000000Y-61000000D02*
X161000000Y-51620000D01*
X182000000Y-61000000D02*
X182000000Y-66380000D01*
X63000000Y-67000000D02*
X63000000Y-61000000D01*
X45000000Y-51620000D02*
X45000000Y-52020000D01*
X43000000Y-65000000D02*
X43000000Y-100000000D01*
X47000000Y-61000000D02*
X43000000Y-65000000D01*
X43000000Y-100000000D02*
X46000000Y-103000000D01*
X161380000Y-52000000D02*
X161000000Y-51620000D01*
X165000000Y-52000000D02*
X161380000Y-52000000D01*
X121380000Y-52000000D02*
X121000000Y-51620000D01*
X125000000Y-52000000D02*
X121380000Y-52000000D01*
X81000000Y-92000000D02*
X81000000Y-103000000D01*
X81000000Y-103000000D02*
X93000000Y-103000000D01*
X46000000Y-103000000D02*
X81000000Y-103000000D01*
X86000000Y-43585002D02*
X86000000Y-38000000D01*
X80460000Y-49125002D02*
X86000000Y-43585002D01*
X80460000Y-51620000D02*
X80460000Y-49125002D01*
X124000000Y-45680000D02*
X124000000Y-38080000D01*
X118460000Y-51220000D02*
X124000000Y-45680000D01*
X118460000Y-51620000D02*
X118460000Y-51220000D01*
X179000000Y-73370000D02*
X179000000Y-79920000D01*
X184540000Y-67830000D02*
X179000000Y-73370000D01*
X184540000Y-66380000D02*
X184540000Y-67830000D01*
X164000000Y-45680000D02*
X164000000Y-38000000D01*
X158460000Y-51220000D02*
X164000000Y-45680000D01*
X158460000Y-51620000D02*
X158460000Y-51220000D01*
X74403986Y-50094990D02*
X76794990Y-50094990D01*
X76794990Y-50094990D02*
X77920000Y-51220000D01*
X69174990Y-44865994D02*
X74403986Y-50094990D01*
X68225994Y-42474990D02*
X69174990Y-43423986D01*
X77920000Y-51220000D02*
X77920000Y-51620000D01*
X64754006Y-42474990D02*
X68225994Y-42474990D01*
X61703995Y-45525001D02*
X64754006Y-42474990D01*
X32914999Y-45525001D02*
X61703995Y-45525001D01*
X27220000Y-51220000D02*
X32914999Y-45525001D01*
X69174990Y-43423986D02*
X69174990Y-44865994D01*
X27220000Y-51620000D02*
X27220000Y-51220000D01*
X148080000Y-66780000D02*
X148080000Y-66380000D01*
X187080000Y-62080000D02*
X187080000Y-66380000D01*
X182220000Y-57220000D02*
X187080000Y-62080000D01*
X182220000Y-51620000D02*
X182220000Y-57220000D01*
M02*
