%FSLAX45Y45*%
G04 Gerber Fmt 4.5, Leading zero omitted, Abs format (unit mm)*
G04 Created by KiCad (PCBNEW (5.1.4-0-10_14)) date 2019-12-07 21:02:53*
%MOMM*%
%LPD*%
G04 APERTURE LIST*
%ADD10C,0.050000*%
%ADD11C,0.200000*%
%ADD12C,0.300000*%
G04 APERTURE END LIST*
D10*
X21000000Y-10300000D02*
G75*
G02X20300000Y-11000000I-700000J0D01*
G01*
X2700000Y-11000000D02*
G75*
G02X2000000Y-10300000I0J700000D01*
G01*
X2000000Y-2700000D02*
G75*
G02X2700000Y-2000000I700000J0D01*
G01*
X20300000Y-2000000D02*
G75*
G02X21000000Y-2700000I0J-700000D01*
G01*
X2000000Y-10300000D02*
X2000000Y-2700000D01*
X20300000Y-11000000D02*
X2700000Y-11000000D01*
X21000000Y-2700000D02*
X21000000Y-10300000D01*
X2700000Y-2000000D02*
X20300000Y-2000000D01*
D11*
X3380000Y-5980000D02*
X3420000Y-6020000D01*
X3420000Y-5980000D02*
X3380000Y-6020000D01*
X4680000Y-5580000D02*
X4720000Y-5620000D01*
X4720000Y-5580000D02*
X4680000Y-5620000D01*
X4680000Y-5680000D02*
X4720000Y-5720000D01*
X4720000Y-5680000D02*
X4680000Y-5720000D01*
X4680000Y-5780000D02*
X4720000Y-5820000D01*
X4720000Y-5780000D02*
X4680000Y-5820000D01*
X4680000Y-5880000D02*
X4720000Y-5920000D01*
X4720000Y-5880000D02*
X4680000Y-5920000D01*
X4680000Y-5980000D02*
X4720000Y-6020000D01*
X4720000Y-5980000D02*
X4680000Y-6020000D01*
X4680000Y-6080000D02*
X4720000Y-6120000D01*
X4720000Y-6080000D02*
X4680000Y-6120000D01*
X5380000Y-5980000D02*
X5420000Y-6020000D01*
X5420000Y-5980000D02*
X5380000Y-6020000D01*
X6280000Y-6080000D02*
X6320000Y-6120000D01*
X6320000Y-6080000D02*
X6280000Y-6120000D01*
X6580000Y-5980000D02*
X6620000Y-6020000D01*
X6620000Y-5980000D02*
X6580000Y-6020000D01*
X6780000Y-5780000D02*
X6820000Y-5820000D01*
X6820000Y-5780000D02*
X6780000Y-5820000D01*
X6980000Y-5880000D02*
X7020000Y-5920000D01*
X7020000Y-5880000D02*
X6980000Y-5920000D01*
X7080000Y-5580000D02*
X7120000Y-5620000D01*
X7120000Y-5580000D02*
X7080000Y-5620000D01*
X7280000Y-5680000D02*
X7320000Y-5720000D01*
X7320000Y-5680000D02*
X7280000Y-5720000D01*
X7480000Y-5580000D02*
X7520000Y-5620000D01*
X7520000Y-5580000D02*
X7480000Y-5620000D01*
X7580000Y-5880000D02*
X7620000Y-5920000D01*
X7620000Y-5880000D02*
X7580000Y-5920000D01*
X7780000Y-5780000D02*
X7820000Y-5820000D01*
X7820000Y-5780000D02*
X7780000Y-5820000D01*
X7880000Y-5980000D02*
X7920000Y-6020000D01*
X7920000Y-5980000D02*
X7880000Y-6020000D01*
X8280000Y-6080000D02*
X8320000Y-6120000D01*
X8320000Y-6080000D02*
X8280000Y-6120000D01*
X10080000Y-5980000D02*
X10120000Y-6020000D01*
X10120000Y-5980000D02*
X10080000Y-6020000D01*
X10080000Y-6080000D02*
X10120000Y-6120000D01*
X10120000Y-6080000D02*
X10080000Y-6120000D01*
X10580000Y-5780000D02*
X10620000Y-5820000D01*
X10620000Y-5780000D02*
X10580000Y-5820000D01*
X10780000Y-5880000D02*
X10820000Y-5920000D01*
X10820000Y-5880000D02*
X10780000Y-5920000D01*
X10880000Y-5580000D02*
X10920000Y-5620000D01*
X10920000Y-5580000D02*
X10880000Y-5620000D01*
X11080000Y-5680000D02*
X11120000Y-5720000D01*
X11120000Y-5680000D02*
X11080000Y-5720000D01*
X11280000Y-5580000D02*
X11320000Y-5620000D01*
X11320000Y-5580000D02*
X11280000Y-5620000D01*
X11380000Y-5880000D02*
X11420000Y-5920000D01*
X11420000Y-5880000D02*
X11380000Y-5920000D01*
X11580000Y-5780000D02*
X11620000Y-5820000D01*
X11620000Y-5780000D02*
X11580000Y-5820000D01*
X11980000Y-6080000D02*
X12020000Y-6120000D01*
X12020000Y-6080000D02*
X11980000Y-6120000D01*
X12080000Y-5980000D02*
X12120000Y-6020000D01*
X12120000Y-5980000D02*
X12080000Y-6020000D01*
X14180000Y-5980000D02*
X14220000Y-6020000D01*
X14220000Y-5980000D02*
X14180000Y-6020000D01*
X14280000Y-6080000D02*
X14320000Y-6120000D01*
X14320000Y-6080000D02*
X14280000Y-6120000D01*
X14580000Y-5780000D02*
X14620000Y-5820000D01*
X14620000Y-5780000D02*
X14580000Y-5820000D01*
X14780000Y-5880000D02*
X14820000Y-5920000D01*
X14820000Y-5880000D02*
X14780000Y-5920000D01*
X14980000Y-5680000D02*
X15020000Y-5720000D01*
X15020000Y-5680000D02*
X14980000Y-5720000D01*
X15080000Y-5580000D02*
X15120000Y-5620000D01*
X15120000Y-5580000D02*
X15080000Y-5620000D01*
X15280000Y-5580000D02*
X15320000Y-5620000D01*
X15320000Y-5580000D02*
X15280000Y-5620000D01*
X15280000Y-5680000D02*
X15320000Y-5720000D01*
X15320000Y-5680000D02*
X15280000Y-5720000D01*
X15580000Y-5880000D02*
X15620000Y-5920000D01*
X15620000Y-5880000D02*
X15580000Y-5920000D01*
X15780000Y-5780000D02*
X15820000Y-5820000D01*
X15820000Y-5780000D02*
X15780000Y-5820000D01*
X16080000Y-6080000D02*
X16120000Y-6120000D01*
X16120000Y-6080000D02*
X16080000Y-6120000D01*
X16280000Y-5980000D02*
X16320000Y-6020000D01*
X16320000Y-5980000D02*
X16280000Y-6020000D01*
X17980000Y-5980000D02*
X18020000Y-6020000D01*
X18020000Y-5980000D02*
X17980000Y-6020000D01*
X18180000Y-6080000D02*
X18220000Y-6120000D01*
X18220000Y-6080000D02*
X18180000Y-6120000D01*
X18480000Y-5780000D02*
X18520000Y-5820000D01*
X18520000Y-5780000D02*
X18480000Y-5820000D01*
X18680000Y-5880000D02*
X18720000Y-5920000D01*
X18720000Y-5880000D02*
X18680000Y-5920000D01*
X18780000Y-5880000D02*
X18820000Y-5920000D01*
X18820000Y-5880000D02*
X18780000Y-5920000D01*
X18980000Y-5580000D02*
X19020000Y-5620000D01*
X19020000Y-5580000D02*
X18980000Y-5620000D01*
X19180000Y-5680000D02*
X19220000Y-5720000D01*
X19220000Y-5680000D02*
X19180000Y-5720000D01*
X19280000Y-5580000D02*
X19320000Y-5620000D01*
X19320000Y-5580000D02*
X19280000Y-5620000D01*
X19480000Y-5880000D02*
X19520000Y-5920000D01*
X19520000Y-5880000D02*
X19480000Y-5920000D01*
X19680000Y-5780000D02*
X19720000Y-5820000D01*
X19720000Y-5780000D02*
X19680000Y-5820000D01*
X19980000Y-5980000D02*
X20020000Y-6020000D01*
X20020000Y-5980000D02*
X19980000Y-6020000D01*
X8335000Y-3808000D02*
G75*
G03X8335000Y-3808000I-35000J0D01*
G01*
X15835000Y-7992000D02*
G75*
G03X15835000Y-7992000I-35000J0D01*
G01*
X10935000Y-3300000D02*
G75*
G03X10935000Y-3300000I-35000J0D01*
G01*
X10935000Y-3808000D02*
G75*
G03X10935000Y-3808000I-35000J0D01*
G01*
X10635000Y-3300000D02*
G75*
G03X10635000Y-3300000I-35000J0D01*
G01*
X10635000Y-3808000D02*
G75*
G03X10635000Y-3808000I-35000J0D01*
G01*
X8335000Y-3300000D02*
G75*
G03X8335000Y-3300000I-35000J0D01*
G01*
X8635000Y-3292000D02*
G75*
G03X8635000Y-3292000I-35000J0D01*
G01*
X8635000Y-3800000D02*
G75*
G03X8635000Y-3800000I-35000J0D01*
G01*
X18835000Y-3300000D02*
G75*
G03X18835000Y-3300000I-35000J0D01*
G01*
X18835000Y-3808000D02*
G75*
G03X18835000Y-3808000I-35000J0D01*
G01*
X17935000Y-7992000D02*
G75*
G03X17935000Y-7992000I-35000J0D01*
G01*
X17935000Y-8500000D02*
G75*
G03X17935000Y-8500000I-35000J0D01*
G01*
X15835000Y-8500000D02*
G75*
G03X15835000Y-8500000I-35000J0D01*
G01*
X18535000Y-7992000D02*
G75*
G03X18535000Y-7992000I-35000J0D01*
G01*
X11635000Y-7892000D02*
G75*
G03X11635000Y-7892000I-35000J0D01*
G01*
X7435000Y-3300000D02*
G75*
G03X7435000Y-3300000I-35000J0D01*
G01*
X7435000Y-3808000D02*
G75*
G03X7435000Y-3808000I-35000J0D01*
G01*
X10335000Y-3300000D02*
G75*
G03X10335000Y-3300000I-35000J0D01*
G01*
X10335000Y-3808000D02*
G75*
G03X10335000Y-3808000I-35000J0D01*
G01*
X11635000Y-8400000D02*
G75*
G03X11635000Y-8400000I-35000J0D01*
G01*
X10135000Y-7892000D02*
G75*
G03X10135000Y-7892000I-35000J0D01*
G01*
X10135000Y-8400000D02*
G75*
G03X10135000Y-8400000I-35000J0D01*
G01*
X9835000Y-7892000D02*
G75*
G03X9835000Y-7892000I-35000J0D01*
G01*
X9835000Y-8400000D02*
G75*
G03X9835000Y-8400000I-35000J0D01*
G01*
X4535000Y-3300000D02*
G75*
G03X4535000Y-3300000I-35000J0D01*
G01*
X4535000Y-3808000D02*
G75*
G03X4535000Y-3808000I-35000J0D01*
G01*
X16135000Y-3300000D02*
G75*
G03X16135000Y-3300000I-35000J0D01*
G01*
X16135000Y-3808000D02*
G75*
G03X16135000Y-3808000I-35000J0D01*
G01*
X15835000Y-3808000D02*
G75*
G03X15835000Y-3808000I-35000J0D01*
G01*
X11935000Y-7892000D02*
G75*
G03X11935000Y-7892000I-35000J0D01*
G01*
X11935000Y-8400000D02*
G75*
G03X11935000Y-8400000I-35000J0D01*
G01*
X15535000Y-7992000D02*
G75*
G03X15535000Y-7992000I-35000J0D01*
G01*
X15535000Y-8500000D02*
G75*
G03X15535000Y-8500000I-35000J0D01*
G01*
X19135000Y-3808000D02*
G75*
G03X19135000Y-3808000I-35000J0D01*
G01*
X4235000Y-3300000D02*
G75*
G03X4235000Y-3300000I-35000J0D01*
G01*
X4235000Y-3808000D02*
G75*
G03X4235000Y-3808000I-35000J0D01*
G01*
X15535000Y-3300000D02*
G75*
G03X15535000Y-3300000I-35000J0D01*
G01*
X15535000Y-3808000D02*
G75*
G03X15535000Y-3808000I-35000J0D01*
G01*
X20035000Y-3300000D02*
G75*
G03X20035000Y-3300000I-35000J0D01*
G01*
X20035000Y-3808000D02*
G75*
G03X20035000Y-3808000I-35000J0D01*
G01*
X14935000Y-7992000D02*
G75*
G03X14935000Y-7992000I-35000J0D01*
G01*
X14935000Y-8500000D02*
G75*
G03X14935000Y-8500000I-35000J0D01*
G01*
X4835000Y-3808000D02*
G75*
G03X4835000Y-3808000I-35000J0D01*
G01*
X4835000Y-3300000D02*
G75*
G03X4835000Y-3300000I-35000J0D01*
G01*
X15235000Y-3300000D02*
G75*
G03X15235000Y-3300000I-35000J0D01*
G01*
X15835000Y-3300000D02*
G75*
G03X15835000Y-3300000I-35000J0D01*
G01*
X3935000Y-3300000D02*
G75*
G03X3935000Y-3300000I-35000J0D01*
G01*
X7735000Y-3300000D02*
G75*
G03X7735000Y-3300000I-35000J0D01*
G01*
X7735000Y-3808000D02*
G75*
G03X7735000Y-3808000I-35000J0D01*
G01*
X19435000Y-7992000D02*
G75*
G03X19435000Y-7992000I-35000J0D01*
G01*
X19435000Y-8500000D02*
G75*
G03X19435000Y-8500000I-35000J0D01*
G01*
X2735000Y-3300000D02*
G75*
G03X2735000Y-3300000I-35000J0D01*
G01*
X3935000Y-3808000D02*
G75*
G03X3935000Y-3808000I-35000J0D01*
G01*
X15235000Y-3808000D02*
G75*
G03X15235000Y-3808000I-35000J0D01*
G01*
X7135000Y-3300000D02*
G75*
G03X7135000Y-3300000I-35000J0D01*
G01*
X7135000Y-3808000D02*
G75*
G03X7135000Y-3808000I-35000J0D01*
G01*
X2735000Y-3808000D02*
G75*
G03X2735000Y-3808000I-35000J0D01*
G01*
X12435000Y-3300000D02*
G75*
G03X12435000Y-3300000I-35000J0D01*
G01*
X12435000Y-3808000D02*
G75*
G03X12435000Y-3808000I-35000J0D01*
G01*
X19135000Y-3300000D02*
G75*
G03X19135000Y-3300000I-35000J0D01*
G01*
X14635000Y-7992000D02*
G75*
G03X14635000Y-7992000I-35000J0D01*
G01*
X20035000Y-7992000D02*
G75*
G03X20035000Y-7992000I-35000J0D01*
G01*
X20035000Y-8500000D02*
G75*
G03X20035000Y-8500000I-35000J0D01*
G01*
X19735000Y-7992000D02*
G75*
G03X19735000Y-7992000I-35000J0D01*
G01*
X19735000Y-8500000D02*
G75*
G03X19735000Y-8500000I-35000J0D01*
G01*
X14335000Y-7992000D02*
G75*
G03X14335000Y-7992000I-35000J0D01*
G01*
X14335000Y-8500000D02*
G75*
G03X14335000Y-8500000I-35000J0D01*
G01*
X14635000Y-8500000D02*
G75*
G03X14635000Y-8500000I-35000J0D01*
G01*
X18535000Y-8500000D02*
G75*
G03X18535000Y-8500000I-35000J0D01*
G01*
X19735000Y-3300000D02*
G75*
G03X19735000Y-3300000I-35000J0D01*
G01*
X19735000Y-3808000D02*
G75*
G03X19735000Y-3808000I-35000J0D01*
G01*
X14935000Y-3300000D02*
G75*
G03X14935000Y-3300000I-35000J0D01*
G01*
X14935000Y-3808000D02*
G75*
G03X14935000Y-3808000I-35000J0D01*
G01*
X10435000Y-7892000D02*
G75*
G03X10435000Y-7892000I-35000J0D01*
G01*
X10435000Y-8400000D02*
G75*
G03X10435000Y-8400000I-35000J0D01*
G01*
X19135000Y-7992000D02*
G75*
G03X19135000Y-7992000I-35000J0D01*
G01*
X19135000Y-8500000D02*
G75*
G03X19135000Y-8500000I-35000J0D01*
G01*
X3035000Y-3300000D02*
G75*
G03X3035000Y-3300000I-35000J0D01*
G01*
X3035000Y-3808000D02*
G75*
G03X3035000Y-3808000I-35000J0D01*
G01*
X14335000Y-3300000D02*
G75*
G03X14335000Y-3300000I-35000J0D01*
G01*
X14335000Y-3808000D02*
G75*
G03X14335000Y-3808000I-35000J0D01*
G01*
X18235000Y-7992000D02*
G75*
G03X18235000Y-7992000I-35000J0D01*
G01*
X18235000Y-8500000D02*
G75*
G03X18235000Y-8500000I-35000J0D01*
G01*
X18835000Y-7992000D02*
G75*
G03X18835000Y-7992000I-35000J0D01*
G01*
X18835000Y-8500000D02*
G75*
G03X18835000Y-8500000I-35000J0D01*
G01*
X18235000Y-3300000D02*
G75*
G03X18235000Y-3300000I-35000J0D01*
G01*
X18235000Y-3808000D02*
G75*
G03X18235000Y-3808000I-35000J0D01*
G01*
X18535000Y-3300000D02*
G75*
G03X18535000Y-3300000I-35000J0D01*
G01*
X18535000Y-3808000D02*
G75*
G03X18535000Y-3808000I-35000J0D01*
G01*
X10735000Y-7892000D02*
G75*
G03X10735000Y-7892000I-35000J0D01*
G01*
X10735000Y-8400000D02*
G75*
G03X10735000Y-8400000I-35000J0D01*
G01*
X16435000Y-3292000D02*
G75*
G03X16435000Y-3292000I-35000J0D01*
G01*
X16435000Y-3800000D02*
G75*
G03X16435000Y-3800000I-35000J0D01*
G01*
X6535000Y-3300000D02*
G75*
G03X6535000Y-3300000I-35000J0D01*
G01*
X6535000Y-3808000D02*
G75*
G03X6535000Y-3808000I-35000J0D01*
G01*
X3335000Y-3300000D02*
G75*
G03X3335000Y-3300000I-35000J0D01*
G01*
X11535000Y-3808000D02*
G75*
G03X11535000Y-3808000I-35000J0D01*
G01*
X17935000Y-3300000D02*
G75*
G03X17935000Y-3300000I-35000J0D01*
G01*
X17935000Y-3808000D02*
G75*
G03X17935000Y-3808000I-35000J0D01*
G01*
X14035000Y-7992000D02*
G75*
G03X14035000Y-7992000I-35000J0D01*
G01*
X6835000Y-3300000D02*
G75*
G03X6835000Y-3300000I-35000J0D01*
G01*
X6835000Y-3808000D02*
G75*
G03X6835000Y-3808000I-35000J0D01*
G01*
X19435000Y-3808000D02*
G75*
G03X19435000Y-3808000I-35000J0D01*
G01*
X12135000Y-3300000D02*
G75*
G03X12135000Y-3300000I-35000J0D01*
G01*
X11835000Y-3300000D02*
G75*
G03X11835000Y-3300000I-35000J0D01*
G01*
X11835000Y-3808000D02*
G75*
G03X11835000Y-3808000I-35000J0D01*
G01*
X3335000Y-3808000D02*
G75*
G03X3335000Y-3808000I-35000J0D01*
G01*
X19435000Y-3300000D02*
G75*
G03X19435000Y-3300000I-35000J0D01*
G01*
X14035000Y-8500000D02*
G75*
G03X14035000Y-8500000I-35000J0D01*
G01*
X12135000Y-3808000D02*
G75*
G03X12135000Y-3808000I-35000J0D01*
G01*
X11235000Y-3300000D02*
G75*
G03X11235000Y-3300000I-35000J0D01*
G01*
X11235000Y-3808000D02*
G75*
G03X11235000Y-3808000I-35000J0D01*
G01*
X11335000Y-7892000D02*
G75*
G03X11335000Y-7892000I-35000J0D01*
G01*
X11335000Y-8400000D02*
G75*
G03X11335000Y-8400000I-35000J0D01*
G01*
X3635000Y-3300000D02*
G75*
G03X3635000Y-3300000I-35000J0D01*
G01*
X16135000Y-7992000D02*
G75*
G03X16135000Y-7992000I-35000J0D01*
G01*
X8035000Y-3808000D02*
G75*
G03X8035000Y-3808000I-35000J0D01*
G01*
X3635000Y-3808000D02*
G75*
G03X3635000Y-3808000I-35000J0D01*
G01*
X16135000Y-8500000D02*
G75*
G03X16135000Y-8500000I-35000J0D01*
G01*
X11535000Y-3300000D02*
G75*
G03X11535000Y-3300000I-35000J0D01*
G01*
X11035000Y-8400000D02*
G75*
G03X11035000Y-8400000I-35000J0D01*
G01*
X14635000Y-3300000D02*
G75*
G03X14635000Y-3300000I-35000J0D01*
G01*
X14635000Y-3808000D02*
G75*
G03X14635000Y-3808000I-35000J0D01*
G01*
X11035000Y-7892000D02*
G75*
G03X11035000Y-7892000I-35000J0D01*
G01*
X15235000Y-7992000D02*
G75*
G03X15235000Y-7992000I-35000J0D01*
G01*
X15235000Y-8500000D02*
G75*
G03X15235000Y-8500000I-35000J0D01*
G01*
X8035000Y-3300000D02*
G75*
G03X8035000Y-3300000I-35000J0D01*
G01*
X5400000Y-7062500D02*
X5400000Y-7137500D01*
X5362500Y-7100000D02*
X5437500Y-7100000D01*
X5527000Y-7062500D02*
X5527000Y-7137500D01*
X5489500Y-7100000D02*
X5564500Y-7100000D01*
X5654000Y-7062500D02*
X5654000Y-7137500D01*
X5616500Y-7100000D02*
X5691500Y-7100000D01*
X7100000Y-8062500D02*
X7100000Y-8137500D01*
X7062500Y-8100000D02*
X7137500Y-8100000D01*
X8473000Y-8062500D02*
X8473000Y-8137500D01*
X8435500Y-8100000D02*
X8510500Y-8100000D01*
X8600000Y-8062500D02*
X8600000Y-8137500D01*
X8562500Y-8100000D02*
X8637500Y-8100000D01*
X8727000Y-8062500D02*
X8727000Y-8137500D01*
X8689500Y-8100000D02*
X8764500Y-8100000D01*
X7800000Y-8062500D02*
X7800000Y-8137500D01*
X7762500Y-8100000D02*
X7837500Y-8100000D01*
X7927000Y-8062500D02*
X7927000Y-8137500D01*
X7889500Y-8100000D02*
X7964500Y-8100000D01*
X8054000Y-8062500D02*
X8054000Y-8137500D01*
X8016500Y-8100000D02*
X8091500Y-8100000D01*
X9200000Y-8062500D02*
X9200000Y-8137500D01*
X9162500Y-8100000D02*
X9237500Y-8100000D01*
X9327000Y-8062500D02*
X9327000Y-8137500D01*
X9289500Y-8100000D02*
X9364500Y-8100000D01*
X7227000Y-8062500D02*
X7227000Y-8137500D01*
X7189500Y-8100000D02*
X7264500Y-8100000D01*
X7354000Y-8062500D02*
X7354000Y-8137500D01*
X7316500Y-8100000D02*
X7391500Y-8100000D01*
X9454000Y-8062500D02*
X9454000Y-8137500D01*
X9416500Y-8100000D02*
X9491500Y-8100000D01*
X5827000Y-7862500D02*
X5827000Y-7937500D01*
X5789500Y-7900000D02*
X5864500Y-7900000D01*
X5954000Y-7862500D02*
X5954000Y-7937500D01*
X5916500Y-7900000D02*
X5991500Y-7900000D01*
X5400000Y-6362500D02*
X5400000Y-6437500D01*
X5362500Y-6400000D02*
X5437500Y-6400000D01*
X5527000Y-6362500D02*
X5527000Y-6437500D01*
X5489500Y-6400000D02*
X5564500Y-6400000D01*
X5654000Y-6362500D02*
X5654000Y-6437500D01*
X5616500Y-6400000D02*
X5691500Y-6400000D01*
X5700000Y-7862500D02*
X5700000Y-7937500D01*
X5662500Y-7900000D02*
X5737500Y-7900000D01*
X6400000Y-8062500D02*
X6400000Y-8137500D01*
X6362500Y-8100000D02*
X6437500Y-8100000D01*
X6527000Y-8062500D02*
X6527000Y-8137500D01*
X6489500Y-8100000D02*
X6564500Y-8100000D01*
X6654000Y-8062500D02*
X6654000Y-8137500D01*
X6616500Y-8100000D02*
X6691500Y-8100000D01*
X6528284Y-2828284D02*
X6528284Y-2771716D01*
X6471715Y-2771716D01*
X6471715Y-2828284D01*
X6528284Y-2828284D01*
X6728284Y-2828284D02*
X6728284Y-2771716D01*
X6671715Y-2771716D01*
X6671715Y-2828284D01*
X6728284Y-2828284D01*
X6928284Y-2828284D02*
X6928284Y-2771716D01*
X6871715Y-2771716D01*
X6871715Y-2828284D01*
X6928284Y-2828284D01*
X7128284Y-2828284D02*
X7128284Y-2771716D01*
X7071715Y-2771716D01*
X7071715Y-2828284D01*
X7128284Y-2828284D01*
X7328284Y-2828284D02*
X7328284Y-2771716D01*
X7271715Y-2771716D01*
X7271715Y-2828284D01*
X7328284Y-2828284D01*
X7528284Y-2828284D02*
X7528284Y-2771716D01*
X7471715Y-2771716D01*
X7471715Y-2828284D01*
X7528284Y-2828284D01*
X7728284Y-2828284D02*
X7728284Y-2771716D01*
X7671715Y-2771716D01*
X7671715Y-2828284D01*
X7728284Y-2828284D01*
X7928284Y-2828284D02*
X7928284Y-2771716D01*
X7871715Y-2771716D01*
X7871715Y-2828284D01*
X7928284Y-2828284D01*
X2750285Y-4428285D02*
X2750285Y-4371716D01*
X2693716Y-4371716D01*
X2693716Y-4428285D01*
X2750285Y-4428285D01*
X3004284Y-4428285D02*
X3004284Y-4371716D01*
X2947715Y-4371716D01*
X2947715Y-4428285D01*
X3004284Y-4428285D01*
X3004284Y-5190285D02*
X3004284Y-5133716D01*
X2947715Y-5133716D01*
X2947715Y-5190285D01*
X3004284Y-5190285D01*
X3258284Y-4428285D02*
X3258284Y-4371716D01*
X3201715Y-4371716D01*
X3201715Y-4428285D01*
X3258284Y-4428285D01*
X3258284Y-5190285D02*
X3258284Y-5133716D01*
X3201715Y-5133716D01*
X3201715Y-5190285D01*
X3258284Y-5190285D01*
X3512284Y-4428285D02*
X3512284Y-4371716D01*
X3455715Y-4371716D01*
X3455715Y-4428285D01*
X3512284Y-4428285D01*
X3512284Y-5190285D02*
X3512284Y-5133716D01*
X3455715Y-5133716D01*
X3455715Y-5190285D01*
X3512284Y-5190285D01*
X10328285Y-2828284D02*
X10328285Y-2771716D01*
X10271716Y-2771716D01*
X10271716Y-2828284D01*
X10328285Y-2828284D01*
X10528285Y-2828284D02*
X10528285Y-2771716D01*
X10471716Y-2771716D01*
X10471716Y-2828284D01*
X10528285Y-2828284D01*
X10728285Y-2828284D02*
X10728285Y-2771716D01*
X10671716Y-2771716D01*
X10671716Y-2828284D01*
X10728285Y-2828284D01*
X3766284Y-4428285D02*
X3766284Y-4371716D01*
X3709715Y-4371716D01*
X3709715Y-4428285D01*
X3766284Y-4428285D01*
X3766284Y-5190285D02*
X3766284Y-5133716D01*
X3709715Y-5133716D01*
X3709715Y-5190285D01*
X3766284Y-5190285D01*
X4020284Y-4428285D02*
X4020284Y-4371716D01*
X3963715Y-4371716D01*
X3963715Y-4428285D01*
X4020284Y-4428285D01*
X4020284Y-5190285D02*
X4020284Y-5133716D01*
X3963715Y-5133716D01*
X3963715Y-5190285D01*
X4020284Y-5190285D01*
X4274285Y-4428285D02*
X4274285Y-4371716D01*
X4217716Y-4371716D01*
X4217716Y-4428285D01*
X4274285Y-4428285D01*
X4274285Y-5190285D02*
X4274285Y-5133716D01*
X4217716Y-5133716D01*
X4217716Y-5190285D01*
X4274285Y-5190285D01*
X10928285Y-2828284D02*
X10928285Y-2771716D01*
X10871716Y-2771716D01*
X10871716Y-2828284D01*
X10928285Y-2828284D01*
X2750285Y-5190285D02*
X2750285Y-5133716D01*
X2693716Y-5133716D01*
X2693716Y-5190285D01*
X2750285Y-5190285D01*
X11128285Y-2828284D02*
X11128285Y-2771716D01*
X11071716Y-2771716D01*
X11071716Y-2828284D01*
X11128285Y-2828284D01*
X11328284Y-2828284D02*
X11328284Y-2771716D01*
X11271715Y-2771716D01*
X11271715Y-2828284D01*
X11328284Y-2828284D01*
X4528285Y-4428285D02*
X4528285Y-4371716D01*
X4471716Y-4371716D01*
X4471716Y-4428285D01*
X4528285Y-4428285D01*
X18228285Y-6666284D02*
X18228285Y-6609715D01*
X18171716Y-6609715D01*
X18171716Y-6666284D01*
X18228285Y-6666284D01*
X18228285Y-7428284D02*
X18228285Y-7371715D01*
X18171716Y-7371715D01*
X18171716Y-7428284D01*
X18228285Y-7428284D01*
X18482285Y-6666284D02*
X18482285Y-6609715D01*
X18425716Y-6609715D01*
X18425716Y-6666284D01*
X18482285Y-6666284D01*
X18482285Y-7428284D02*
X18482285Y-7371715D01*
X18425716Y-7371715D01*
X18425716Y-7428284D01*
X18482285Y-7428284D01*
X18736285Y-6666284D02*
X18736285Y-6609715D01*
X18679716Y-6609715D01*
X18679716Y-6666284D01*
X18736285Y-6666284D01*
X18736285Y-7428284D02*
X18736285Y-7371715D01*
X18679716Y-7371715D01*
X18679716Y-7428284D01*
X18736285Y-7428284D01*
X18990285Y-6666284D02*
X18990285Y-6609715D01*
X18933716Y-6609715D01*
X18933716Y-6666284D01*
X18990285Y-6666284D01*
X18990285Y-7428284D02*
X18990285Y-7371715D01*
X18933716Y-7371715D01*
X18933716Y-7428284D01*
X18990285Y-7428284D01*
X19244285Y-6666284D02*
X19244285Y-6609715D01*
X19187716Y-6609715D01*
X19187716Y-6666284D01*
X19244285Y-6666284D01*
X19244285Y-7428284D02*
X19244285Y-7371715D01*
X19187716Y-7371715D01*
X19187716Y-7428284D01*
X19244285Y-7428284D01*
X19498285Y-6666284D02*
X19498285Y-6609715D01*
X19441716Y-6609715D01*
X19441716Y-6666284D01*
X19498285Y-6666284D01*
X19498285Y-7428284D02*
X19498285Y-7371715D01*
X19441716Y-7371715D01*
X19441716Y-7428284D01*
X19498285Y-7428284D01*
X19752285Y-6666284D02*
X19752285Y-6609715D01*
X19695716Y-6609715D01*
X19695716Y-6666284D01*
X19752285Y-6666284D01*
X19752285Y-7428284D02*
X19752285Y-7371715D01*
X19695716Y-7371715D01*
X19695716Y-7428284D01*
X19752285Y-7428284D01*
X20006285Y-6666284D02*
X20006285Y-6609715D01*
X19949716Y-6609715D01*
X19949716Y-6666284D01*
X20006285Y-6666284D01*
X20006285Y-7428284D02*
X20006285Y-7371715D01*
X19949716Y-7371715D01*
X19949716Y-7428284D01*
X20006285Y-7428284D01*
X14350284Y-4428285D02*
X14350284Y-4371716D01*
X14293715Y-4371716D01*
X14293715Y-4428285D01*
X14350284Y-4428285D01*
X14350284Y-5190285D02*
X14350284Y-5133716D01*
X14293715Y-5133716D01*
X14293715Y-5190285D01*
X14350284Y-5190285D01*
X14604284Y-4428285D02*
X14604284Y-4371716D01*
X14547715Y-4371716D01*
X14547715Y-4428285D01*
X14604284Y-4428285D01*
X15112284Y-4428285D02*
X15112284Y-4371716D01*
X15055715Y-4371716D01*
X15055715Y-4428285D01*
X15112284Y-4428285D01*
X15112284Y-5190285D02*
X15112284Y-5133716D01*
X15055715Y-5133716D01*
X15055715Y-5190285D01*
X15112284Y-5190285D01*
X15366284Y-5190285D02*
X15366284Y-5133716D01*
X15309715Y-5133716D01*
X15309715Y-5190285D01*
X15366284Y-5190285D01*
X15620284Y-5190285D02*
X15620284Y-5133716D01*
X15563715Y-5133716D01*
X15563715Y-5190285D01*
X15620284Y-5190285D01*
X15874284Y-5190285D02*
X15874284Y-5133716D01*
X15817715Y-5133716D01*
X15817715Y-5190285D01*
X15874284Y-5190285D01*
X16128284Y-5190285D02*
X16128284Y-5133716D01*
X16071715Y-5133716D01*
X16071715Y-5190285D01*
X16128284Y-5190285D01*
X4528285Y-5190285D02*
X4528285Y-5133716D01*
X4471716Y-5133716D01*
X4471716Y-5190285D01*
X4528285Y-5190285D01*
X14604284Y-5190285D02*
X14604284Y-5133716D01*
X14547715Y-5133716D01*
X14547715Y-5190285D01*
X14604284Y-5190285D01*
X14858284Y-4428285D02*
X14858284Y-4371716D01*
X14801715Y-4371716D01*
X14801715Y-4428285D01*
X14858284Y-4428285D01*
X14858284Y-5190285D02*
X14858284Y-5133716D01*
X14801715Y-5133716D01*
X14801715Y-5190285D01*
X14858284Y-5190285D01*
X15366284Y-4428285D02*
X15366284Y-4371716D01*
X15309715Y-4371716D01*
X15309715Y-4428285D01*
X15366284Y-4428285D01*
X15620284Y-4428285D02*
X15620284Y-4371716D01*
X15563715Y-4371716D01*
X15563715Y-4428285D01*
X15620284Y-4428285D01*
X15874284Y-4428285D02*
X15874284Y-4371716D01*
X15817715Y-4371716D01*
X15817715Y-4428285D01*
X15874284Y-4428285D01*
X16128284Y-4428285D02*
X16128284Y-4371716D01*
X16071715Y-4371716D01*
X16071715Y-4428285D01*
X16128284Y-4428285D01*
X14328284Y-6666284D02*
X14328284Y-6609715D01*
X14271715Y-6609715D01*
X14271715Y-6666284D01*
X14328284Y-6666284D01*
X14328284Y-7428284D02*
X14328284Y-7371715D01*
X14271715Y-7371715D01*
X14271715Y-7428284D01*
X14328284Y-7428284D01*
X14582284Y-6666284D02*
X14582284Y-6609715D01*
X14525715Y-6609715D01*
X14525715Y-6666284D01*
X14582284Y-6666284D01*
X14582284Y-7428284D02*
X14582284Y-7371715D01*
X14525715Y-7371715D01*
X14525715Y-7428284D01*
X14582284Y-7428284D01*
X14836284Y-6666284D02*
X14836284Y-6609715D01*
X14779715Y-6609715D01*
X14779715Y-6666284D01*
X14836284Y-6666284D01*
X14836284Y-7428284D02*
X14836284Y-7371715D01*
X14779715Y-7371715D01*
X14779715Y-7428284D01*
X14836284Y-7428284D01*
X15090284Y-6666284D02*
X15090284Y-6609715D01*
X15033715Y-6609715D01*
X15033715Y-6666284D01*
X15090284Y-6666284D01*
X18250285Y-4428285D02*
X18250285Y-4371716D01*
X18193716Y-4371716D01*
X18193716Y-4428285D01*
X18250285Y-4428285D01*
X18250285Y-5190285D02*
X18250285Y-5133716D01*
X18193716Y-5133716D01*
X18193716Y-5190285D01*
X18250285Y-5190285D01*
X18504285Y-4428285D02*
X18504285Y-4371716D01*
X18447716Y-4371716D01*
X18447716Y-4428285D01*
X18504285Y-4428285D01*
X18504285Y-5190285D02*
X18504285Y-5133716D01*
X18447716Y-5133716D01*
X18447716Y-5190285D01*
X18504285Y-5190285D01*
X18758285Y-4428285D02*
X18758285Y-4371716D01*
X18701716Y-4371716D01*
X18701716Y-4428285D01*
X18758285Y-4428285D01*
X18758285Y-5190285D02*
X18758285Y-5133716D01*
X18701716Y-5133716D01*
X18701716Y-5190285D01*
X18758285Y-5190285D01*
X19012285Y-4428285D02*
X19012285Y-4371716D01*
X18955716Y-4371716D01*
X18955716Y-4428285D01*
X19012285Y-4428285D01*
X19012285Y-5190285D02*
X19012285Y-5133716D01*
X18955716Y-5133716D01*
X18955716Y-5190285D01*
X19012285Y-5190285D01*
X19266285Y-4428285D02*
X19266285Y-4371716D01*
X19209716Y-4371716D01*
X19209716Y-4428285D01*
X19266285Y-4428285D01*
X19266285Y-5190285D02*
X19266285Y-5133716D01*
X19209716Y-5133716D01*
X19209716Y-5190285D01*
X19266285Y-5190285D01*
X19520285Y-4428285D02*
X19520285Y-4371716D01*
X19463716Y-4371716D01*
X19463716Y-4428285D01*
X19520285Y-4428285D01*
X19520285Y-5190285D02*
X19520285Y-5133716D01*
X19463716Y-5133716D01*
X19463716Y-5190285D01*
X19520285Y-5190285D01*
X19774285Y-4428285D02*
X19774285Y-4371716D01*
X19717716Y-4371716D01*
X19717716Y-4428285D01*
X19774285Y-4428285D01*
X19774285Y-5190285D02*
X19774285Y-5133716D01*
X19717716Y-5133716D01*
X19717716Y-5190285D01*
X19774285Y-5190285D01*
X20028285Y-4428285D02*
X20028285Y-4371716D01*
X19971716Y-4371716D01*
X19971716Y-4428285D01*
X20028285Y-4428285D01*
X20028285Y-5190285D02*
X20028285Y-5133716D01*
X19971716Y-5133716D01*
X19971716Y-5190285D01*
X20028285Y-5190285D01*
X6328284Y-6728284D02*
X6328284Y-6671715D01*
X6271715Y-6671715D01*
X6271715Y-6728284D01*
X6328284Y-6728284D01*
X6328284Y-7490284D02*
X6328284Y-7433715D01*
X6271715Y-7433715D01*
X6271715Y-7490284D01*
X6328284Y-7490284D01*
X6582284Y-6728284D02*
X6582284Y-6671715D01*
X6525715Y-6671715D01*
X6525715Y-6728284D01*
X6582284Y-6728284D01*
X7344284Y-6728284D02*
X7344284Y-6671715D01*
X7287715Y-6671715D01*
X7287715Y-6728284D01*
X7344284Y-6728284D01*
X14728284Y-9128285D02*
X14728284Y-9071716D01*
X14671715Y-9071716D01*
X14671715Y-9128285D01*
X14728284Y-9128285D01*
X7090284Y-6728284D02*
X7090284Y-6671715D01*
X7033715Y-6671715D01*
X7033715Y-6728284D01*
X7090284Y-6728284D01*
X14928284Y-9128285D02*
X14928284Y-9071716D01*
X14871715Y-9071716D01*
X14871715Y-9128285D01*
X14928284Y-9128285D01*
X6836284Y-6728284D02*
X6836284Y-6671715D01*
X6779715Y-6671715D01*
X6779715Y-6728284D01*
X6836284Y-6728284D01*
X15128284Y-9128285D02*
X15128284Y-9071716D01*
X15071715Y-9071716D01*
X15071715Y-9128285D01*
X15128284Y-9128285D01*
X7090284Y-7490284D02*
X7090284Y-7433715D01*
X7033715Y-7433715D01*
X7033715Y-7490284D01*
X7090284Y-7490284D01*
X15328284Y-9128285D02*
X15328284Y-9071716D01*
X15271715Y-9071716D01*
X15271715Y-9128285D01*
X15328284Y-9128285D01*
X16106284Y-7428284D02*
X16106284Y-7371715D01*
X16049715Y-7371715D01*
X16049715Y-7428284D01*
X16106284Y-7428284D01*
X15528284Y-9128285D02*
X15528284Y-9071716D01*
X15471715Y-9071716D01*
X15471715Y-9128285D01*
X15528284Y-9128285D01*
X15852284Y-7428284D02*
X15852284Y-7371715D01*
X15795715Y-7371715D01*
X15795715Y-7428284D01*
X15852284Y-7428284D01*
X6836284Y-7490284D02*
X6836284Y-7433715D01*
X6779715Y-7433715D01*
X6779715Y-7490284D01*
X6836284Y-7490284D01*
X15598284Y-7428284D02*
X15598284Y-7371715D01*
X15541715Y-7371715D01*
X15541715Y-7428284D01*
X15598284Y-7428284D01*
X15728284Y-9128285D02*
X15728284Y-9071716D01*
X15671715Y-9071716D01*
X15671715Y-9128285D01*
X15728284Y-9128285D01*
X15344284Y-7428284D02*
X15344284Y-7371715D01*
X15287715Y-7371715D01*
X15287715Y-7428284D01*
X15344284Y-7428284D01*
X15344284Y-6666284D02*
X15344284Y-6609715D01*
X15287715Y-6609715D01*
X15287715Y-6666284D01*
X15344284Y-6666284D01*
X15090284Y-7428284D02*
X15090284Y-7371715D01*
X15033715Y-7371715D01*
X15033715Y-7428284D01*
X15090284Y-7428284D01*
X15598284Y-6666284D02*
X15598284Y-6609715D01*
X15541715Y-6609715D01*
X15541715Y-6666284D01*
X15598284Y-6666284D01*
X6582284Y-7490284D02*
X6582284Y-7433715D01*
X6525715Y-7433715D01*
X6525715Y-7490284D01*
X6582284Y-7490284D01*
X15852284Y-6666284D02*
X15852284Y-6609715D01*
X15795715Y-6609715D01*
X15795715Y-6666284D01*
X15852284Y-6666284D01*
X15928284Y-9128285D02*
X15928284Y-9071716D01*
X15871715Y-9071716D01*
X15871715Y-9128285D01*
X15928284Y-9128285D01*
X16106284Y-6666284D02*
X16106284Y-6609715D01*
X16049715Y-6609715D01*
X16049715Y-6666284D01*
X16106284Y-6666284D01*
X16128284Y-9128285D02*
X16128284Y-9071716D01*
X16071715Y-9071716D01*
X16071715Y-9128285D01*
X16128284Y-9128285D01*
X7344284Y-7490284D02*
X7344284Y-7433715D01*
X7287715Y-7433715D01*
X7287715Y-7490284D01*
X7344284Y-7490284D01*
X7598284Y-6728284D02*
X7598284Y-6671715D01*
X7541715Y-6671715D01*
X7541715Y-6728284D01*
X7598284Y-6728284D01*
X7598284Y-7490284D02*
X7598284Y-7433715D01*
X7541715Y-7433715D01*
X7541715Y-7490284D01*
X7598284Y-7490284D01*
X7852284Y-6728284D02*
X7852284Y-6671715D01*
X7795715Y-6671715D01*
X7795715Y-6728284D01*
X7852284Y-6728284D01*
X7852284Y-7490284D02*
X7852284Y-7433715D01*
X7795715Y-7433715D01*
X7795715Y-7490284D01*
X7852284Y-7490284D01*
X8106284Y-6728284D02*
X8106284Y-6671715D01*
X8049715Y-6671715D01*
X8049715Y-6728284D01*
X8106284Y-6728284D01*
X8106284Y-7490284D02*
X8106284Y-7433715D01*
X8049715Y-7433715D01*
X8049715Y-7490284D01*
X8106284Y-7490284D01*
X2728285Y-2828284D02*
X2728285Y-2771716D01*
X2671716Y-2771716D01*
X2671716Y-2828284D01*
X2728285Y-2828284D01*
X2928284Y-2828284D02*
X2928284Y-2771716D01*
X2871715Y-2771716D01*
X2871715Y-2828284D01*
X2928284Y-2828284D01*
X6550284Y-5190285D02*
X6550284Y-5133716D01*
X6493715Y-5133716D01*
X6493715Y-5190285D01*
X6550284Y-5190285D01*
X6550284Y-4428285D02*
X6550284Y-4371716D01*
X6493715Y-4371716D01*
X6493715Y-4428285D01*
X6550284Y-4428285D01*
X6804284Y-4428285D02*
X6804284Y-4371716D01*
X6747715Y-4371716D01*
X6747715Y-4428285D01*
X6804284Y-4428285D01*
X6804284Y-5190285D02*
X6804284Y-5133716D01*
X6747715Y-5133716D01*
X6747715Y-5190285D01*
X6804284Y-5190285D01*
X7058284Y-4428285D02*
X7058284Y-4371716D01*
X7001715Y-4371716D01*
X7001715Y-4428285D01*
X7058284Y-4428285D01*
X7058284Y-5190285D02*
X7058284Y-5133716D01*
X7001715Y-5133716D01*
X7001715Y-5190285D01*
X7058284Y-5190285D01*
X7312284Y-4428285D02*
X7312284Y-4371716D01*
X7255715Y-4371716D01*
X7255715Y-4428285D01*
X7312284Y-4428285D01*
X7312284Y-5190285D02*
X7312284Y-5133716D01*
X7255715Y-5133716D01*
X7255715Y-5190285D01*
X7312284Y-5190285D01*
X7566284Y-4428285D02*
X7566284Y-4371716D01*
X7509715Y-4371716D01*
X7509715Y-4428285D01*
X7566284Y-4428285D01*
X7566284Y-5190285D02*
X7566284Y-5133716D01*
X7509715Y-5133716D01*
X7509715Y-5190285D01*
X7566284Y-5190285D01*
X7820284Y-4428285D02*
X7820284Y-4371716D01*
X7763715Y-4371716D01*
X7763715Y-4428285D01*
X7820284Y-4428285D01*
X7820284Y-5190285D02*
X7820284Y-5133716D01*
X7763715Y-5133716D01*
X7763715Y-5190285D01*
X7820284Y-5190285D01*
X8074284Y-4428285D02*
X8074284Y-4371716D01*
X8017715Y-4371716D01*
X8017715Y-4428285D01*
X8074284Y-4428285D01*
X8074284Y-5190285D02*
X8074284Y-5133716D01*
X8017715Y-5133716D01*
X8017715Y-5190285D01*
X8074284Y-5190285D01*
X8328284Y-4428285D02*
X8328284Y-4371716D01*
X8271715Y-4371716D01*
X8271715Y-4428285D01*
X8328284Y-4428285D01*
X8328284Y-5190285D02*
X8328284Y-5133716D01*
X8271715Y-5133716D01*
X8271715Y-5190285D01*
X8328284Y-5190285D01*
X18228285Y-2828284D02*
X18228285Y-2771716D01*
X18171716Y-2771716D01*
X18171716Y-2828284D01*
X18228285Y-2828284D01*
X18428285Y-2828284D02*
X18428285Y-2771716D01*
X18371716Y-2771716D01*
X18371716Y-2828284D01*
X18428285Y-2828284D01*
X18628285Y-9128285D02*
X18628285Y-9071716D01*
X18571716Y-9071716D01*
X18571716Y-9128285D01*
X18628285Y-9128285D01*
X18828285Y-9128285D02*
X18828285Y-9071716D01*
X18771716Y-9071716D01*
X18771716Y-9128285D01*
X18828285Y-9128285D01*
X19028285Y-9128285D02*
X19028285Y-9071716D01*
X18971716Y-9071716D01*
X18971716Y-9128285D01*
X19028285Y-9128285D01*
X19228285Y-9128285D02*
X19228285Y-9071716D01*
X19171716Y-9071716D01*
X19171716Y-9128285D01*
X19228285Y-9128285D01*
X19428285Y-9128285D02*
X19428285Y-9071716D01*
X19371716Y-9071716D01*
X19371716Y-9128285D01*
X19428285Y-9128285D01*
X10928285Y-9128285D02*
X10928285Y-9071716D01*
X10871716Y-9071716D01*
X10871716Y-9128285D01*
X10928285Y-9128285D01*
X3128284Y-2828284D02*
X3128284Y-2771716D01*
X3071715Y-2771716D01*
X3071715Y-2828284D01*
X3128284Y-2828284D01*
X3328284Y-2828284D02*
X3328284Y-2771716D01*
X3271715Y-2771716D01*
X3271715Y-2828284D01*
X3328284Y-2828284D01*
X11128285Y-9128285D02*
X11128285Y-9071716D01*
X11071716Y-9071716D01*
X11071716Y-9128285D01*
X11128285Y-9128285D01*
X11328284Y-9128285D02*
X11328284Y-9071716D01*
X11271715Y-9071716D01*
X11271715Y-9128285D01*
X11328284Y-9128285D01*
X11528284Y-9128285D02*
X11528284Y-9071716D01*
X11471715Y-9071716D01*
X11471715Y-9128285D01*
X11528284Y-9128285D01*
X11728284Y-9128285D02*
X11728284Y-9071716D01*
X11671715Y-9071716D01*
X11671715Y-9128285D01*
X11728284Y-9128285D01*
X19628285Y-9128285D02*
X19628285Y-9071716D01*
X19571716Y-9071716D01*
X19571716Y-9128285D01*
X19628285Y-9128285D01*
X19828285Y-9128285D02*
X19828285Y-9071716D01*
X19771716Y-9071716D01*
X19771716Y-9128285D01*
X19828285Y-9128285D01*
X20028285Y-9128285D02*
X20028285Y-9071716D01*
X19971716Y-9071716D01*
X19971716Y-9128285D01*
X20028285Y-9128285D01*
X18828285Y-2828284D02*
X18828285Y-2771716D01*
X18771716Y-2771716D01*
X18771716Y-2828284D01*
X18828285Y-2828284D01*
X3528284Y-2828284D02*
X3528284Y-2771716D01*
X3471715Y-2771716D01*
X3471715Y-2828284D01*
X3528284Y-2828284D01*
X3728284Y-2828284D02*
X3728284Y-2771716D01*
X3671715Y-2771716D01*
X3671715Y-2828284D01*
X3728284Y-2828284D01*
X3928284Y-2828284D02*
X3928284Y-2771716D01*
X3871715Y-2771716D01*
X3871715Y-2828284D01*
X3928284Y-2828284D01*
X4128284Y-2828284D02*
X4128284Y-2771716D01*
X4071715Y-2771716D01*
X4071715Y-2828284D01*
X4128284Y-2828284D01*
X10728285Y-9128285D02*
X10728285Y-9071716D01*
X10671716Y-9071716D01*
X10671716Y-9128285D01*
X10728285Y-9128285D01*
X11928284Y-9128285D02*
X11928284Y-9071716D01*
X11871715Y-9071716D01*
X11871715Y-9128285D01*
X11928284Y-9128285D01*
X18628285Y-2828284D02*
X18628285Y-2771716D01*
X18571716Y-2771716D01*
X18571716Y-2828284D01*
X18628285Y-2828284D01*
X19028285Y-2828284D02*
X19028285Y-2771716D01*
X18971716Y-2771716D01*
X18971716Y-2828284D01*
X19028285Y-2828284D01*
X19228285Y-2828284D02*
X19228285Y-2771716D01*
X19171716Y-2771716D01*
X19171716Y-2828284D01*
X19228285Y-2828284D01*
X19428285Y-2828284D02*
X19428285Y-2771716D01*
X19371716Y-2771716D01*
X19371716Y-2828284D01*
X19428285Y-2828284D01*
X19628285Y-2828284D02*
X19628285Y-2771716D01*
X19571716Y-2771716D01*
X19571716Y-2828284D01*
X19628285Y-2828284D01*
X10528285Y-9128285D02*
X10528285Y-9071716D01*
X10471716Y-9071716D01*
X10471716Y-9128285D01*
X10528285Y-9128285D01*
X10350285Y-4428285D02*
X10350285Y-4371716D01*
X10293716Y-4371716D01*
X10293716Y-4428285D01*
X10350285Y-4428285D01*
X10350285Y-5190285D02*
X10350285Y-5133716D01*
X10293716Y-5133716D01*
X10293716Y-5190285D01*
X10350285Y-5190285D01*
X10604285Y-4428285D02*
X10604285Y-4371716D01*
X10547716Y-4371716D01*
X10547716Y-4428285D01*
X10604285Y-4428285D01*
X10604285Y-5190285D02*
X10604285Y-5133716D01*
X10547716Y-5133716D01*
X10547716Y-5190285D01*
X10604285Y-5190285D01*
X10858285Y-4428285D02*
X10858285Y-4371716D01*
X10801716Y-4371716D01*
X10801716Y-4428285D01*
X10858285Y-4428285D01*
X10858285Y-5190285D02*
X10858285Y-5133716D01*
X10801716Y-5133716D01*
X10801716Y-5190285D01*
X10858285Y-5190285D01*
X11112285Y-4428285D02*
X11112285Y-4371716D01*
X11055716Y-4371716D01*
X11055716Y-4428285D01*
X11112285Y-4428285D01*
X11112285Y-5190285D02*
X11112285Y-5133716D01*
X11055716Y-5133716D01*
X11055716Y-5190285D01*
X11112285Y-5190285D01*
X11366284Y-4428285D02*
X11366284Y-4371716D01*
X11309715Y-4371716D01*
X11309715Y-4428285D01*
X11366284Y-4428285D01*
X11366284Y-5190285D02*
X11366284Y-5133716D01*
X11309715Y-5133716D01*
X11309715Y-5190285D01*
X11366284Y-5190285D01*
X11620284Y-4428285D02*
X11620284Y-4371716D01*
X11563715Y-4371716D01*
X11563715Y-4428285D01*
X11620284Y-4428285D01*
X11620284Y-5190285D02*
X11620284Y-5133716D01*
X11563715Y-5133716D01*
X11563715Y-5190285D01*
X11620284Y-5190285D01*
X11874284Y-4428285D02*
X11874284Y-4371716D01*
X11817715Y-4371716D01*
X11817715Y-4428285D01*
X11874284Y-4428285D01*
X11874284Y-5190285D02*
X11874284Y-5133716D01*
X11817715Y-5133716D01*
X11817715Y-5190285D01*
X11874284Y-5190285D01*
X12128284Y-4428285D02*
X12128284Y-4371716D01*
X12071715Y-4371716D01*
X12071715Y-4428285D01*
X12128284Y-4428285D01*
X12128284Y-5190285D02*
X12128284Y-5133716D01*
X12071715Y-5133716D01*
X12071715Y-5190285D01*
X12128284Y-5190285D01*
X3204284Y-6328284D02*
X3204284Y-6271715D01*
X3147715Y-6271715D01*
X3147715Y-6328284D01*
X3204284Y-6328284D01*
X3204284Y-6582284D02*
X3204284Y-6525715D01*
X3147715Y-6525715D01*
X3147715Y-6582284D01*
X3204284Y-6582284D01*
X3204284Y-6836284D02*
X3204284Y-6779715D01*
X3147715Y-6779715D01*
X3147715Y-6836284D01*
X3204284Y-6836284D01*
X3204284Y-7090284D02*
X3204284Y-7033715D01*
X3147715Y-7033715D01*
X3147715Y-7090284D01*
X3204284Y-7090284D01*
X3204284Y-7344284D02*
X3204284Y-7287715D01*
X3147715Y-7287715D01*
X3147715Y-7344284D01*
X3204284Y-7344284D01*
X3204284Y-7598284D02*
X3204284Y-7541715D01*
X3147715Y-7541715D01*
X3147715Y-7598284D01*
X3204284Y-7598284D01*
X3204284Y-7852284D02*
X3204284Y-7795715D01*
X3147715Y-7795715D01*
X3147715Y-7852284D01*
X3204284Y-7852284D01*
X3204284Y-8106284D02*
X3204284Y-8049715D01*
X3147715Y-8049715D01*
X3147715Y-8106284D01*
X3204284Y-8106284D01*
X3204284Y-8360284D02*
X3204284Y-8303715D01*
X3147715Y-8303715D01*
X3147715Y-8360284D01*
X3204284Y-8360284D01*
X3204284Y-8614285D02*
X3204284Y-8557716D01*
X3147715Y-8557716D01*
X3147715Y-8614285D01*
X3204284Y-8614285D01*
X3204284Y-8868285D02*
X3204284Y-8811716D01*
X3147715Y-8811716D01*
X3147715Y-8868285D01*
X3204284Y-8868285D01*
X3204284Y-9122285D02*
X3204284Y-9065716D01*
X3147715Y-9065716D01*
X3147715Y-9122285D01*
X3204284Y-9122285D01*
X3204284Y-9376285D02*
X3204284Y-9319716D01*
X3147715Y-9319716D01*
X3147715Y-9376285D01*
X3204284Y-9376285D01*
X3204284Y-9630285D02*
X3204284Y-9573716D01*
X3147715Y-9573716D01*
X3147715Y-9630285D01*
X3204284Y-9630285D01*
X3204284Y-9884285D02*
X3204284Y-9827716D01*
X3147715Y-9827716D01*
X3147715Y-9884285D01*
X3204284Y-9884285D01*
X4728285Y-6328284D02*
X4728285Y-6271715D01*
X4671716Y-6271715D01*
X4671716Y-6328284D01*
X4728285Y-6328284D01*
X11528284Y-2828284D02*
X11528284Y-2771716D01*
X11471715Y-2771716D01*
X11471715Y-2828284D01*
X11528284Y-2828284D01*
X11728284Y-2828284D02*
X11728284Y-2771716D01*
X11671715Y-2771716D01*
X11671715Y-2828284D01*
X11728284Y-2828284D01*
X14328284Y-2828284D02*
X14328284Y-2771716D01*
X14271715Y-2771716D01*
X14271715Y-2828284D01*
X14328284Y-2828284D01*
X14528284Y-2828284D02*
X14528284Y-2771716D01*
X14471715Y-2771716D01*
X14471715Y-2828284D01*
X14528284Y-2828284D01*
X14728284Y-2828284D02*
X14728284Y-2771716D01*
X14671715Y-2771716D01*
X14671715Y-2828284D01*
X14728284Y-2828284D01*
X14928284Y-2828284D02*
X14928284Y-2771716D01*
X14871715Y-2771716D01*
X14871715Y-2828284D01*
X14928284Y-2828284D01*
X4728285Y-7090284D02*
X4728285Y-7033715D01*
X4671716Y-7033715D01*
X4671716Y-7090284D01*
X4728285Y-7090284D01*
X4728285Y-6582284D02*
X4728285Y-6525715D01*
X4671716Y-6525715D01*
X4671716Y-6582284D01*
X4728285Y-6582284D01*
X4728285Y-6836284D02*
X4728285Y-6779715D01*
X4671716Y-6779715D01*
X4671716Y-6836284D01*
X4728285Y-6836284D01*
X4728285Y-7344284D02*
X4728285Y-7287715D01*
X4671716Y-7287715D01*
X4671716Y-7344284D01*
X4728285Y-7344284D01*
X4728285Y-8106284D02*
X4728285Y-8049715D01*
X4671716Y-8049715D01*
X4671716Y-8106284D01*
X4728285Y-8106284D01*
X4728285Y-8868285D02*
X4728285Y-8811716D01*
X4671716Y-8811716D01*
X4671716Y-8868285D01*
X4728285Y-8868285D01*
X4728285Y-9122285D02*
X4728285Y-9065716D01*
X4671716Y-9065716D01*
X4671716Y-9122285D01*
X4728285Y-9122285D01*
X4728285Y-9376285D02*
X4728285Y-9319716D01*
X4671716Y-9319716D01*
X4671716Y-9376285D01*
X4728285Y-9376285D01*
X4728285Y-9630285D02*
X4728285Y-9573716D01*
X4671716Y-9573716D01*
X4671716Y-9630285D01*
X4728285Y-9630285D01*
X4728285Y-9884285D02*
X4728285Y-9827716D01*
X4671716Y-9827716D01*
X4671716Y-9884285D01*
X4728285Y-9884285D01*
X15128284Y-2828284D02*
X15128284Y-2771716D01*
X15071715Y-2771716D01*
X15071715Y-2828284D01*
X15128284Y-2828284D01*
X15328284Y-2828284D02*
X15328284Y-2771716D01*
X15271715Y-2771716D01*
X15271715Y-2828284D01*
X15328284Y-2828284D01*
X15528284Y-2828284D02*
X15528284Y-2771716D01*
X15471715Y-2771716D01*
X15471715Y-2828284D01*
X15528284Y-2828284D01*
X4728285Y-7598284D02*
X4728285Y-7541715D01*
X4671716Y-7541715D01*
X4671716Y-7598284D01*
X4728285Y-7598284D01*
X4728285Y-7852284D02*
X4728285Y-7795715D01*
X4671716Y-7795715D01*
X4671716Y-7852284D01*
X4728285Y-7852284D01*
X4728285Y-8360284D02*
X4728285Y-8303715D01*
X4671716Y-8303715D01*
X4671716Y-8360284D01*
X4728285Y-8360284D01*
X4728285Y-8614285D02*
X4728285Y-8557716D01*
X4671716Y-8557716D01*
X4671716Y-8614285D01*
X4728285Y-8614285D01*
X15728284Y-2828284D02*
X15728284Y-2771716D01*
X15671715Y-2771716D01*
X15671715Y-2828284D01*
X15728284Y-2828284D01*
X10128285Y-6666284D02*
X10128285Y-6609715D01*
X10071716Y-6609715D01*
X10071716Y-6666284D01*
X10128285Y-6666284D01*
X10128285Y-7428284D02*
X10128285Y-7371715D01*
X10071716Y-7371715D01*
X10071716Y-7428284D01*
X10128285Y-7428284D01*
X10382285Y-6666284D02*
X10382285Y-6609715D01*
X10325716Y-6609715D01*
X10325716Y-6666284D01*
X10382285Y-6666284D01*
X10382285Y-7428284D02*
X10382285Y-7371715D01*
X10325716Y-7371715D01*
X10325716Y-7428284D01*
X10382285Y-7428284D01*
X10636285Y-6666284D02*
X10636285Y-6609715D01*
X10579716Y-6609715D01*
X10579716Y-6666284D01*
X10636285Y-6666284D01*
X10636285Y-7428284D02*
X10636285Y-7371715D01*
X10579716Y-7371715D01*
X10579716Y-7428284D01*
X10636285Y-7428284D01*
X10890285Y-6666284D02*
X10890285Y-6609715D01*
X10833716Y-6609715D01*
X10833716Y-6666284D01*
X10890285Y-6666284D01*
X10890285Y-7428284D02*
X10890285Y-7371715D01*
X10833716Y-7371715D01*
X10833716Y-7428284D01*
X10890285Y-7428284D01*
X11144285Y-6666284D02*
X11144285Y-6609715D01*
X11087716Y-6609715D01*
X11087716Y-6666284D01*
X11144285Y-6666284D01*
X11144285Y-7428284D02*
X11144285Y-7371715D01*
X11087716Y-7371715D01*
X11087716Y-7428284D01*
X11144285Y-7428284D01*
X11398284Y-6666284D02*
X11398284Y-6609715D01*
X11341715Y-6609715D01*
X11341715Y-6666284D01*
X11398284Y-6666284D01*
X11398284Y-7428284D02*
X11398284Y-7371715D01*
X11341715Y-7371715D01*
X11341715Y-7428284D01*
X11398284Y-7428284D01*
X11652284Y-6666284D02*
X11652284Y-6609715D01*
X11595715Y-6609715D01*
X11595715Y-6666284D01*
X11652284Y-6666284D01*
X11652284Y-7428284D02*
X11652284Y-7371715D01*
X11595715Y-7371715D01*
X11595715Y-7428284D01*
X11652284Y-7428284D01*
X11906284Y-7428284D02*
X11906284Y-7371715D01*
X11849715Y-7371715D01*
X11849715Y-7428284D01*
X11906284Y-7428284D01*
X5328285Y-7728284D02*
X5328285Y-7671715D01*
X5271716Y-7671715D01*
X5271716Y-7728284D01*
X5328285Y-7728284D01*
X5328285Y-7928284D02*
X5328285Y-7871715D01*
X5271716Y-7871715D01*
X5271716Y-7928284D01*
X5328285Y-7928284D01*
X5328285Y-8128284D02*
X5328285Y-8071715D01*
X5271716Y-8071715D01*
X5271716Y-8128284D01*
X5328285Y-8128284D01*
X5328285Y-8328284D02*
X5328285Y-8271715D01*
X5271716Y-8271715D01*
X5271716Y-8328284D01*
X5328285Y-8328284D01*
X5328285Y-8528285D02*
X5328285Y-8471716D01*
X5271716Y-8471716D01*
X5271716Y-8528285D01*
X5328285Y-8528285D01*
X5328285Y-8728285D02*
X5328285Y-8671716D01*
X5271716Y-8671716D01*
X5271716Y-8728285D01*
X5328285Y-8728285D01*
X5328285Y-8928285D02*
X5328285Y-8871716D01*
X5271716Y-8871716D01*
X5271716Y-8928285D01*
X5328285Y-8928285D01*
X5328285Y-9128285D02*
X5328285Y-9071716D01*
X5271716Y-9071716D01*
X5271716Y-9128285D01*
X5328285Y-9128285D01*
X11906284Y-6666284D02*
X11906284Y-6609715D01*
X11849715Y-6609715D01*
X11849715Y-6666284D01*
X11906284Y-6666284D01*
X9300000Y-9780000D02*
X9380000Y-9700000D01*
X9300000Y-9620000D01*
X9220000Y-9700000D01*
X9300000Y-9780000D01*
X9300000Y-10380000D02*
X9380000Y-10300000D01*
X9300000Y-10220000D01*
X9220000Y-10300000D01*
X9300000Y-10380000D01*
X9770000Y-10080000D02*
X9850000Y-10000000D01*
X9770000Y-9920000D01*
X9690000Y-10000000D01*
X9770000Y-10080000D01*
D12*
X2283928Y-11468214D02*
X2283928Y-11168214D01*
X2355357Y-11168214D01*
X2398214Y-11182500D01*
X2426786Y-11211071D01*
X2441071Y-11239643D01*
X2455357Y-11296786D01*
X2455357Y-11339643D01*
X2441071Y-11396786D01*
X2426786Y-11425357D01*
X2398214Y-11453929D01*
X2355357Y-11468214D01*
X2283928Y-11468214D01*
X2583928Y-11468214D02*
X2583928Y-11268214D01*
X2583928Y-11325357D02*
X2598214Y-11296786D01*
X2612500Y-11282500D01*
X2641071Y-11268214D01*
X2669643Y-11268214D01*
X2769643Y-11468214D02*
X2769643Y-11268214D01*
X2769643Y-11168214D02*
X2755357Y-11182500D01*
X2769643Y-11196786D01*
X2783928Y-11182500D01*
X2769643Y-11168214D01*
X2769643Y-11196786D01*
X2955357Y-11468214D02*
X2926786Y-11453929D01*
X2912500Y-11425357D01*
X2912500Y-11168214D01*
X3112500Y-11468214D02*
X3083928Y-11453929D01*
X3069643Y-11425357D01*
X3069643Y-11168214D01*
X3455357Y-11468214D02*
X3455357Y-11168214D01*
X3555357Y-11382500D01*
X3655357Y-11168214D01*
X3655357Y-11468214D01*
X3926786Y-11468214D02*
X3926786Y-11311071D01*
X3912500Y-11282500D01*
X3883928Y-11268214D01*
X3826786Y-11268214D01*
X3798214Y-11282500D01*
X3926786Y-11453929D02*
X3898214Y-11468214D01*
X3826786Y-11468214D01*
X3798214Y-11453929D01*
X3783928Y-11425357D01*
X3783928Y-11396786D01*
X3798214Y-11368214D01*
X3826786Y-11353929D01*
X3898214Y-11353929D01*
X3926786Y-11339643D01*
X4069643Y-11268214D02*
X4069643Y-11568214D01*
X4069643Y-11282500D02*
X4098214Y-11268214D01*
X4155357Y-11268214D01*
X4183928Y-11282500D01*
X4198214Y-11296786D01*
X4212500Y-11325357D01*
X4212500Y-11411071D01*
X4198214Y-11439643D01*
X4183928Y-11453929D01*
X4155357Y-11468214D01*
X4098214Y-11468214D01*
X4069643Y-11453929D01*
X4341071Y-11439643D02*
X4355357Y-11453929D01*
X4341071Y-11468214D01*
X4326786Y-11453929D01*
X4341071Y-11439643D01*
X4341071Y-11468214D01*
X4341071Y-11282500D02*
X4355357Y-11296786D01*
X4341071Y-11311071D01*
X4326786Y-11296786D01*
X4341071Y-11282500D01*
X4341071Y-11311071D01*
X1957500Y-11942500D02*
X1997500Y-11982500D01*
X1997500Y-11942500D02*
X1957500Y-11982500D01*
X2341071Y-11798214D02*
X2369643Y-11798214D01*
X2398214Y-11812500D01*
X2412500Y-11826786D01*
X2426786Y-11855357D01*
X2441071Y-11912500D01*
X2441071Y-11983929D01*
X2426786Y-12041071D01*
X2412500Y-12069643D01*
X2398214Y-12083929D01*
X2369643Y-12098214D01*
X2341071Y-12098214D01*
X2312500Y-12083929D01*
X2298214Y-12069643D01*
X2283928Y-12041071D01*
X2269643Y-11983929D01*
X2269643Y-11912500D01*
X2283928Y-11855357D01*
X2298214Y-11826786D01*
X2312500Y-11812500D01*
X2341071Y-11798214D01*
X2569643Y-12069643D02*
X2583928Y-12083929D01*
X2569643Y-12098214D01*
X2555357Y-12083929D01*
X2569643Y-12069643D01*
X2569643Y-12098214D01*
X2841071Y-11898214D02*
X2841071Y-12098214D01*
X2769643Y-11783929D02*
X2698214Y-11998214D01*
X2883928Y-11998214D01*
X3055357Y-11798214D02*
X3083928Y-11798214D01*
X3112500Y-11812500D01*
X3126786Y-11826786D01*
X3141071Y-11855357D01*
X3155357Y-11912500D01*
X3155357Y-11983929D01*
X3141071Y-12041071D01*
X3126786Y-12069643D01*
X3112500Y-12083929D01*
X3083928Y-12098214D01*
X3055357Y-12098214D01*
X3026786Y-12083929D01*
X3012500Y-12069643D01*
X2998214Y-12041071D01*
X2983928Y-11983929D01*
X2983928Y-11912500D01*
X2998214Y-11855357D01*
X3012500Y-11826786D01*
X3026786Y-11812500D01*
X3055357Y-11798214D01*
X3283928Y-12098214D02*
X3283928Y-11898214D01*
X3283928Y-11926786D02*
X3298214Y-11912500D01*
X3326786Y-11898214D01*
X3369643Y-11898214D01*
X3398214Y-11912500D01*
X3412500Y-11941071D01*
X3412500Y-12098214D01*
X3412500Y-11941071D02*
X3426786Y-11912500D01*
X3455357Y-11898214D01*
X3498214Y-11898214D01*
X3526786Y-11912500D01*
X3541071Y-11941071D01*
X3541071Y-12098214D01*
X3683928Y-12098214D02*
X3683928Y-11898214D01*
X3683928Y-11926786D02*
X3698214Y-11912500D01*
X3726786Y-11898214D01*
X3769643Y-11898214D01*
X3798214Y-11912500D01*
X3812500Y-11941071D01*
X3812500Y-12098214D01*
X3812500Y-11941071D02*
X3826786Y-11912500D01*
X3855357Y-11898214D01*
X3898214Y-11898214D01*
X3926786Y-11912500D01*
X3941071Y-11941071D01*
X3941071Y-12098214D01*
X4526786Y-11783929D02*
X4269643Y-12169643D01*
X4912500Y-11798214D02*
X4941071Y-11798214D01*
X4969643Y-11812500D01*
X4983928Y-11826786D01*
X4998214Y-11855357D01*
X5012500Y-11912500D01*
X5012500Y-11983929D01*
X4998214Y-12041071D01*
X4983928Y-12069643D01*
X4969643Y-12083929D01*
X4941071Y-12098214D01*
X4912500Y-12098214D01*
X4883928Y-12083929D01*
X4869643Y-12069643D01*
X4855357Y-12041071D01*
X4841071Y-11983929D01*
X4841071Y-11912500D01*
X4855357Y-11855357D01*
X4869643Y-11826786D01*
X4883928Y-11812500D01*
X4912500Y-11798214D01*
X5141071Y-12069643D02*
X5155357Y-12083929D01*
X5141071Y-12098214D01*
X5126786Y-12083929D01*
X5141071Y-12069643D01*
X5141071Y-12098214D01*
X5341071Y-11798214D02*
X5369643Y-11798214D01*
X5398214Y-11812500D01*
X5412500Y-11826786D01*
X5426786Y-11855357D01*
X5441071Y-11912500D01*
X5441071Y-11983929D01*
X5426786Y-12041071D01*
X5412500Y-12069643D01*
X5398214Y-12083929D01*
X5369643Y-12098214D01*
X5341071Y-12098214D01*
X5312500Y-12083929D01*
X5298214Y-12069643D01*
X5283928Y-12041071D01*
X5269643Y-11983929D01*
X5269643Y-11912500D01*
X5283928Y-11855357D01*
X5298214Y-11826786D01*
X5312500Y-11812500D01*
X5341071Y-11798214D01*
X5726786Y-12098214D02*
X5555357Y-12098214D01*
X5641071Y-12098214D02*
X5641071Y-11798214D01*
X5612500Y-11841071D01*
X5583928Y-11869643D01*
X5555357Y-11883929D01*
X5983928Y-11798214D02*
X5926786Y-11798214D01*
X5898214Y-11812500D01*
X5883928Y-11826786D01*
X5855357Y-11869643D01*
X5841071Y-11926786D01*
X5841071Y-12041071D01*
X5855357Y-12069643D01*
X5869643Y-12083929D01*
X5898214Y-12098214D01*
X5955357Y-12098214D01*
X5983928Y-12083929D01*
X5998214Y-12069643D01*
X6012500Y-12041071D01*
X6012500Y-11969643D01*
X5998214Y-11941071D01*
X5983928Y-11926786D01*
X5955357Y-11912500D01*
X5898214Y-11912500D01*
X5869643Y-11926786D01*
X5855357Y-11941071D01*
X5841071Y-11969643D01*
X6126786Y-11798214D02*
X6126786Y-11855357D01*
X6241071Y-11798214D02*
X6241071Y-11855357D01*
X6683928Y-12212500D02*
X6669643Y-12198214D01*
X6641071Y-12155357D01*
X6626786Y-12126786D01*
X6612500Y-12083929D01*
X6598214Y-12012500D01*
X6598214Y-11955357D01*
X6612500Y-11883929D01*
X6626786Y-11841071D01*
X6641071Y-11812500D01*
X6669643Y-11769643D01*
X6683928Y-11755357D01*
X6941071Y-11798214D02*
X6798214Y-11798214D01*
X6783928Y-11941071D01*
X6798214Y-11926786D01*
X6826786Y-11912500D01*
X6898214Y-11912500D01*
X6926786Y-11926786D01*
X6941071Y-11941071D01*
X6955357Y-11969643D01*
X6955357Y-12041071D01*
X6941071Y-12069643D01*
X6926786Y-12083929D01*
X6898214Y-12098214D01*
X6826786Y-12098214D01*
X6798214Y-12083929D01*
X6783928Y-12069643D01*
X7055357Y-11798214D02*
X7241071Y-11798214D01*
X7141071Y-11912500D01*
X7183928Y-11912500D01*
X7212500Y-11926786D01*
X7226786Y-11941071D01*
X7241071Y-11969643D01*
X7241071Y-12041071D01*
X7226786Y-12069643D01*
X7212500Y-12083929D01*
X7183928Y-12098214D01*
X7098214Y-12098214D01*
X7069643Y-12083929D01*
X7055357Y-12069643D01*
X7598214Y-12098214D02*
X7598214Y-11798214D01*
X7726786Y-12098214D02*
X7726786Y-11941071D01*
X7712500Y-11912500D01*
X7683928Y-11898214D01*
X7641071Y-11898214D01*
X7612500Y-11912500D01*
X7598214Y-11926786D01*
X7912500Y-12098214D02*
X7883928Y-12083929D01*
X7869643Y-12069643D01*
X7855357Y-12041071D01*
X7855357Y-11955357D01*
X7869643Y-11926786D01*
X7883928Y-11912500D01*
X7912500Y-11898214D01*
X7955357Y-11898214D01*
X7983928Y-11912500D01*
X7998214Y-11926786D01*
X8012500Y-11955357D01*
X8012500Y-12041071D01*
X7998214Y-12069643D01*
X7983928Y-12083929D01*
X7955357Y-12098214D01*
X7912500Y-12098214D01*
X8183928Y-12098214D02*
X8155357Y-12083929D01*
X8141071Y-12055357D01*
X8141071Y-11798214D01*
X8412500Y-12083929D02*
X8383928Y-12098214D01*
X8326786Y-12098214D01*
X8298214Y-12083929D01*
X8283928Y-12055357D01*
X8283928Y-11941071D01*
X8298214Y-11912500D01*
X8326786Y-11898214D01*
X8383928Y-11898214D01*
X8412500Y-11912500D01*
X8426786Y-11941071D01*
X8426786Y-11969643D01*
X8283928Y-11998214D01*
X8541071Y-12083929D02*
X8569643Y-12098214D01*
X8626786Y-12098214D01*
X8655357Y-12083929D01*
X8669643Y-12055357D01*
X8669643Y-12041071D01*
X8655357Y-12012500D01*
X8626786Y-11998214D01*
X8583928Y-11998214D01*
X8555357Y-11983929D01*
X8541071Y-11955357D01*
X8541071Y-11941071D01*
X8555357Y-11912500D01*
X8583928Y-11898214D01*
X8626786Y-11898214D01*
X8655357Y-11912500D01*
X8769643Y-12212500D02*
X8783928Y-12198214D01*
X8812500Y-12155357D01*
X8826786Y-12126786D01*
X8841071Y-12083929D01*
X8855357Y-12012500D01*
X8855357Y-11955357D01*
X8841071Y-11883929D01*
X8826786Y-11841071D01*
X8812500Y-11812500D01*
X8783928Y-11769643D01*
X8769643Y-11755357D01*
X1997500Y-12358500D02*
G75*
G03X1997500Y-12358500I-35000J0D01*
G01*
X2341071Y-12194214D02*
X2369643Y-12194214D01*
X2398214Y-12208500D01*
X2412500Y-12222786D01*
X2426786Y-12251357D01*
X2441071Y-12308500D01*
X2441071Y-12379929D01*
X2426786Y-12437071D01*
X2412500Y-12465643D01*
X2398214Y-12479929D01*
X2369643Y-12494214D01*
X2341071Y-12494214D01*
X2312500Y-12479929D01*
X2298214Y-12465643D01*
X2283928Y-12437071D01*
X2269643Y-12379929D01*
X2269643Y-12308500D01*
X2283928Y-12251357D01*
X2298214Y-12222786D01*
X2312500Y-12208500D01*
X2341071Y-12194214D01*
X2569643Y-12465643D02*
X2583928Y-12479929D01*
X2569643Y-12494214D01*
X2555357Y-12479929D01*
X2569643Y-12465643D01*
X2569643Y-12494214D01*
X2683928Y-12194214D02*
X2883928Y-12194214D01*
X2755357Y-12494214D01*
X3055357Y-12194214D02*
X3083928Y-12194214D01*
X3112500Y-12208500D01*
X3126786Y-12222786D01*
X3141071Y-12251357D01*
X3155357Y-12308500D01*
X3155357Y-12379929D01*
X3141071Y-12437071D01*
X3126786Y-12465643D01*
X3112500Y-12479929D01*
X3083928Y-12494214D01*
X3055357Y-12494214D01*
X3026786Y-12479929D01*
X3012500Y-12465643D01*
X2998214Y-12437071D01*
X2983928Y-12379929D01*
X2983928Y-12308500D01*
X2998214Y-12251357D01*
X3012500Y-12222786D01*
X3026786Y-12208500D01*
X3055357Y-12194214D01*
X3283928Y-12494214D02*
X3283928Y-12294214D01*
X3283928Y-12322786D02*
X3298214Y-12308500D01*
X3326786Y-12294214D01*
X3369643Y-12294214D01*
X3398214Y-12308500D01*
X3412500Y-12337071D01*
X3412500Y-12494214D01*
X3412500Y-12337071D02*
X3426786Y-12308500D01*
X3455357Y-12294214D01*
X3498214Y-12294214D01*
X3526786Y-12308500D01*
X3541071Y-12337071D01*
X3541071Y-12494214D01*
X3683928Y-12494214D02*
X3683928Y-12294214D01*
X3683928Y-12322786D02*
X3698214Y-12308500D01*
X3726786Y-12294214D01*
X3769643Y-12294214D01*
X3798214Y-12308500D01*
X3812500Y-12337071D01*
X3812500Y-12494214D01*
X3812500Y-12337071D02*
X3826786Y-12308500D01*
X3855357Y-12294214D01*
X3898214Y-12294214D01*
X3926786Y-12308500D01*
X3941071Y-12337071D01*
X3941071Y-12494214D01*
X4526786Y-12179929D02*
X4269643Y-12565643D01*
X4912500Y-12194214D02*
X4941071Y-12194214D01*
X4969643Y-12208500D01*
X4983928Y-12222786D01*
X4998214Y-12251357D01*
X5012500Y-12308500D01*
X5012500Y-12379929D01*
X4998214Y-12437071D01*
X4983928Y-12465643D01*
X4969643Y-12479929D01*
X4941071Y-12494214D01*
X4912500Y-12494214D01*
X4883928Y-12479929D01*
X4869643Y-12465643D01*
X4855357Y-12437071D01*
X4841071Y-12379929D01*
X4841071Y-12308500D01*
X4855357Y-12251357D01*
X4869643Y-12222786D01*
X4883928Y-12208500D01*
X4912500Y-12194214D01*
X5141071Y-12465643D02*
X5155357Y-12479929D01*
X5141071Y-12494214D01*
X5126786Y-12479929D01*
X5141071Y-12465643D01*
X5141071Y-12494214D01*
X5341071Y-12194214D02*
X5369643Y-12194214D01*
X5398214Y-12208500D01*
X5412500Y-12222786D01*
X5426786Y-12251357D01*
X5441071Y-12308500D01*
X5441071Y-12379929D01*
X5426786Y-12437071D01*
X5412500Y-12465643D01*
X5398214Y-12479929D01*
X5369643Y-12494214D01*
X5341071Y-12494214D01*
X5312500Y-12479929D01*
X5298214Y-12465643D01*
X5283928Y-12437071D01*
X5269643Y-12379929D01*
X5269643Y-12308500D01*
X5283928Y-12251357D01*
X5298214Y-12222786D01*
X5312500Y-12208500D01*
X5341071Y-12194214D01*
X5555357Y-12222786D02*
X5569643Y-12208500D01*
X5598214Y-12194214D01*
X5669643Y-12194214D01*
X5698214Y-12208500D01*
X5712500Y-12222786D01*
X5726786Y-12251357D01*
X5726786Y-12279929D01*
X5712500Y-12322786D01*
X5541071Y-12494214D01*
X5726786Y-12494214D01*
X5898214Y-12322786D02*
X5869643Y-12308500D01*
X5855357Y-12294214D01*
X5841071Y-12265643D01*
X5841071Y-12251357D01*
X5855357Y-12222786D01*
X5869643Y-12208500D01*
X5898214Y-12194214D01*
X5955357Y-12194214D01*
X5983928Y-12208500D01*
X5998214Y-12222786D01*
X6012500Y-12251357D01*
X6012500Y-12265643D01*
X5998214Y-12294214D01*
X5983928Y-12308500D01*
X5955357Y-12322786D01*
X5898214Y-12322786D01*
X5869643Y-12337071D01*
X5855357Y-12351357D01*
X5841071Y-12379929D01*
X5841071Y-12437071D01*
X5855357Y-12465643D01*
X5869643Y-12479929D01*
X5898214Y-12494214D01*
X5955357Y-12494214D01*
X5983928Y-12479929D01*
X5998214Y-12465643D01*
X6012500Y-12437071D01*
X6012500Y-12379929D01*
X5998214Y-12351357D01*
X5983928Y-12337071D01*
X5955357Y-12322786D01*
X6126786Y-12194214D02*
X6126786Y-12251357D01*
X6241071Y-12194214D02*
X6241071Y-12251357D01*
X6683928Y-12608500D02*
X6669643Y-12594214D01*
X6641071Y-12551357D01*
X6626786Y-12522786D01*
X6612500Y-12479929D01*
X6598214Y-12408500D01*
X6598214Y-12351357D01*
X6612500Y-12279929D01*
X6626786Y-12237071D01*
X6641071Y-12208500D01*
X6669643Y-12165643D01*
X6683928Y-12151357D01*
X6955357Y-12494214D02*
X6783928Y-12494214D01*
X6869643Y-12494214D02*
X6869643Y-12194214D01*
X6841071Y-12237071D01*
X6812500Y-12265643D01*
X6783928Y-12279929D01*
X7069643Y-12222786D02*
X7083928Y-12208500D01*
X7112500Y-12194214D01*
X7183928Y-12194214D01*
X7212500Y-12208500D01*
X7226786Y-12222786D01*
X7241071Y-12251357D01*
X7241071Y-12279929D01*
X7226786Y-12322786D01*
X7055357Y-12494214D01*
X7241071Y-12494214D01*
X7412500Y-12322786D02*
X7383928Y-12308500D01*
X7369643Y-12294214D01*
X7355357Y-12265643D01*
X7355357Y-12251357D01*
X7369643Y-12222786D01*
X7383928Y-12208500D01*
X7412500Y-12194214D01*
X7469643Y-12194214D01*
X7498214Y-12208500D01*
X7512500Y-12222786D01*
X7526786Y-12251357D01*
X7526786Y-12265643D01*
X7512500Y-12294214D01*
X7498214Y-12308500D01*
X7469643Y-12322786D01*
X7412500Y-12322786D01*
X7383928Y-12337071D01*
X7369643Y-12351357D01*
X7355357Y-12379929D01*
X7355357Y-12437071D01*
X7369643Y-12465643D01*
X7383928Y-12479929D01*
X7412500Y-12494214D01*
X7469643Y-12494214D01*
X7498214Y-12479929D01*
X7512500Y-12465643D01*
X7526786Y-12437071D01*
X7526786Y-12379929D01*
X7512500Y-12351357D01*
X7498214Y-12337071D01*
X7469643Y-12322786D01*
X7883928Y-12494214D02*
X7883928Y-12194214D01*
X8012500Y-12494214D02*
X8012500Y-12337071D01*
X7998214Y-12308500D01*
X7969643Y-12294214D01*
X7926786Y-12294214D01*
X7898214Y-12308500D01*
X7883928Y-12322786D01*
X8198214Y-12494214D02*
X8169643Y-12479929D01*
X8155357Y-12465643D01*
X8141071Y-12437071D01*
X8141071Y-12351357D01*
X8155357Y-12322786D01*
X8169643Y-12308500D01*
X8198214Y-12294214D01*
X8241071Y-12294214D01*
X8269643Y-12308500D01*
X8283928Y-12322786D01*
X8298214Y-12351357D01*
X8298214Y-12437071D01*
X8283928Y-12465643D01*
X8269643Y-12479929D01*
X8241071Y-12494214D01*
X8198214Y-12494214D01*
X8469643Y-12494214D02*
X8441071Y-12479929D01*
X8426786Y-12451357D01*
X8426786Y-12194214D01*
X8698214Y-12479929D02*
X8669643Y-12494214D01*
X8612500Y-12494214D01*
X8583928Y-12479929D01*
X8569643Y-12451357D01*
X8569643Y-12337071D01*
X8583928Y-12308500D01*
X8612500Y-12294214D01*
X8669643Y-12294214D01*
X8698214Y-12308500D01*
X8712500Y-12337071D01*
X8712500Y-12365643D01*
X8569643Y-12394214D01*
X8826786Y-12479929D02*
X8855357Y-12494214D01*
X8912500Y-12494214D01*
X8941071Y-12479929D01*
X8955357Y-12451357D01*
X8955357Y-12437071D01*
X8941071Y-12408500D01*
X8912500Y-12394214D01*
X8869643Y-12394214D01*
X8841071Y-12379929D01*
X8826786Y-12351357D01*
X8826786Y-12337071D01*
X8841071Y-12308500D01*
X8869643Y-12294214D01*
X8912500Y-12294214D01*
X8941071Y-12308500D01*
X9055357Y-12608500D02*
X9069643Y-12594214D01*
X9098214Y-12551357D01*
X9112500Y-12522786D01*
X9126786Y-12479929D01*
X9141071Y-12408500D01*
X9141071Y-12351357D01*
X9126786Y-12279929D01*
X9112500Y-12237071D01*
X9098214Y-12208500D01*
X9069643Y-12165643D01*
X9055357Y-12151357D01*
X1960000Y-12717000D02*
X1960000Y-12792000D01*
X1922500Y-12754500D02*
X1997500Y-12754500D01*
X2341071Y-12590214D02*
X2369643Y-12590214D01*
X2398214Y-12604500D01*
X2412500Y-12618786D01*
X2426786Y-12647357D01*
X2441071Y-12704500D01*
X2441071Y-12775929D01*
X2426786Y-12833071D01*
X2412500Y-12861643D01*
X2398214Y-12875929D01*
X2369643Y-12890214D01*
X2341071Y-12890214D01*
X2312500Y-12875929D01*
X2298214Y-12861643D01*
X2283928Y-12833071D01*
X2269643Y-12775929D01*
X2269643Y-12704500D01*
X2283928Y-12647357D01*
X2298214Y-12618786D01*
X2312500Y-12604500D01*
X2341071Y-12590214D01*
X2569643Y-12861643D02*
X2583928Y-12875929D01*
X2569643Y-12890214D01*
X2555357Y-12875929D01*
X2569643Y-12861643D01*
X2569643Y-12890214D01*
X2683928Y-12590214D02*
X2883928Y-12590214D01*
X2755357Y-12890214D01*
X3141071Y-12590214D02*
X2998214Y-12590214D01*
X2983928Y-12733071D01*
X2998214Y-12718786D01*
X3026786Y-12704500D01*
X3098214Y-12704500D01*
X3126786Y-12718786D01*
X3141071Y-12733071D01*
X3155357Y-12761643D01*
X3155357Y-12833071D01*
X3141071Y-12861643D01*
X3126786Y-12875929D01*
X3098214Y-12890214D01*
X3026786Y-12890214D01*
X2998214Y-12875929D01*
X2983928Y-12861643D01*
X3283928Y-12890214D02*
X3283928Y-12690214D01*
X3283928Y-12718786D02*
X3298214Y-12704500D01*
X3326786Y-12690214D01*
X3369643Y-12690214D01*
X3398214Y-12704500D01*
X3412500Y-12733071D01*
X3412500Y-12890214D01*
X3412500Y-12733071D02*
X3426786Y-12704500D01*
X3455357Y-12690214D01*
X3498214Y-12690214D01*
X3526786Y-12704500D01*
X3541071Y-12733071D01*
X3541071Y-12890214D01*
X3683928Y-12890214D02*
X3683928Y-12690214D01*
X3683928Y-12718786D02*
X3698214Y-12704500D01*
X3726786Y-12690214D01*
X3769643Y-12690214D01*
X3798214Y-12704500D01*
X3812500Y-12733071D01*
X3812500Y-12890214D01*
X3812500Y-12733071D02*
X3826786Y-12704500D01*
X3855357Y-12690214D01*
X3898214Y-12690214D01*
X3926786Y-12704500D01*
X3941071Y-12733071D01*
X3941071Y-12890214D01*
X4526786Y-12575929D02*
X4269643Y-12961643D01*
X4912500Y-12590214D02*
X4941071Y-12590214D01*
X4969643Y-12604500D01*
X4983928Y-12618786D01*
X4998214Y-12647357D01*
X5012500Y-12704500D01*
X5012500Y-12775929D01*
X4998214Y-12833071D01*
X4983928Y-12861643D01*
X4969643Y-12875929D01*
X4941071Y-12890214D01*
X4912500Y-12890214D01*
X4883928Y-12875929D01*
X4869643Y-12861643D01*
X4855357Y-12833071D01*
X4841071Y-12775929D01*
X4841071Y-12704500D01*
X4855357Y-12647357D01*
X4869643Y-12618786D01*
X4883928Y-12604500D01*
X4912500Y-12590214D01*
X5141071Y-12861643D02*
X5155357Y-12875929D01*
X5141071Y-12890214D01*
X5126786Y-12875929D01*
X5141071Y-12861643D01*
X5141071Y-12890214D01*
X5341071Y-12590214D02*
X5369643Y-12590214D01*
X5398214Y-12604500D01*
X5412500Y-12618786D01*
X5426786Y-12647357D01*
X5441071Y-12704500D01*
X5441071Y-12775929D01*
X5426786Y-12833071D01*
X5412500Y-12861643D01*
X5398214Y-12875929D01*
X5369643Y-12890214D01*
X5341071Y-12890214D01*
X5312500Y-12875929D01*
X5298214Y-12861643D01*
X5283928Y-12833071D01*
X5269643Y-12775929D01*
X5269643Y-12704500D01*
X5283928Y-12647357D01*
X5298214Y-12618786D01*
X5312500Y-12604500D01*
X5341071Y-12590214D01*
X5541071Y-12590214D02*
X5726786Y-12590214D01*
X5626786Y-12704500D01*
X5669643Y-12704500D01*
X5698214Y-12718786D01*
X5712500Y-12733071D01*
X5726786Y-12761643D01*
X5726786Y-12833071D01*
X5712500Y-12861643D01*
X5698214Y-12875929D01*
X5669643Y-12890214D01*
X5583928Y-12890214D01*
X5555357Y-12875929D01*
X5541071Y-12861643D01*
X5912500Y-12590214D02*
X5941071Y-12590214D01*
X5969643Y-12604500D01*
X5983928Y-12618786D01*
X5998214Y-12647357D01*
X6012500Y-12704500D01*
X6012500Y-12775929D01*
X5998214Y-12833071D01*
X5983928Y-12861643D01*
X5969643Y-12875929D01*
X5941071Y-12890214D01*
X5912500Y-12890214D01*
X5883928Y-12875929D01*
X5869643Y-12861643D01*
X5855357Y-12833071D01*
X5841071Y-12775929D01*
X5841071Y-12704500D01*
X5855357Y-12647357D01*
X5869643Y-12618786D01*
X5883928Y-12604500D01*
X5912500Y-12590214D01*
X6126786Y-12590214D02*
X6126786Y-12647357D01*
X6241071Y-12590214D02*
X6241071Y-12647357D01*
X6683928Y-13004500D02*
X6669643Y-12990214D01*
X6641071Y-12947357D01*
X6626786Y-12918786D01*
X6612500Y-12875929D01*
X6598214Y-12804500D01*
X6598214Y-12747357D01*
X6612500Y-12675929D01*
X6626786Y-12633071D01*
X6641071Y-12604500D01*
X6669643Y-12561643D01*
X6683928Y-12547357D01*
X6783928Y-12618786D02*
X6798214Y-12604500D01*
X6826786Y-12590214D01*
X6898214Y-12590214D01*
X6926786Y-12604500D01*
X6941071Y-12618786D01*
X6955357Y-12647357D01*
X6955357Y-12675929D01*
X6941071Y-12718786D01*
X6769643Y-12890214D01*
X6955357Y-12890214D01*
X7212500Y-12690214D02*
X7212500Y-12890214D01*
X7141071Y-12575929D02*
X7069643Y-12790214D01*
X7255357Y-12790214D01*
X7598214Y-12890214D02*
X7598214Y-12590214D01*
X7726786Y-12890214D02*
X7726786Y-12733071D01*
X7712500Y-12704500D01*
X7683928Y-12690214D01*
X7641071Y-12690214D01*
X7612500Y-12704500D01*
X7598214Y-12718786D01*
X7912500Y-12890214D02*
X7883928Y-12875929D01*
X7869643Y-12861643D01*
X7855357Y-12833071D01*
X7855357Y-12747357D01*
X7869643Y-12718786D01*
X7883928Y-12704500D01*
X7912500Y-12690214D01*
X7955357Y-12690214D01*
X7983928Y-12704500D01*
X7998214Y-12718786D01*
X8012500Y-12747357D01*
X8012500Y-12833071D01*
X7998214Y-12861643D01*
X7983928Y-12875929D01*
X7955357Y-12890214D01*
X7912500Y-12890214D01*
X8183928Y-12890214D02*
X8155357Y-12875929D01*
X8141071Y-12847357D01*
X8141071Y-12590214D01*
X8412500Y-12875929D02*
X8383928Y-12890214D01*
X8326786Y-12890214D01*
X8298214Y-12875929D01*
X8283928Y-12847357D01*
X8283928Y-12733071D01*
X8298214Y-12704500D01*
X8326786Y-12690214D01*
X8383928Y-12690214D01*
X8412500Y-12704500D01*
X8426786Y-12733071D01*
X8426786Y-12761643D01*
X8283928Y-12790214D01*
X8541071Y-12875929D02*
X8569643Y-12890214D01*
X8626786Y-12890214D01*
X8655357Y-12875929D01*
X8669643Y-12847357D01*
X8669643Y-12833071D01*
X8655357Y-12804500D01*
X8626786Y-12790214D01*
X8583928Y-12790214D01*
X8555357Y-12775929D01*
X8541071Y-12747357D01*
X8541071Y-12733071D01*
X8555357Y-12704500D01*
X8583928Y-12690214D01*
X8626786Y-12690214D01*
X8655357Y-12704500D01*
X8769643Y-13004500D02*
X8783928Y-12990214D01*
X8812500Y-12947357D01*
X8826786Y-12918786D01*
X8841071Y-12875929D01*
X8855357Y-12804500D01*
X8855357Y-12747357D01*
X8841071Y-12675929D01*
X8826786Y-12633071D01*
X8812500Y-12604500D01*
X8783928Y-12561643D01*
X8769643Y-12547357D01*
X1985784Y-13178785D02*
X1985784Y-13122216D01*
X1929215Y-13122216D01*
X1929215Y-13178785D01*
X1985784Y-13178785D01*
X2341071Y-12986214D02*
X2369643Y-12986214D01*
X2398214Y-13000500D01*
X2412500Y-13014786D01*
X2426786Y-13043357D01*
X2441071Y-13100500D01*
X2441071Y-13171929D01*
X2426786Y-13229071D01*
X2412500Y-13257643D01*
X2398214Y-13271929D01*
X2369643Y-13286214D01*
X2341071Y-13286214D01*
X2312500Y-13271929D01*
X2298214Y-13257643D01*
X2283928Y-13229071D01*
X2269643Y-13171929D01*
X2269643Y-13100500D01*
X2283928Y-13043357D01*
X2298214Y-13014786D01*
X2312500Y-13000500D01*
X2341071Y-12986214D01*
X2569643Y-13257643D02*
X2583928Y-13271929D01*
X2569643Y-13286214D01*
X2555357Y-13271929D01*
X2569643Y-13257643D01*
X2569643Y-13286214D01*
X2755357Y-13114786D02*
X2726786Y-13100500D01*
X2712500Y-13086214D01*
X2698214Y-13057643D01*
X2698214Y-13043357D01*
X2712500Y-13014786D01*
X2726786Y-13000500D01*
X2755357Y-12986214D01*
X2812500Y-12986214D01*
X2841071Y-13000500D01*
X2855357Y-13014786D01*
X2869643Y-13043357D01*
X2869643Y-13057643D01*
X2855357Y-13086214D01*
X2841071Y-13100500D01*
X2812500Y-13114786D01*
X2755357Y-13114786D01*
X2726786Y-13129071D01*
X2712500Y-13143357D01*
X2698214Y-13171929D01*
X2698214Y-13229071D01*
X2712500Y-13257643D01*
X2726786Y-13271929D01*
X2755357Y-13286214D01*
X2812500Y-13286214D01*
X2841071Y-13271929D01*
X2855357Y-13257643D01*
X2869643Y-13229071D01*
X2869643Y-13171929D01*
X2855357Y-13143357D01*
X2841071Y-13129071D01*
X2812500Y-13114786D01*
X3055357Y-12986214D02*
X3083928Y-12986214D01*
X3112500Y-13000500D01*
X3126786Y-13014786D01*
X3141071Y-13043357D01*
X3155357Y-13100500D01*
X3155357Y-13171929D01*
X3141071Y-13229071D01*
X3126786Y-13257643D01*
X3112500Y-13271929D01*
X3083928Y-13286214D01*
X3055357Y-13286214D01*
X3026786Y-13271929D01*
X3012500Y-13257643D01*
X2998214Y-13229071D01*
X2983928Y-13171929D01*
X2983928Y-13100500D01*
X2998214Y-13043357D01*
X3012500Y-13014786D01*
X3026786Y-13000500D01*
X3055357Y-12986214D01*
X3283928Y-13286214D02*
X3283928Y-13086214D01*
X3283928Y-13114786D02*
X3298214Y-13100500D01*
X3326786Y-13086214D01*
X3369643Y-13086214D01*
X3398214Y-13100500D01*
X3412500Y-13129071D01*
X3412500Y-13286214D01*
X3412500Y-13129071D02*
X3426786Y-13100500D01*
X3455357Y-13086214D01*
X3498214Y-13086214D01*
X3526786Y-13100500D01*
X3541071Y-13129071D01*
X3541071Y-13286214D01*
X3683928Y-13286214D02*
X3683928Y-13086214D01*
X3683928Y-13114786D02*
X3698214Y-13100500D01*
X3726786Y-13086214D01*
X3769643Y-13086214D01*
X3798214Y-13100500D01*
X3812500Y-13129071D01*
X3812500Y-13286214D01*
X3812500Y-13129071D02*
X3826786Y-13100500D01*
X3855357Y-13086214D01*
X3898214Y-13086214D01*
X3926786Y-13100500D01*
X3941071Y-13129071D01*
X3941071Y-13286214D01*
X4526786Y-12971929D02*
X4269643Y-13357643D01*
X4912500Y-12986214D02*
X4941071Y-12986214D01*
X4969643Y-13000500D01*
X4983928Y-13014786D01*
X4998214Y-13043357D01*
X5012500Y-13100500D01*
X5012500Y-13171929D01*
X4998214Y-13229071D01*
X4983928Y-13257643D01*
X4969643Y-13271929D01*
X4941071Y-13286214D01*
X4912500Y-13286214D01*
X4883928Y-13271929D01*
X4869643Y-13257643D01*
X4855357Y-13229071D01*
X4841071Y-13171929D01*
X4841071Y-13100500D01*
X4855357Y-13043357D01*
X4869643Y-13014786D01*
X4883928Y-13000500D01*
X4912500Y-12986214D01*
X5141071Y-13257643D02*
X5155357Y-13271929D01*
X5141071Y-13286214D01*
X5126786Y-13271929D01*
X5141071Y-13257643D01*
X5141071Y-13286214D01*
X5341071Y-12986214D02*
X5369643Y-12986214D01*
X5398214Y-13000500D01*
X5412500Y-13014786D01*
X5426786Y-13043357D01*
X5441071Y-13100500D01*
X5441071Y-13171929D01*
X5426786Y-13229071D01*
X5412500Y-13257643D01*
X5398214Y-13271929D01*
X5369643Y-13286214D01*
X5341071Y-13286214D01*
X5312500Y-13271929D01*
X5298214Y-13257643D01*
X5283928Y-13229071D01*
X5269643Y-13171929D01*
X5269643Y-13100500D01*
X5283928Y-13043357D01*
X5298214Y-13014786D01*
X5312500Y-13000500D01*
X5341071Y-12986214D01*
X5541071Y-12986214D02*
X5726786Y-12986214D01*
X5626786Y-13100500D01*
X5669643Y-13100500D01*
X5698214Y-13114786D01*
X5712500Y-13129071D01*
X5726786Y-13157643D01*
X5726786Y-13229071D01*
X5712500Y-13257643D01*
X5698214Y-13271929D01*
X5669643Y-13286214D01*
X5583928Y-13286214D01*
X5555357Y-13271929D01*
X5541071Y-13257643D01*
X6012500Y-13286214D02*
X5841071Y-13286214D01*
X5926786Y-13286214D02*
X5926786Y-12986214D01*
X5898214Y-13029071D01*
X5869643Y-13057643D01*
X5841071Y-13071929D01*
X6126786Y-12986214D02*
X6126786Y-13043357D01*
X6241071Y-12986214D02*
X6241071Y-13043357D01*
X6683928Y-13400500D02*
X6669643Y-13386214D01*
X6641071Y-13343357D01*
X6626786Y-13314786D01*
X6612500Y-13271929D01*
X6598214Y-13200500D01*
X6598214Y-13143357D01*
X6612500Y-13071929D01*
X6626786Y-13029071D01*
X6641071Y-13000500D01*
X6669643Y-12957643D01*
X6683928Y-12943357D01*
X6783928Y-13014786D02*
X6798214Y-13000500D01*
X6826786Y-12986214D01*
X6898214Y-12986214D01*
X6926786Y-13000500D01*
X6941071Y-13014786D01*
X6955357Y-13043357D01*
X6955357Y-13071929D01*
X6941071Y-13114786D01*
X6769643Y-13286214D01*
X6955357Y-13286214D01*
X7212500Y-13086214D02*
X7212500Y-13286214D01*
X7141071Y-12971929D02*
X7069643Y-13186214D01*
X7255357Y-13186214D01*
X7498214Y-12986214D02*
X7441071Y-12986214D01*
X7412500Y-13000500D01*
X7398214Y-13014786D01*
X7369643Y-13057643D01*
X7355357Y-13114786D01*
X7355357Y-13229071D01*
X7369643Y-13257643D01*
X7383928Y-13271929D01*
X7412500Y-13286214D01*
X7469643Y-13286214D01*
X7498214Y-13271929D01*
X7512500Y-13257643D01*
X7526786Y-13229071D01*
X7526786Y-13157643D01*
X7512500Y-13129071D01*
X7498214Y-13114786D01*
X7469643Y-13100500D01*
X7412500Y-13100500D01*
X7383928Y-13114786D01*
X7369643Y-13129071D01*
X7355357Y-13157643D01*
X7883928Y-13286214D02*
X7883928Y-12986214D01*
X8012500Y-13286214D02*
X8012500Y-13129071D01*
X7998214Y-13100500D01*
X7969643Y-13086214D01*
X7926786Y-13086214D01*
X7898214Y-13100500D01*
X7883928Y-13114786D01*
X8198214Y-13286214D02*
X8169643Y-13271929D01*
X8155357Y-13257643D01*
X8141071Y-13229071D01*
X8141071Y-13143357D01*
X8155357Y-13114786D01*
X8169643Y-13100500D01*
X8198214Y-13086214D01*
X8241071Y-13086214D01*
X8269643Y-13100500D01*
X8283928Y-13114786D01*
X8298214Y-13143357D01*
X8298214Y-13229071D01*
X8283928Y-13257643D01*
X8269643Y-13271929D01*
X8241071Y-13286214D01*
X8198214Y-13286214D01*
X8469643Y-13286214D02*
X8441071Y-13271929D01*
X8426786Y-13243357D01*
X8426786Y-12986214D01*
X8698214Y-13271929D02*
X8669643Y-13286214D01*
X8612500Y-13286214D01*
X8583928Y-13271929D01*
X8569643Y-13243357D01*
X8569643Y-13129071D01*
X8583928Y-13100500D01*
X8612500Y-13086214D01*
X8669643Y-13086214D01*
X8698214Y-13100500D01*
X8712500Y-13129071D01*
X8712500Y-13157643D01*
X8569643Y-13186214D01*
X8826786Y-13271929D02*
X8855357Y-13286214D01*
X8912500Y-13286214D01*
X8941071Y-13271929D01*
X8955357Y-13243357D01*
X8955357Y-13229071D01*
X8941071Y-13200500D01*
X8912500Y-13186214D01*
X8869643Y-13186214D01*
X8841071Y-13171929D01*
X8826786Y-13143357D01*
X8826786Y-13129071D01*
X8841071Y-13100500D01*
X8869643Y-13086214D01*
X8912500Y-13086214D01*
X8941071Y-13100500D01*
X9055357Y-13400500D02*
X9069643Y-13386214D01*
X9098214Y-13343357D01*
X9112500Y-13314786D01*
X9126786Y-13271929D01*
X9141071Y-13200500D01*
X9141071Y-13143357D01*
X9126786Y-13071929D01*
X9112500Y-13029071D01*
X9098214Y-13000500D01*
X9069643Y-12957643D01*
X9055357Y-12943357D01*
X1917500Y-13626500D02*
X1997500Y-13546500D01*
X1917500Y-13466500D01*
X1837500Y-13546500D01*
X1917500Y-13626500D01*
X2441071Y-13682214D02*
X2269643Y-13682214D01*
X2355357Y-13682214D02*
X2355357Y-13382214D01*
X2326786Y-13425071D01*
X2298214Y-13453643D01*
X2269643Y-13467929D01*
X2569643Y-13653643D02*
X2583928Y-13667929D01*
X2569643Y-13682214D01*
X2555357Y-13667929D01*
X2569643Y-13653643D01*
X2569643Y-13682214D01*
X2841071Y-13382214D02*
X2783928Y-13382214D01*
X2755357Y-13396500D01*
X2741071Y-13410786D01*
X2712500Y-13453643D01*
X2698214Y-13510786D01*
X2698214Y-13625071D01*
X2712500Y-13653643D01*
X2726786Y-13667929D01*
X2755357Y-13682214D01*
X2812500Y-13682214D01*
X2841071Y-13667929D01*
X2855357Y-13653643D01*
X2869643Y-13625071D01*
X2869643Y-13553643D01*
X2855357Y-13525071D01*
X2841071Y-13510786D01*
X2812500Y-13496500D01*
X2755357Y-13496500D01*
X2726786Y-13510786D01*
X2712500Y-13525071D01*
X2698214Y-13553643D01*
X3055357Y-13382214D02*
X3083928Y-13382214D01*
X3112500Y-13396500D01*
X3126786Y-13410786D01*
X3141071Y-13439357D01*
X3155357Y-13496500D01*
X3155357Y-13567929D01*
X3141071Y-13625071D01*
X3126786Y-13653643D01*
X3112500Y-13667929D01*
X3083928Y-13682214D01*
X3055357Y-13682214D01*
X3026786Y-13667929D01*
X3012500Y-13653643D01*
X2998214Y-13625071D01*
X2983928Y-13567929D01*
X2983928Y-13496500D01*
X2998214Y-13439357D01*
X3012500Y-13410786D01*
X3026786Y-13396500D01*
X3055357Y-13382214D01*
X3283928Y-13682214D02*
X3283928Y-13482214D01*
X3283928Y-13510786D02*
X3298214Y-13496500D01*
X3326786Y-13482214D01*
X3369643Y-13482214D01*
X3398214Y-13496500D01*
X3412500Y-13525071D01*
X3412500Y-13682214D01*
X3412500Y-13525071D02*
X3426786Y-13496500D01*
X3455357Y-13482214D01*
X3498214Y-13482214D01*
X3526786Y-13496500D01*
X3541071Y-13525071D01*
X3541071Y-13682214D01*
X3683928Y-13682214D02*
X3683928Y-13482214D01*
X3683928Y-13510786D02*
X3698214Y-13496500D01*
X3726786Y-13482214D01*
X3769643Y-13482214D01*
X3798214Y-13496500D01*
X3812500Y-13525071D01*
X3812500Y-13682214D01*
X3812500Y-13525071D02*
X3826786Y-13496500D01*
X3855357Y-13482214D01*
X3898214Y-13482214D01*
X3926786Y-13496500D01*
X3941071Y-13525071D01*
X3941071Y-13682214D01*
X4526786Y-13367929D02*
X4269643Y-13753643D01*
X4912500Y-13382214D02*
X4941071Y-13382214D01*
X4969643Y-13396500D01*
X4983928Y-13410786D01*
X4998214Y-13439357D01*
X5012500Y-13496500D01*
X5012500Y-13567929D01*
X4998214Y-13625071D01*
X4983928Y-13653643D01*
X4969643Y-13667929D01*
X4941071Y-13682214D01*
X4912500Y-13682214D01*
X4883928Y-13667929D01*
X4869643Y-13653643D01*
X4855357Y-13625071D01*
X4841071Y-13567929D01*
X4841071Y-13496500D01*
X4855357Y-13439357D01*
X4869643Y-13410786D01*
X4883928Y-13396500D01*
X4912500Y-13382214D01*
X5141071Y-13653643D02*
X5155357Y-13667929D01*
X5141071Y-13682214D01*
X5126786Y-13667929D01*
X5141071Y-13653643D01*
X5141071Y-13682214D01*
X5341071Y-13382214D02*
X5369643Y-13382214D01*
X5398214Y-13396500D01*
X5412500Y-13410786D01*
X5426786Y-13439357D01*
X5441071Y-13496500D01*
X5441071Y-13567929D01*
X5426786Y-13625071D01*
X5412500Y-13653643D01*
X5398214Y-13667929D01*
X5369643Y-13682214D01*
X5341071Y-13682214D01*
X5312500Y-13667929D01*
X5298214Y-13653643D01*
X5283928Y-13625071D01*
X5269643Y-13567929D01*
X5269643Y-13496500D01*
X5283928Y-13439357D01*
X5298214Y-13410786D01*
X5312500Y-13396500D01*
X5341071Y-13382214D01*
X5698214Y-13382214D02*
X5641071Y-13382214D01*
X5612500Y-13396500D01*
X5598214Y-13410786D01*
X5569643Y-13453643D01*
X5555357Y-13510786D01*
X5555357Y-13625071D01*
X5569643Y-13653643D01*
X5583928Y-13667929D01*
X5612500Y-13682214D01*
X5669643Y-13682214D01*
X5698214Y-13667929D01*
X5712500Y-13653643D01*
X5726786Y-13625071D01*
X5726786Y-13553643D01*
X5712500Y-13525071D01*
X5698214Y-13510786D01*
X5669643Y-13496500D01*
X5612500Y-13496500D01*
X5583928Y-13510786D01*
X5569643Y-13525071D01*
X5555357Y-13553643D01*
X5826786Y-13382214D02*
X6012500Y-13382214D01*
X5912500Y-13496500D01*
X5955357Y-13496500D01*
X5983928Y-13510786D01*
X5998214Y-13525071D01*
X6012500Y-13553643D01*
X6012500Y-13625071D01*
X5998214Y-13653643D01*
X5983928Y-13667929D01*
X5955357Y-13682214D01*
X5869643Y-13682214D01*
X5841071Y-13667929D01*
X5826786Y-13653643D01*
X6126786Y-13382214D02*
X6126786Y-13439357D01*
X6241071Y-13382214D02*
X6241071Y-13439357D01*
X6683928Y-13796500D02*
X6669643Y-13782214D01*
X6641071Y-13739357D01*
X6626786Y-13710786D01*
X6612500Y-13667929D01*
X6598214Y-13596500D01*
X6598214Y-13539357D01*
X6612500Y-13467929D01*
X6626786Y-13425071D01*
X6641071Y-13396500D01*
X6669643Y-13353643D01*
X6683928Y-13339357D01*
X6769643Y-13382214D02*
X6955357Y-13382214D01*
X6855357Y-13496500D01*
X6898214Y-13496500D01*
X6926786Y-13510786D01*
X6941071Y-13525071D01*
X6955357Y-13553643D01*
X6955357Y-13625071D01*
X6941071Y-13653643D01*
X6926786Y-13667929D01*
X6898214Y-13682214D01*
X6812500Y-13682214D01*
X6783928Y-13667929D01*
X6769643Y-13653643D01*
X7312500Y-13682214D02*
X7312500Y-13382214D01*
X7441071Y-13682214D02*
X7441071Y-13525071D01*
X7426786Y-13496500D01*
X7398214Y-13482214D01*
X7355357Y-13482214D01*
X7326786Y-13496500D01*
X7312500Y-13510786D01*
X7626786Y-13682214D02*
X7598214Y-13667929D01*
X7583928Y-13653643D01*
X7569643Y-13625071D01*
X7569643Y-13539357D01*
X7583928Y-13510786D01*
X7598214Y-13496500D01*
X7626786Y-13482214D01*
X7669643Y-13482214D01*
X7698214Y-13496500D01*
X7712500Y-13510786D01*
X7726786Y-13539357D01*
X7726786Y-13625071D01*
X7712500Y-13653643D01*
X7698214Y-13667929D01*
X7669643Y-13682214D01*
X7626786Y-13682214D01*
X7898214Y-13682214D02*
X7869643Y-13667929D01*
X7855357Y-13639357D01*
X7855357Y-13382214D01*
X8126786Y-13667929D02*
X8098214Y-13682214D01*
X8041071Y-13682214D01*
X8012500Y-13667929D01*
X7998214Y-13639357D01*
X7998214Y-13525071D01*
X8012500Y-13496500D01*
X8041071Y-13482214D01*
X8098214Y-13482214D01*
X8126786Y-13496500D01*
X8141071Y-13525071D01*
X8141071Y-13553643D01*
X7998214Y-13582214D01*
X8255357Y-13667929D02*
X8283928Y-13682214D01*
X8341071Y-13682214D01*
X8369643Y-13667929D01*
X8383928Y-13639357D01*
X8383928Y-13625071D01*
X8369643Y-13596500D01*
X8341071Y-13582214D01*
X8298214Y-13582214D01*
X8269643Y-13567929D01*
X8255357Y-13539357D01*
X8255357Y-13525071D01*
X8269643Y-13496500D01*
X8298214Y-13482214D01*
X8341071Y-13482214D01*
X8369643Y-13496500D01*
X8483928Y-13796500D02*
X8498214Y-13782214D01*
X8526786Y-13739357D01*
X8541071Y-13710786D01*
X8555357Y-13667929D01*
X8569643Y-13596500D01*
X8569643Y-13539357D01*
X8555357Y-13467929D01*
X8541071Y-13425071D01*
X8526786Y-13396500D01*
X8498214Y-13353643D01*
X8483928Y-13339357D01*
M02*
